<mxfile host="65bd71144e">
    <diagram id="87vawwqzwr7Bq8xOBAQ0" name="Page-1">
        <mxGraphModel dx="1642" dy="925" grid="1" gridSize="10" guides="1" tooltips="1" connect="1" arrows="1" fold="1" page="1" pageScale="1" pageWidth="1100" pageHeight="850" math="0" shadow="0">
            <root>
                <mxCell id="0"/>
                <mxCell id="1" parent="0"/>
                <mxCell id="5" value="THINKING MISTAKE" style="text;html=1;align=center;verticalAlign=middle;resizable=0;points=[];autosize=1;strokeColor=none;fillColor=none;" parent="1" vertex="1">
                    <mxGeometry x="50" y="95" width="140" height="30" as="geometry"/>
                </mxCell>
                <mxCell id="28" value="" style="shape=stencil(lVbLUsMwDPyaXDWWbPlxhvIfzNDSDKVl2vL6e2QySSq3EcPNcbKxV7sru/N3p+3j27ojdzofDy/rz/7pvO38fUfU77frY3+WUedXnb/bHI7r5+Phff80PL891i/r6PXwUf/wNeByASwVRe57mPERAv3OPAyAXb+/AJQIFBQgyIw3AAVSVgBOkJIJCKwAsUAOBoCBNIeMgMYKWTZAClAccF4GpASsSZcEriwDIkPWK6Bz4Nwygn1bJqmDM4QIBLEBBCBeBngPsSlTBDRYk5RJs04M0agrMYSklfOQ0VwBnfYGQrY4ULtCQHCGN+pr1P4mYEsHHL02AuomjRVmihOAgQ3ScxEvVkiGmapMTUbFLFbkJiNMVaLR8UuRc9qubAt34eZJajaVq4HRdq2higZAIqnLVGNrsK6hjzoQDN6QurYVrVxtPcaW+CoQc3O77b4r5YrdLKX5el2luUEvAsp/ABTBaW9kEc4gjbGtUnaAltJA2hlJQmvI4Ns+Jolyxv/FF5oASyc0CFw5VXqC2ZTAaRt5NPlGiDo7hKbt0I/lmM4GGk+L2xuiNp1iIoOA7Lfo5NhN9fok+fOoYmy+T0oAGcwXjk2/2w33lcv37QVFpobLjV/9AA==);lineShape=1;" parent="1" vertex="1">
                    <mxGeometry x="69.30895772474497" y="190.62854137592376" width="0.7958211139881584" height="0.7962588097382617" as="geometry"/>
                </mxCell>
                <mxCell id="29" value="" style="shape=stencil(rVnbblw3DPyafSV0pcTnJP2PAHHqRV07cNxc/r48XejkaLQ7iwJ52zicI4kcDinqlN99ffz45eGUwte315e/Hr6fP709nvL7U0rn58eH1/Ob/zrlD6f87vPL68Ofry//PH+6/PvLx81y+/X3y7ftCz8uOC1SdUOl8PPylyIh/feHPy72T+fng33tkmyyz2KV2EeJGb+vt+1LkRTBPpLv5yaWwF7J/nMSbZN9lU7sU5MSJvsmrRH7LHn2TwyikQCC1HmB6C4gJ45dDFbQseZ1gEqdj+xr9kAAVfLMCT9VIU7yHUcAqIRCAEkMAF1aJoA4vL7TLkphh3a39hngbiXEM9E62+vY41X7Ln3maTYa5yVvSpJA7Jv0Mtt7plL7AnnQRlBu2KfZP8UGTW59f85jz2yj9jbTuvr+CYe66Oyf6jsk33dvz/vRIJlx1Dk/B1gzJYRzFDJZVWKnWQAhVpPI8swTc95Sc06wLLChzTugjFNdF5eIrGht6P0t+WpzYvZAM9kTPc0r9DQU/DqgowD3Mqh1XbHjyJMdoBxQpc6p000a8VIJQ3AHwBJdodSR6jugSGZVMGG2WaXytZE5IEAJ+byO97SsQCLt3CwVAYx8TjWo5NuhyRlax7pjeRD+ugQkiQXjkAn5esUUtSCNAWw0HwdqMBX2HWegdxmF5RagdwQwt7oT2+zWnmkH42GCUuiAzLak0m0BEC9ZG8p+ALDaYx3F3gGdFVuvNYZeyhxgFQGs79wAEOnKA2eY053L/XboggAl+eAAUO/eJLAz6HLoNtT2FjV6RkBkW3LydTwDq+pOb2i3HcAKiu1UOwDYBcMBAajhQsZTNAH59lPdAqgiIJE67V6CKur0ZjJj+44PgMIAOvLrmKJMNdrQiOMKDNAXevsZWBwMtdW9RPPBpC+FnZXdGLy1gMi5oDP22SJ9dVyGfhMgYxvqJYj1cF5woKJsFYDdA1y+YYVKezhvwEAFPPgsIVrFHPXg00IdBhN2gNFLt9bRyh8AtDsJeKPc9JlEulZsyQ5suY4IKDRb8AnAmzj0q9FKnTtm9SbQZAVvRBN0TJXegXIaan0kE/Gr37Kg1XU+FjaeqDhe6Z1uKaWleVDKvm2esagrq0GxLVUuct2oqH3NqH7HjHeU5mdgN7lleNC8ASLU6KOO7/aBqrFTb46CNsnEqQUbY+U+TdhTaqSdRkSP1ka7q7AM0Xg3FvDq4BeiSM67FIZilHRhGRoqFeGA5y1ldB03/BNhP3emTyiorh3GkgYHAVnpJTqPJN/tebtQ8CaWwxCOG/yE+G5TT3aZxDbSv3BnuDWLinuAXmGwc45eb9h8cbnRR5dqlvER26NYaIvnmgKUiInO/3597zAYTnxsC2W80dZlc8ksvJXXjoQb2lXmur0Niu0HGCPK6xzVoeLDPtAYr5P/OwV/eVkINIfXl4tAq8b6MuIqRiqlLsOIQPvlbZrY0D+s6VIcYAY6J9CG7UqgLZfbQ2Maaby0Le8QlA+rfaI1b91Poi8vurzU5Hv+B3/yGr/GK9NXlJUPmfv/f77E3bf3H7+e/T6fn54ur4bH/8dnQv/T5Ykxf/gX);lineShape=1;" parent="1" vertex="1">
                    <mxGeometry x="67.49125661154903" y="190.63324442094296" width="4.057896898809025" height="7.197080306387878" as="geometry"/>
                </mxCell>
                <mxCell id="30" value="" style="shape=stencil(nVnbUlsxDPyavGp8kS37mdL/YIZQMqWECdDL31enGR9iOVmHvoWgPUeWVivJ2cSb18e7l+0muNe3w/779tfu/u1xE79sQtg9P24Puzf9tIm3m3jzsD9svx3278/3x79f7hbL5dOP/c/lCb+PuEQSF1Bwf45feMry74uvR/On3XNvXjvzTDFDc/N0fbxD9qV/vE+UPbTPnX1wlBL0J/T2mRwj+9T7Ez3VCO1dby+TcHLq7DmSr8g+9v5wISmfeH6KM/9Lb1/aNxfsq6FDoALylUm4t89UQL6ESu+POMogX5W4z68wefB8pWPsCSRCESTMR+Leo+LIgwgpgc0RCg6RL+2EKyBBl7Rik/QAIUEAaTXSAFXDEC4DIttDV6UReAN7m+fKVEDeuLYyP3lDQoXAJH2l1UABKUW1ylUdpEZmq0Ua1gjOoNRMPflKhMUpq/as5FMngZoq1Wovp6IFDuR0YY55g2txOw8oQ0GvEnu+4DyVPg/ZQZc0ryYPSypRSTPVnhqqeQWQr6aW1xNRRdRQgBtUW0A9qEumRGMgRlFSFeoBWoOory3s710KgTJgq7I/9iXq1957CcADwKOwhhb1FcDYpWjrQQEBAdiyVdW2ggLSxIVsAQWoRs1Nq699g1hqzM4glhpLlBA1Crn4qTwU8gMAZlqsavhMAUVJ7NSgANRQNKx2zJPm5KXEWS5hbV1EgAcAcomttiogoJpWjRB76IqELJB4C2BcomwAqUnb9YCI32Bd0iY2OXSxgFlYkwU4XNPVACIO6zAveTyyLuQbXPKIS9K0+gSQUB7GAuLWJq8vUbSW/A9Ahv7AKNOVwtCBYMuqVr21x0Hy1TbWXrn7eOesuPJahBdf0fukc2NAZCptnlqHjQT3VSVT6RORdTRG3FD696fOAjc4nTpNoxYc16JTogFI04XzAG9TXfBoLMMWre9EmdMhMpgFwsEWpLM0D/tAQHtosWq8ZAYt0sFufpr7BN7AeQBUOPSxa9POWqMfBD6/NiWbCH0Fg2kjusaEk0PA1U+5MYYJuKQqYYTmY7y+tI0mA5isr2k4g2vJPw9Q+vdvWNZXvOObdRc3OR3hDLs9tNdtoCeGFDjBRTtTaj2hluitToqHk4lr/fJUYQApnJ0acmjD0wX72NtP7nycreXJnZKzq8zkzmp4/uROzNk7sUnfUXuz7eE7PdeifeWdobMD/eROcuiCkztP9ceML/hOVe0Nf2ALHB8/iabROA9buLNbp4MLm7OdSUMJfB9u8xxcdDTv1twj8bR3VBP5t7P1zNwMmdgZtrqMj5osKXEgk9UQnKY0tEZIgs//5oDN9cPHzxsPu6en468jp/+3P4foV8efUuLtXw==);lineShape=1;" parent="1" vertex="1">
                    <mxGeometry x="73.10480400090296" y="191.5530494534995" width="3.495955029393518" height="5.772752913766433" as="geometry"/>
                </mxCell>
                <mxCell id="31" value="" style="shape=stencil(lVjZUhtBDPwav6rmPp4J+Q+qMMEVgilDrr9Pb5xZr7TeJrw5RNrRSOpWa3bx5vXx7mW/C+717XT8uv95uH973MVPuxAOz4/70+ENv3bxdhdvHo6n/ZfT8fvz/fnfL3eT5fTr2/HH9IVfZ78sqU9Owf0+/8FJqH//8Pls/nR4Xpj7KtEr+yTebdvj+/8+N+yL9LJtH6MEp+y9k0wOSF5c0A5JuicOTUrWDl1633bI2TrgUjltOxQvVYcUvRRy6VKkNO3QxBOH6mzVUqJ3qFG8Dil7Woc6J3F2aJLZCUWcLlzhdYBD1g7Vi+cOKWmHKo6HFKJyaEESOwGV1iE1tDvPktN16Kg9aY0axOtK90wrXRCSxo93bmR6q129vnXvEjJx8DZNvYxDtxCUzSWiJOaAOulLtC6RORSJphBJCik1HLwuRMUJkYekQQ2IJJIlXLrq7it1YOp6Wp10fUJxvA5oJl2HHCm3ApGm0ikPIrneTGGQxIJnEklrWZ0AJqvkBCQx6hPAlYVBrg1mnB2ceJIlNELWIYHvGwkJvWkmVqVZ7ck2K9BAIA0Ar+xZ5wFcwRv7QDLU64DKwp5gp6Ok0dhnFk+/MqHZfbs0m08G/gVfzWAeGfvPAxqdntMFdAv1QQabCfLGvrCGQAGysW8snhUXQV8QopgayH6/svjT2j69AwBn7B2LJ0gzbC2J3TesG4LmJ1pSqRJ4/FXns1AOQn6M/IJw4Plv1j5wAHcbD7VvViS8E0+3irbwfuhWIiCf3L43Y984HrvFIwN8n9tx0W+cgD5m76yG8mA4EhBGRjIC3g9Jf30o9ZHA2QE1JyFBBwZ9AvYYR0i9dEvqsdM5WeYhN896jCUSEpYQM2agJhgsoSbMEgK90pjAqUO5LhRRZidgMJrGi1Sv5NWoRGU8mU1wMFBG7Zm8ni5ttK+n6yYklDdkmik6sdtlHRL6l+1F0FzJ3KFSvkYvJV0HrDmMULE9uvUixfDg7ITFqhbYBowJaTRIHnv91qWNus6cBJDWrgGUw9hKtgBklCnEcmchubFxLCAaWbdmOzenxwwGIDc4YqYZLqVSHNJ4dgh0pYh57OwzVVYq+EHtQTefx1rE3ndWW453lPnwvWrWfgrp9VvKeAXYMDetHSn+nX2DmLXMhrnNP03OSvjyNxeYF2OeaTDRlEocaU83RNPloa+S2P242cWcNX8YRbyYs7wHi15HKQ6Ty36dPYEk22KOZuaDT6DvmuPH5bX14fD0dH6sXf6/fZ3Fn84vu/H2Dw==);lineShape=1;" parent="1" vertex="1">
                    <mxGeometry x="78.31486697042811" y="191.55427747080813" width="2.6498390257180406" height="5.137365459041057" as="geometry"/>
                </mxCell>
                <mxCell id="32" value="" style="shape=stencil(lVjZUhtBDPwav6rmPp5J8h9UYYIrBFOGXH+f3jhjr7S77eLNGLVnpFG3jl28e3u6f93vgnt7Px2/7X8dHt6fdvHTLoTDy9P+dHjHp138vIt3j8fT/uvp+OPl4fz36/1kOX36fvw5/cLvMy5JjRMouD/nL5wU9++LL2fz58PLzLxLSMo8Sg/b5j5Jasq+i0vEvkmuyt5H8WUbgPPNhfATlQGaBO1wyBLbNiBGicblIJX4HHFCUYDkJNZtQApSggY08eRKqVgfch7PuA5A1DWgBGl9G5CddP1upUvNBBDE6YeruJKngKij1Jw04jQAXkepZUkkVbOXmDWgS2ZXcuKdTtYojjiNZ4o6rL2Mn1gHeOkmvZ0TRxARBNJh6lU8SSYkZ8nWiUooF70FtCaNMAiArL1uIARJJlzJxBW5UdgJ4HzX2VelM0AajLwAEFbG0SJJA5BegalAk6SdTkk6SSZwvhnZgC4wFYgjJjOdYVGaVEBzFNrGcgnpWnVYof6eEQKpYbTSUadzkqxPgBoHknwZN9ZO+zyUZxUA3fp/4wsgSSAvXfLInAsgUD5A6LrxwY9kWQXUBUU99J5EqXbrdB9Vcr3mJptKhSrlJELN2pP7QFGS9riKY/bN1iv8AIlo7zZAbRSLLftuBEYaqW6TvY1n4fa2yXC0ksDhqgOKlHCEmohoWeRQZlcq4wIzQGUxygvieJrWqAJtcUJiJ4RR8GdRYiIMgAsWwDS148am3kpmz+BHGl/zopC6gwuZzg1VhJTzvugl6+ggtniZ9H0KD1C2vfZNXpo3LlR9+6XAXO/PKg54ECyPG+dxMx3YINJ6M3/tba4PHFmA+krKse4fANcsgPUuCJEFeE59PFG2ANb9fxjQ/HBxVtGYuFQMJEZc8mhONkugqZl1MG+9KvcxA87qPjshFyn6hMB7lxwt9acpjM0X0B7NTSRfZ+1Us8mNrpJV2ZQlm/4LZYc3bFGfgJ+gc563w3C+0eEt+IO2lkUpLgpVQRjYeNFsOzWNbfwEQyA0/2xhAEDXPrTLBL41DZtuBDrLZD4tZBjC7xkgjzIwGwwZ41IdS4vZ6El9qLZDwnDLSg8A2bxDoT0Ymv+kfagotgyQ7NRWIm1JkK1V8wEsZ+PzlEtm73GR560xz9TziSHkhHAZTGecZnIfljJTaGuIcaXoEgrlY+O2j7ZXhXqzYdi7lS6J1Yc0ROjyDHRAclbFwvhiw9xuw+i85iwRPJXIhX75we0Nczvb0fHUjb3ddXXJNn9uNNRX80TMvW2mHKW8t2Xf0Rkn2FJwYw1kd1831hvLpa4nr5qWrkamDB9bGd80x4frdvrx8Px8Xm7P/2+32fjqvAmPn/8C);lineShape=1;" parent="1" vertex="1">
                    <mxGeometry x="83.27126553714191" y="190.93642699811193" width="3.552942558977026" height="5.927946968397439" as="geometry"/>
                </mxCell>
                <mxCell id="33" value="" style="shape=stencil(lVfLkhoxDPyauapsyc/zZvMfW7VsoEJgiyWvv48mUxAs1TThNphuW5bUkjzJ08f25X0zcfg4n45fNz93r+ftJJ8m5t1huzntzvo1yfMkT2/H0+bL6fj98Lr8fn+ZkfPXt+OPeYdfCy+S8Ezi8HtZCBTC34XPC3y/O9zAK3UZ4JEKgMdMOQx4plrX8bpdbANeqESAbxTjgE/EvI6XTL0afCnr+JRIisH3vo7PTG30T4b2lEihG7yA/UujVgw+A//UQiEZPIpXY8rWHuSf1qjb/Suwpzeq3fhTEL7bfChUgf2Kz2M6R00ggQRjEF9DvkboYwSkUm1AAuGqqKuPmBJgzEeMlyjlsrJ6iVEFVf2AT0gjoamjMySEPBC6CgeZ1C55cyVkSpjAY6R7pARKRa82EE0oYkId3Vr1BJRM1YmhQnUqoYyRTgzl5k3SgpbxCebSsVB7yK16ANKDi1uijJzqEkML2J3MMwIN1HDmmdzWDpWwoo16RPMC9Sgv0KSRT4/UgMLEmGCqTNW6im9t6lgr9/xqCmUXEpR6rhKrQAtKvUcJvjdozWBEcM1HCQLc6rubEpCiffucCajfuv481z3QsPwAoATUHvyEoW4N4AQ/wigBecnPSEpAJvkhrBdY9/yUp3WKgUbdFKnJheLmhtQbza4QjKL1gAz0Fi5TxW2qgrKnJWhMvFZhdwuXKfCqf3xhvZ0Ze7RTAIf6EUOlAe2xFU8uWfV/9gjf8Q+PAdaIoL7m/BkZth0Xrwzd49JBGz/IhgffRHfh+vHv+fW22++X19vt//a5pkvLU0+e/wA=);lineShape=1;" parent="1" vertex="1">
                    <mxGeometry x="90.70680503089474" y="193.91192943423476" width="6.887304785227448" height="0.18259182562487497" as="geometry"/>
                </mxCell>
                <mxCell id="34" value="" style="shape=stencil(rVjLbttADPwaX4nd5T7PafofAeI0RtM4cNLX33dcQ7JI2WMU6E2WOeKSHA4pbfTu/fnhbbtJ4f3jsP+6/bl7/Hje6KdNSrvX5+1h94Grjd5v9O5pf9h+Oey/vz6efr89HC2PV9/2P45P+HXCZcn1CErh9+lGkKp/b3w+mb/sXhfmMUobxr5Kb8S+SY3GPgZp+ToAB0rWQSwSynWAJgnOw5AWrgNykKEGcE7CRUDBia2HNKTE64AafJKUe2g4UreALoNkqQfRZABZJZA69CYjWAAv3FDp2QCQhkSYMZo0G0NRiYNQIwQJ9kwFZ+rExRBtlnyRcmOUFVtBJlKIgbwWC+g0TV09N1qSRo7UqlQbNO4wutbhGwLFb4kAkiQbQ8+UTKX4yvU+8fFyBw3fcmBLJB7QcskGjVJmEoPi7+gBnQG6FOthQa/LiCalehcsTTrXaQFgWgmAT9OQyABFiq3c6JIJ+wBQW7ljF97w4I5UaakBcGIJgBLtQ9DF0nXM9LpWh5w9ILM6dNHqAcomBDqorzwQZQJdY/CATmQjzx25yFImdcjQLZelJpHwG4BYPYAJ03rKgUuVFA6A7GJA3lgdwP7hAY1RA1K66ofB6D2HuAQwLtXpecsjkcIBkFZBK9OZIrX5tDL5BiA7LrVbHZfVA9jgBaA5aqAHWQzVD7kxd/n/AWQcyWapj+nO5RGU/BraoVRsZs370QyIVCox+B01WqXka1ioLDWOk50E3cZq2cBQYrsDjmQ91Dy11LXtxGkr9h+WpZG9VCJvbFDDQ7fkwxLH0ooYsqUG1sTAstQnnVssoqzjkERH74wFh8gMQnRbInSksnWme21VXmkImVvJUqPKh/cFJ/cpyWAAyL17qYFPImQRr0026KgTuy4XbtrN55aehO2i+WrAqRSSodUarXTxWc3bdOMwwZtHbm4PE288PXlz9hqDnrTLRaATJ07dcTbPhAhxUpCzeSRPnxNxNg+EBEl68OZslvmlfK7bFfPhM8Ma/R+/RNw0x8X5o8fT7uXl9M1k+b//SIJbpw8sev8H);lineShape=1;" parent="1" vertex="1">
                    <mxGeometry x="96.0310777275032" y="192.05256239707376" width="3.5774375687355793" height="4.442748632927711" as="geometry"/>
                </mxCell>
                <mxCell id="35" value="" style="shape=stencil(7Vrbchs3DP0avXJIgjc8p+l/ZCZOralrZxynl7/vYTVcLcHVkfPYmbzZEkCBAA5wgN2TfPj2+Onrwyn6b2+vL78//HX+/PZ4kl9OMZ6fHx9ez2/46yQfT/Lhy8vrw2+vL9+fP1/+//qpS/a//nj5s5/w90WvutS6UvT/XD4ILst/H/x6EX86P8/icRJX5z0TF3N6cTVR+TzJx+gSl5/NgT2Rmi9hkpcy7n9DPsznp+QCuW9xbbY/w52ZyecyyzeXlMn72Z8lj08O5bPL832rd0rsx2kyy+OEeFs+ueJn+eZqZfIhTfLNu0jsTyO7dvKFyIurs/9bcJ74X1zyVl7KbfnotFn5TOIVXV7Or8Sfcbkv5Ik94eD8QuyBN9JiP7EH3hYrH4k93uIR8VKCRz/QtJNnePEH+RDo+X62p6qrgcmnOsuLE3I+vD2fX5rz5HxxfsZ7CaNCvg9fOblIzi8je7d6VZwS+eZEZ3lP7Q9+pMtWQIUW9BCXCt1cZgri2hyCXjRISoRsa+g1iscKS9PAJ4kFWa1JIVFU9jIxwwxuYLBE3MKMsxBG5zlWUFfmwq5OiTyiZBqxjkw8ll981Hiebm3uKu9ZHygWmG1U4uO+5EcZv9rP6nSW0Yb2DiVZlOv4elPAESRkGQ6foYMsiqx1AwkmscNgC8cKyHuT2IUGuSzdXpB2BGul2KhJc42EuSxsMeVRoY4Vmguzl3LkhKi5YhiU8l9Q2xL6rViJVMtBanSVXVrtHTrJIckHhTjHoW2hvKVgAtfgBqIAFpfmO2jkPFyWepFHOh4rqAUQFBoxCVeMbVEgJqkfFWJvEslW3ar0ppAouVMkX1gUCIB0i+tOIRAvqQ52sFNg8wQUDEGFgrJLo8wsXrrzC4aiaqGlXtdIF4o4VUsyEBn6C20kwk5BSKnsgctWgVWNnhp1UWCRxqAmi0lcwUyO+ESZSXl8vVNIzEt58VKms1pXWAFEeAwMsG5NHKJlqRqJ0gA4MS4KgRRjKLRmFRgBRWrk5Q5sIke2hgXTjDpAoSyYZjOtbtRrFwfGBIJfxphrLG/9RDOXKJSy6tJRlHMHXdpoBwTza7N05h7kflhhGT57LImX0ILM9qiHhrVRdcmQvmtojjXS6Mu7nyhs4eQXhUY3VH2ANK2d91HQHTODggsUThN1NglsgxKgbEHa+cwdBUOxGiXTUDBtEZyMcuNsy0B3A1cwmwbwSmpSGnvQHXNlBKiIjXQfclik4zJLK112lmCrK8Y6xgVwxTzHAWMWWx9gCjL7hr5RI7mUswU1hmW28MFgFg3k0DPIpTH5tfnSGPgjMQkTiQW1UExjdjV46NM6Wxo2y/oCTw1ZqgZMSmxNFOyaPfC2GAEgsV5ivLJvAo1bt7no1hLEjE04grXF6zi8KfBd9cEiR/nyTWxqSKIPL0IYdW637qqsydnCl+pYuN5Yp5kZKKcRlxvrOp2jBoizLr2UydIoL072fMyBbL5PA1mbfB1g+rnOP/1c5///1vl12dywZgPvzflQ0WsI3qPFe+X5HC0vAstg63mxQ2dudHCWkb2bfKCrcLFTcEojo96H3zuPT8Xi687jWbGd+M7jX7H17c7jZdx39g9/er24hz8bF9stAt36JQvejencqs1qxNmaM9mpwFOkZ0sHADW2/barOD42LZsKLl7G5Pk+Y8qoke+7arVFhDsSNMbazsK0vCDBk+DHX7/g4vjj+qbHl/PT0+VFkf339s0QfHR5q0Q+/gs=);lineShape=1;" parent="1" vertex="1">
                    <mxGeometry x="103.64505854810196" y="191.5590461368255" width="5.00156700688221" height="5.916482529107505" as="geometry"/>
                </mxCell>
                <mxCell id="36" value="" style="shape=stencil(lVnLchQ5EPyauSoklZ5nFv6DCMx6AmMTxrDL35O9Exq3UtPp5WbPdI7qkZVVpT7Zu+/3H7/dnaL//vL89OXun/Onl/uT/XWK8fx4f/d8fsFfJ3t/snefn57v/n5++vH46fL/t4/bk9tfX59+br/w7wUXq4t9Q0X/6/JJ6M63/z75cAE8nB93AEvO5wkQgwt2DEjRRWNAKgJQXK8zwLsuTMrBlcQ+SEBxocyA5oo/BhTvjE6AkQpQnA8zILqWBKC6PgOQBvU80jAHqQwTb7tcR8xfn1dpztHlRM/3KJNWZvuby4pG3TU/B0gn2czFNgOSjBAMrpSz6moWgDB+b0fU2o8B4ECcfd6CKlgBDuTZB/Muiqh2Diqqr4jSQZJnDxDmIJ4vTOtkMkRlVPr1+SZLuYxfG89nG2JwYH+n59vI+lF8qAjw+8KeEFybDyhNGgSO5ZmmNWpOVE5xrc6LEzbWzT4076oCJFfnE1pyQZAIlVjn0m/VBVE5KDUSr4ZAC5OssgD3MIw86gmU6G4uKXlpQ32ugCQVO2emRs/OgqAq9NkYkIQP1bvSGaDCWjvLBXzIwmmkqSeOkpSL4nLhPFgVAAiGZ4AsOJTLkml5QhuqvgMUITG9Lz7EUSFHAO6cUVIjeD9UehfXoLxGswoMUDoJgBH70gjcUZjqym+VanDDGNBEjQLg2wIQWgkyxcWHKuIK+ucFILmRnS8cVjVVbQZ0BpjKQ+IpA9yob5jUGCBLDk6TSWHI7VFYbSm5pKhRh7rva1S0oI0aqwooHxq3aQCyMgn0XpxW0+FWQJHDqvT+Vo2iZyiv+6DOjhtZJaLzhAu2eHVCW5oW9Fu0lE0sPQNUW/xjQFtbit5L0IOYG5jT1UQWFpO6SwKAPlpot3rN5e1WfZWV3RHKiW1BbAxQY26CAUS/OpaDowmo0AlZDt7btkMnoKUIH6ItyuTlFIeVtsyAhulasC/kZU60t7aTMJOpNteEWDauuJqGth1tD7RSdikCxl0XS6/S4sDcxvbQRdL8GGp320kWArBIEqZSNVIulwbYrtTGGngGwFyt7gwSF7/FMTAebFe0yyCDQXRPbEvU0JESJRZYiMuskKFJ0Y5YiAlwXbhuAzrLUdAbtBUmdZEzN1JklASXhAfZDzW8GjQsPLyHme3R4oiFthV+XtiDkoqR7DG1xdig8Ku/anypma8kipyE61L0SJiatesysgUbIbsNiAslir6UaGOy3l0XqpxBdihGCKq63Mqd76reKBwIT6OrpyzbR6qjrnZXT6oOUuRrBgCKIBIKh8ajrXJEHiwsUcpyX4B+0RQZTeodvqYWuIVVASIv0AAE4QMAiS63o2wJ+JpukvGJqufta6KGLtAYuaChAKpCN4sLA4Ly4Tqp7OpBUWOdXbYCUoB0o+K8YCuYk+n6HKOIOqGMSWLfeVSm//S9x/8A4I/X1yyfzw8Pl7c0++/5tQw+urzSsfe/AQ==);lineShape=1;" parent="1" vertex="1">
                    <mxGeometry x="109.69407550829399" y="192.2658400616441" width="3.5708227627302094" height="5.209756255985422" as="geometry"/>
                </mxCell>
                <mxCell id="37" value="" style="shape=stencil(lVjZctswDPwav2JIggf4nKb/kZk4taeunXGcHn9fqBqqIiRt4jdHwYo4FsBSO354Ozy97nfBvd2ul+/7X8fn22HHX3YhHM+H/fV40187ftzxw8vluv92vbyfn8e/X58Gy+HXj8vP4Q2/R1wk5gEU3J/xQSAX/j34OpqfjueZuU+UcmfvSGTbXt+fg7H3wJ6Fihh757btY6HU++/J8bZ9ysSus2di4E+OlHr7Qi5u2xdNX+n9CeQLAAhlAxBKwCPRjJqKZfIJACql2IccWxFXAZUp9zFHpgiCrplqD0iBGAEq+R6QPXkPaOcmGkyISgEFUan2UZdMERyhgNCfIIEyAhQbtRQqgHs1kfQu1Ykt64BAtS+1vqIAgJba9d1ZpTm5RddY7AkQwCTOAkIFAB0YvgdEEgQorUwzQAH8LpU43HOC+DbiPhmDEoHTIkuAGsLkTR0yZXSCTiEDmAbblkuG3lppBv2gQVuAkgW55ChmC8ho9C0m2dCDwCVtyNK7NGvzdURsy2Z2BGoIpWtYACBddVoHm1c0BYpf8Lu0FvksQMcn4re6xBaABr4GzeaE1Np8K6110XIVZSm3rM97FG+54ixAgM4Y2FdtDB41hG9cmwFgy4WW9VlaI3JprUcDWrzcyjTjkgfUGOYMW4CgeX8vYNiB1cYAZyVb8aCFQ5tactuBE8C3pbS1s0wMukY9cEnft1zUEaRV16jv6f2RFNC13BdOxUYElR5CXOiZhLgkVharYqqo0qnJ2kmTRUw+Z0/ghMd3apJt0pWFMpLGYhtItXoBac3BxqC3CaSNU2oSbwJ4fBuodlQKpBKL1aEJbl1V2kYIJFgElfLGn9Tm4HqGqPY1y/Bypc4WY44WiRLG27eD7C8UhkoYFCsJG3MGoTorbVUcg7c7u9JSe7BhbvoxQmWu5t6Yo13j7CKYhuRGZpy9cjp017EkCK3M6xy2sypQAL7fed//0Fx//P+08HI8ncYvE/P/208R+mj8jMGPfwE=);lineShape=1;" parent="1" vertex="1">
                    <mxGeometry x="114.83081508145361" y="192.17492526035875" width="2.158202978531648" height="4.895384738688188" as="geometry"/>
                </mxCell>
                <mxCell id="38" value="" style="shape=stencil(lVjbchoxDP0aXjXyVfZzmv5HZkIKUwoZQm9/X20ZL2t5OUzelkXHKx3dvQlPH7uX9+3G88flfPq+/b1/vew24cvG+/1xtz3vL/q0Cc+b8PR2Om+/nU8/j6/X3+8vk+T09OP0azrhzxVXiPME8vz3+sKRlP8vvl7FD/vjQlwouU48EwPxTKH2pzuKQD5RKb18opiQvIudvGdK/r58pNRbO2mYkTz3+gdPAs4PVKSXr+QFydfUyUflE9gbSfrzk28W3eHf93ym2hhblS/NO7N7E2V3X17dGXoDxEGFnHog9AAhBhq5Qp47QHFUAaXeN8ZngLIAfKYkpd6GUkmA0cE1HzVA9RQZABJJH3Y1kq/AzUy1Z6mqH1Bc53beDMjwCxo3PlhABjakQoUtIIIv5EzOWwADx4kmj7NGRxBLt0BY0CrhPqAysbEhkIDgq9ICYelpkJ+1UPADADhOAZUtICGVKsVBpQIcpwAp1mgHaFVAHQAJeHoFEGEVm1SqFoDawmS0t4CCWFJaDUBbBWJJHRctwKNYkhZqSwCoGgpwYgGo8mm6CFujBdE6dFsFoO421QhTyLQhIRv0C84CUIoqIIkFPDDaxpKHxVhpTWPGoWgt5Macxim6UgRwPlhafXPlPUAeWULBV4f+oH5AXZTXSl/BRpShuAZcmNLQ5GA1ri0jlwmBAKVVxmXK4aT+JIApG8AcwOstyLfwnwHSjlhvctFOJ6okyiBto8mwpLyhzl6G2JjL7TrAtZyfh+5btKxPG9qXxX4CWa1TcIzWahQbIQwZIW1RWR/iykBThHXDz51/Bjg86lYKPa9F2sCyDpjL+wwIFACtOkybUVe0VgGWxDY5wYUpWnkNLqSQp9xbrNsDmkKHuVinzAL05zaHLLcfoP9Qw6btCniA7QSq21sCYwbbZNbVwIHsZyq9vfoG6ePs+Q5PADqj9wGkEYLkg+1sCe8xzTm31R/1wWFXdQ9WVdc3coY9MNo2zm3OvRfK0YjDomjnR4a6J5souB7qIhSsOHBTHk938MolWFMDMFX7j+U9w9OrDQIGQbByXYSU+eTt0kNxfbhdZL3tD4frPdjyf3vxpa+ul2bh+R8=);lineShape=1;" parent="1" vertex="1">
                    <mxGeometry x="117.65826834328533" y="191.80188129303895" width="4.4894488327376925" height="5.973399029045257" as="geometry"/>
                </mxCell>
                <mxCell id="39" value="" style="shape=stencil(lVjLctswDPwaXzEgAb7OafofmYlTe+rGGcfp4+8L1ZVsgvJ2enMUrAiAu0tQG3l43z29bTeR38+n49ftj/3zebeRT5sY96+77Wl/tl8bedzIw8vxtP1yOn68Pl/+fnuaIqdf347fpzf8vOASSZtAkX9dHgTi+OfB50v4Yf96E56pSBeulOr98Eo1d+GNVO+HB6Zc+2yEUgMAIeYeYEsWAEhUe4B1IAYAaCSxA0ikwvcBUSiUvkU8r7kOKBT6Jmmbn6wCJFDsa0iFsgBAIg4dICfKoEtSSfuUisxrrgI0UEkdoPK85jpAqfVdqgl2SQvVnqiNSdJ9QAq+hiaUAflS8uRraWb7uhYsgb6Gluc2rAPSTOYFUCiClIq1NXoAAz0UY04aUgJtnUp0KZmiQdHT+6oHIE1bxiMgoZQq5SElWIOZSk9vqwqZmAG8LSVSAAjM3mcMgXxmWiL4jRCck/OZqdNAQdam5IooUHL277/0vwEEQCZLIIsHRMSNtLYCKloH9mWq4DwxgPNKA0C6ivd7AwREJqHiRG1VAVFbSjwAIi46uxqUKlrByDkqCG+cqgcoWqEMXqnzk3vk85KzqjC93ZllgIZFXXRoK6JGo9Y8oOCU2iDRgDWdBgDcB5tF1AMaSqlQGzQd8Mb9H8AOiOZsxqoCRdsRVHsTuDHD9VPOBKF+iQbIZNOLp2sjxkd7Kr5qQdNGHtqEFaQyuDFTA6ecLsPIMs9gv5flIL+ZmJDkRPw5ajMZnPrY15AzdGMb7pObKysxkFyMpO420CijYXqwDRscI9jpoF5y1gbEb7tBOFFHbN91nhQWeje4b2m+7yzxRne0bZSd70EHGEb7ZU5eDeche1IgzWGKCRTAdjGFfnvtIgNy53mGuoYn0Bn2xmJ8BXQOJNmFo0tS8IpnaClx5u1NOGik3YaGtyOx+7sLQyGq90OGJ5+Ob1fgbct99xpe0LVo5QMB2KZ/fk+wH9dvES/7w+HyKeP2//7bhT26fPeQx98=);lineShape=1;" parent="1" vertex="1">
                    <mxGeometry x="121.79693117125296" y="189.45147842624203" width="3.400977803885814" height="7.6071630878434044" as="geometry"/>
                </mxCell>
                <mxCell id="40" value="" style="shape=stencil(lVfLchpBDPyavapGo3meHec/XGUcqBBwYfL6+4hshiDBNvZtWbrRSGqph0ke3tZPr6sphrfjYf919XPzfFxP8mmKcbNbrw6boz5N8jjJw8v+sPpy2H/fPc+fX59OyNPTt/2P0y/8mnmRYj2RYvg9v6iZhP+++Tzjt5vdBZ4jcTKEIlQDIHQq3RBypiLLhNgo2wipUi3LBGnUoyUESuBIORDbI0mk3pYJhanZCFGrVJcJNRFbAhdikHQvVNgQAsZXysXjE8A3ShbPJBHgO0WbgFAGCSu+ZisL2GQOgUKwBwoUQdM0QrcRWKhjQrZd5kqCa/RPBOcua1GB8JTAdnh0nAIiVIrJE1qGspDgCQnlkMfXFzk0IO2efOO4kSDlpbEfzoSMk9ZZcBGYElgx1xHqOOM7U0iU+kdqxNRRTYs/TyBBv69dzg4fkFCvZKQtw/huhR2p4lkuVkR5bNh3TlqD2/HWLEcqSHS6LVwHyqjZ4jpyouvQpk77zuagTYZJ60J1hDtVvdrAdwhqrNES1LiQTRXdDZaQdDRBlTJ7oeZCDVRJfZLtxivY10Q7bW2hqvuDTmvVo43QeMS8LaZEwebQ6uj97Ry8l6tWEiiSUHLOHPB4qpSTD4CKysOVzvgGfUorJBZfoTWHMVpnfB77YwHvOtDjUO4CPrjp1/0BCno1/O18l1nAuwtkkzt4d3Npuh6BQQW/vWqDlsl+jmuB9fnojfk+Xh/+X89fNtvtfLu//N5f5/XV/FdAHv8A);lineShape=1;" parent="1" vertex="1">
                    <mxGeometry x="121.66831351894115" y="192.34122598636463" width="2.997227922204416" height="0.7679094230511949" as="geometry"/>
                </mxCell>
                <mxCell id="41" value="" style="shape=stencil(7Vrbblw3DPwavwq6i3pO0/8IEKc26saB497+vlS3klfDc2bhxwJ5s3c5qxs5HFK6Sx++P3z6dn8X/ffXl+df7/98/Pz6cJd+uovx8evD/cvjq/51lz7epQ9fnl/uf3l5/v3r58v/3z4Ny/HXb89/jF/464KL3vk4UNH/ffkkuSL/fvDzxf7p8euVfWiu5M0+uxSJfXWhbvbFBWafXfObfXW+E/vk4j6fNj84tg9O+mYvrjZi713e56OfJH8OECey20fnw7l9c3nfH12REHvdz7bbF9fIArLrYN+ckA3KzsN6u+tkvbr/YbOP0YVybh9dBfvsMnG46FLa7avr9Pfjvp+xO6n093f/SWtFZ/Pf55MqPa/kAsSLd5U4tJ7+Ho+5zAg9Oa+2zyf3uWOH9mWe/orHNeKJf4Z9PkVcIfb67T6funbgLMBgg6pSDIv44PoewS1Qj1ZK8fuUmnIKA1T0iaYxwEhLXN9HEGVR5nTBtX1XRb2IeXU2gO4aWYOeW9/juEfq1ylMWluAPEPpGJCdAKBM7jsGiMt76PfmPKMuc9IKYLGjoQJkrYBGyCvLPKYFUHYhiy66Sx0XnYlraHT1iOfAvLVUDDg96UAWXfSk94wjmabw0ueMl3sLpdTqXSk7ILpMOKYGl/ekU4uLbISIWVxZxrMR4iT1BQjOsxESxnTOPM8mFCJJiZVsazWZUyOESQsFRJBefh7lGQBzocxsdArYD05poRLnUwCE6JBTxPkUUABQb62hFgQ0EkAKECMAWAKqBRWtAjIhgeGbZoRESEABOZsRmC8VFA1jDcxbC3Lr2CUO6DClxgOoYlJUQGIjKEAQwMj4ACA8RKuJh8BZo86vryIuM/dWAISouMYOzgCy0gJz74ohqnIsMuerU+wsIsuzQjkDQFIc9MympBXGvktvZ38MECSy5mlSrKuEWgANKTal7gqMIHRbdQKQdiXQmFZJmCCLJppFW0LWkMVUxwClmYoAVqmq6MxmSpGcg+5J8LhoJkPFY8TpJ2zRErF40zFZ9TyUBSiBOp3lGLCKtQVI0x2PAX16zpXzFTKlHox7t5nqjwEJfUlTfSe7pAoP4qF66nzd8JKKukoCSFUqnEOJs4w6A0BSVCWbCJF1MbyUqC8pAPo8iRNZF1MYZ75LhjVSprzUF0dcleqMvbug8yXufL3P1sUVgG6rSsKGAMZ8CgC6HyMQkaiAZkZgdK+AHhAgfARIKHoOjJcOAZWddMfyOK2u1BkA5E/ShMIBNSIgs5juWCkq4MYagiCAtSmG8zUzJUYCcrRoHqJVzLa+N0QpzQiKdQWw5t4IUdNNY1XWWLSJBzqljjkuJU73HfsaI0S5L5VoRuBTagZQuC+JienGXKMbX8pTG5w01fxBMcrarO9HHBBNv0llIKYzrbN6N+pbbjk4HF1JPAe1yRIL0DhZVswQNXBANvKk0MZdjwbQub96cwMSaWEmDXsnqmWFOLiU6QhXMrGSqB5aG4RooLyhX/vdwfUn2LVS60auF5qpW8ODGx1XVkEUU3I0GqRtMd0CyOSqY0BEZhonwxa9WlxXa2B3P+o5IIB0l2gJLrPQW4A4k8wZIEAF0TmgYWGmG81iWotVuDDSbaDNx4quMYpyVlEXZA3V93RKpvQrxQXehzu4pGHnkLFAVrnO7gdsp+9WZyObtJipNq4ZD250Z1hX4Efz8T/Aj+bj/6D5aNfQ6b3r2FbQZIE+DFAA3jTnqaBOfcmU4DcCCAqCXCY9nwECyB/eVqsJ78uK8I5rdA2aLVz+1ID306Mzx2LaY0w3fuFf+mzTXSVFdm+pkhDSrkoueoWXMWX1TLWG7rqYm1EmsFQHN5hSp427bNTMleA/RoSZcK6GYOSqCScYANNwb836BRBa1SRvplSpFIgNQ67z10rj9QuMEKjoix5pQ0UfAwQxbeNC+T4UbDGpWGadihBRw6n2ZY8Rgjf1AG9iCV5pV6FXFg1TXOWnULCJoCHLrjkz+nbhxJrMkzRPC9eIhKHRxH4/4D2WxlIh9uZ6PTU6H3/QpWRvEExlr6mNaUOP6x2Pzgi5eHzyozvG9HOYqm7Ze/omMM76d3FXo52JhDpSYygQ+zx3Y9lH2p40PYARQfSJHygFofmmo/u06a9n4Qsd4sI7PXHyzXIfGr0hYfMpUu/RzQaNEGiRqocJD8ACFY/BtNA9f83VUVHwxGfd39NXSvo1XK14moqjx5sVT7uF+jW0zbj6iB7FRKDt/GjoP9DLqmiycKT3nmP+IMUpG0Yj6CL1T7WH7tSNB5weX4gmKmHf+0L6tr3+8fYc+8vj09PlNff19/h8Wz+6PP1OH/8B);lineShape=1;" parent="1" vertex="1">
                    <mxGeometry x="27.355718427352627" y="191.77020502395663" width="11.98558450621711" height="7.035414465780308" as="geometry"/>
                </mxCell>
                <mxCell id="42" value="" style="shape=stencil(rVjbbhpBDP0aXi17rp7nNP2PSCEFlUJESC9/X6/QUMbsHhKpEg8LzBnfzthndhUf3jZPr+tV4LfT8fB9/Wv7fNqs4pdVCNv9Zn3cnuxpFR9X8eHlcFx/Ox7e98/n769P08rp6cfh57TD7zNOKiWdUIH/nH+JNH2zz9fz+t12f72+UGvDemGKFQLUAQpVZKFSqAMgMCkDgBI7QKaMAI3y6FJkCAhCKY2ATLUAQCIeAYl7nucBlZhHQCYBFszjIiOgUQF1iInymKWcKCALSnV0KWsv5SwgBdKRSiVSjgBQqIQRYKXMy4DMxKOFGigBCzlQG+tQzSaykH2llfsWs4Bidc0joFIFdZhCHMnXhJosA9T+HgvXArSg2ZPPAALordrLdOWSgrTafu7ETTEAarRMQb1LGZCvVVIXQ6SELDRKzqVEBVgQZn/kzMsG8momogvi0qqWgijOJ+30WkoTj2SabKJCSO+MVwBF3FAKo4WrPMwjElX1JioCCNWbIJCF2vwIssQ10CyrBTH2vla6zSUAF19q1DfMJQ9IsB1b0P5Ux35G5gGRmrMQ+hmZB1SKLq3S++08N7i3lWsAOkLJD15zCbKv+nZsQQuow0SE5NMaMKC5oDMcKRM3b6ihyILepFVh4Ww/dhba/wXketPKtJNlfo5aTrKvA5pyJkZ0bPjaYOuLNzGoDV4g4qJQHgE1UQTkC9qpdgFchv2SxHLUKKbJADUmFekA0um4qFzHGHKB50FC770XgOApR8GJPqxOSlfal/UCZWj0AVgdMyqCr7KVUUAN2Os3E95IqXO/WnxQ2bPX6XeuDtwlwgfvJjcKAN992M/O0LXfPB387tJ700Lyg1+OukT0Y5l7E5hvKlSSWy6ACaZcmluORnjzMgQvF/HqDnsj0Xd1HKyY3GyfyKXRyikQXKrpijo2qztM+Owl++56e/h3o3/Z7nbnFwLX//s3APbT+e1BfPwL);lineShape=1;" parent="1" vertex="1">
                    <mxGeometry x="39.13765254518023" y="193.6269864985262" width="1.4807561839713235" height="3.987149142560293" as="geometry"/>
                </mxCell>
                <mxCell id="43" value="" style="shape=stencil(lVjLbhsxDPwaXwmJ1POctv8RIE5jNI0DJ339fSkYWptc7wS5OVmNtBSHw+Hu5O7t6f51v+Pw9n46/tj/OTy8P+3ky4758PK0Px3e9ddOvu7k7vF42n8/HX+9PJz/fr0fK8evn8ffY4e/Z1yiVAaIw7/zPwLF8z++nZc/H16ulsdEpZv1QpG313OmkMz6RjFtrxemGM36GKmDF5I+Hy+AQq1tA1L1AGbqcRuQM5VmAZ1q3gYU3U/sHRXqAQD6vJMJSIkY3FLVx9kAcqQkANBIggXgPLRIYoMuaV7DbYBQtUHXMKlyG5ApWSbVQowAhZKNoeGgFSBsAYUC4NJ4JRtDDxigt2S51PUlwS1VIXZsDXoE4kb17OudMqi4wT5Lpl5n8m/zu3sJ6EIN8DtXCtXea5+53KqgbFPdEgVcctFxo0IyjRPsLSn7OuB3Ll4FilAGqdZ6KVaYMiZTUfrbGk3LFrcB4vOQlF4ghqJCZ/ktCcagd+IKQtU4g2tVujYnfQJfSdOUnXw3mAetILZcilqEgN59CfHSUDI4oGdqjqwkIGQtFkc93R+ITNft/P4oYK1etvtrOVe4vlkaxTBF53aHvgjKVQtlFIK2M0uLyBSAiinANXUFNHxJwZ0gU8xvAwrV7gEVnZB98QwAiiFRrB6QgeqpKIYVAAlA55XW8+TKbUCcl3iVOMjt6AVAuVHQCTxtxYV8DR0gPtEduoZxqd7tFXSnS61f1icgkYMWvvgT2r/5UmhUcbGF6OJFcjcqJ/oEoMq5VZy4UY36dyzSrKPS6d7qKe0KAiyCeEVs5D5VInlVzTDNnwW06o2YtpEMiDHcp42BtXcib7gYuwWQseUu3uqJTkoghsqztBZAnuW6NQU4B5149usta+heKWnukcPIXmDUw0BLkjz5CjZu+th1w+HDQMWNqcIB6nQEWzG4saExrIeyorea+oQyHb0DUFkLIA91ZTFUmJFn0GnMsVUnDxRD7X4aaxFySQFOZvRaUbPSx9UBIhUUQ54z8EKNDBuuekn3Sjp4oJoeU7Fz3IJHpVX3SWX27C1P706QDjOdlcw2aGF4QhLf4FRmEDVUI4qT+w6HMa6zvq4MNPwiE+eEetVQ0Hyo7YOtahRo9qKfP3H1rAYAgS06+I4rcFwIvhnqdAzc/7orQIqumjlDgmrDcF3tg919E5xubGN5ty+jXhAsj15HA2w27EVRgwGhsi8U/JVD/AQSIGc++dHyw+X64/J99PHw/Hz+vHr93H9P1X+dv8XK1/8=);lineShape=1;" parent="1" vertex="1">
                    <mxGeometry x="40.90794323249716" y="193.04299142749568" width="2.9164263303213156" height="4.448523467283711" as="geometry"/>
                </mxCell>
                <mxCell id="44" value="" style="shape=stencil(7VnLchs3EPwaXqfwGjzOsvMfqrIcsaJILllO4r/3ICyARC+3Wbr5oBtFTS8xj57pwR7i3ffH+28Ph+C+v72+/PXw7/HL2+MhfjqEcHx+fHg9vtmnQ/x8iHdfX14f/nx9+fH85fT3t/tu2T/9/fJPf8J/J1wUXzoouJ+nL3yU5v//5o+T/dPx+cK+SNLVPouv+/Y+SEwLIDgJDKBS6wqIkgnAnufyCqjiGCBJXgExSv9zF9DGiSegiU/7AHteXX8hqaRCAHbiNQ3qpeo+IHnR9UhapBGnU0JAjhyQpbUV0CQ1AqiS/QIoaYThOqCJroDqxDOn2zjxBCRpJHEGqKsP1VLJfyGuiWtR3A2nVz60TEujh3V1ulUpLEoZw9ra4OweIDgEaCQAlbIBFOa0ig8IaCysVnwrwDtjrSOIuAmT/QSLa5SoGydYXMMg2AWA1nfA1tcTweIaRme8TDVzOohLCAjMaQPAkYoUVhtBgkdAJO0+WbMGQgTqQ5xRn5QzQpCwGiDHtW0UqYzUbjxvNqY6vNrrlWl1Wisn9eT8bN+F9xkdBJsDog6K7LWNuvZ7mzEsShqxloJ5Rdq3VuSoDdZEOGrjQNfEeTcm8XVAwyOZNiA+2zTIa3XbeCD0sWHgVg8C7UpVUQd4iYQLNgpABjhKBWNK9WDPWphxVxXs2WRoDeva0YSZfa5g39h5Zo8+x+fG82Hazva0Z1+gpsfk2rMHZchHbW+eQDJJ7DxGcg/2mdSn5Tfoe+yzKJ6f1X/TMcAu/CUDyuxhaAZRUs9mHyPY0/o0+zW/s0/u2W/4wuRdF0JoT+OTR9u/4AvPl+Lzb/AxbvjL4llRAFt/YOdpWA9OCucLiFM/Zu31xegsmc6AeuMHkJA0ARs9Hqjk6gFCwkRuD1oijp1kN8EO7DN7/nvtLT94fnYeEzJAsMQHjB/9Y+oOSSTBJY8d8TxQ2bJS/KjHqc2ozs9GSKgfm6ikILLHrdSWfaaDNI8CmxUUaEg1ICfNh8YEbENZE+cGtrcNwdQ27cXuH0zLwbJvUiry5QbmhulR1ij6brM2ClO8hS0SCQVsVSrNzAcYraba2ZVI2symPn1+wzWWhfVjjR2AjzX2Ckch1cpJrZvqC3SYdAbB3VTjK2BGjvYFhiUuYze2DUlZHhQbU1G6M1rxFbjBc+M+bG+zhomYE23f1qzhfk3bGErXAQkJ1DdhEtbo0Ic+AYgPIY/qnwBHJ4qpLtjr+iFJafShudZS4H3GxrKuytCUA7sCN8aD8g/jm+t5w1r1ld42u6EzL3QAWx3dKLPLlwSktB3S2fP55rBfeKXKZyuclV40u43uSVLoeUJCexZ/h9dFZs+K2m02hUjjsxGGfjJ7x75snp/J+QNKpJv2JW3OQ+zf+1Lqtr19OL8B+3p8ejq9QLv8P74xs69Ob9vi518=);lineShape=1;" parent="1" vertex="1">
                    <mxGeometry x="44.746458243869625" y="192.21261186041278" width="4.736182715254941" height="6.08504886822693" as="geometry"/>
                </mxCell>
                <mxCell id="46" value="" style="shape=stencil(lVfZbttADPwavRK75J7PafofAeLURl07cNzr70vVkGpyown6Jsszy2NIijvJw9v+6XU3cXi7Xs5fdz8Pz9f9JJ8m5sNpv7scrvo0yeMkDy/ny+7L5fz99Hz7/fo0I+enb+cf8wm/brxILc0kDr9vLwKF8PfF5xv8eDjdwRul4OA1bsNjpsQGH4l5G6/H9ebOT8Adrh4foftSKGaDF5K8jU+JejX4Av3JidjiY6Qi24QiPqGxUgUeVabQDYHVZgKETl1syEwNaNA0p1azJJSBhd4oWwtFZQRV0buPQdMQGyRkK1upMGgltGIImrdSQKGGte5XRqOGferWp5Y/8qlaC12LFVsQR8hUOxSi2m7QN61CArvqC7j/e6USrQkVE5moS4wrQXsQKKF/l+LTlFHUxbeQCtGQEIXE1qv2SEZBqwUrdRUsdVl6+K5e0ZzULMWhI6BLep6d20WLCTepOEKggiy0pYdXAhPjrk6OkHHQ3ZdrDUtUmy3nCJpoVEsDocnyAdicG66WOjGY33PQVumeSFBTa1pdeTcKyCUVzpbG7CQiVB+DEqDS7xKAcPqFyFZpnZUMgq7dT425HxAhLnNrIWRNNBgz2i5ukmXcovqljtalVKEFXQWcS4mpgu+o7hpu8qVAAtI6LjPS4CAbtyXRLAHCuI6pBai0H61qIIJ2GLZJxaMI4jvnM2joMeC6bAYbeFd3oioC/1eBVnyE7R98Eel+2EFdD0sGMwmooQGv22GGeOdPZDgrhngbnBRDOjMFUD2DWgynxFAMgTKE/9fN5UO4Pvy7JL0cjsfbHev+f3+p0le3C5k8/gE=);lineShape=1;" parent="1" vertex="1">
                    <mxGeometry x="55.27837385620927" y="192.42415450334732" width="4.9955887775438415" height="0.46505247174399716" as="geometry"/>
                </mxCell>
                <mxCell id="47" value="" style="shape=stencil(lVdJchsxDHzNXFEkwQU8O84/XGU5UkWRXLKy/T5gpmZsgpmWchtR3SQINBZO/PC2f3rdTcG9XS/nr7ufh+frfuJPUwiH0353OVz1a+LHiR9ezpfdl8v5++l5/v361JDt69v5R9vh18zzlHMjBfd7XnDk3N+FzzP8eDh9gFeKYuAxbMO9UE0GXwA+ZArF4GvcxnOi0O/vydVtfFR8Nvjgt/EpUfEWD/bPicTaw2kbX9Jy/Ds+AvcLU+7xgTKwpzryvT/VQBTeSNL7p0L/10LV+FNvJEAQbtXXwmCmVMARYq+cCzEDQrAaalaCIFdPqRd1rVQy9KqJshIEnaBhMG4VckAXUgeTImXgJSXYE9TRINNEbOQkUgJSaoTaEcqa3FsmmVwrql6gDSUU7iNdiZH63JJcKyETo3TQ6tCbpAnrkZY8FbEEmHCBYuwJAuOghNqfUDwJygcmDj0hkyAvMcXeS6JGIrXy4vWVUJbYbxFMTrcVdEKwbaRmqjgO0l+63pDG2gfWwuRudDYVk7FJSIBNTa6mCqQlpzYTwpzgbyWE8avkJZb3JrWDhamVjf4O2pFQw2qFyRAcZUBopc8kdSF/o2UNhIB7Fveh5ngrcKaSBVnSfKvrmktrG0UNYmzrQYsrMGmcGxoBVIFxMFFCBieMk48SCpDGOFoF7NZxdlMCKhvjcKhuhZG2VUPxCVxhmG0VX9G0OrgoLYH/J15zS+yFIyhKbpBRWCzcwJt6oSsM7NfM6cuFL5Tg/qa8eBUd3N/i8bQ62CPE/3NdbbVwd+NNXsJ3X7D8oqb7tLC2h/ukhpvNTbh+vL/YXg7H4/zg+/i/feHp0vw65Mc/);lineShape=1;" parent="1" vertex="1">
                    <mxGeometry x="56.51840853601908" y="195.27452289021596" width="5.464918212162599" height="0.704382432883307" as="geometry"/>
                </mxCell>
                <mxCell id="49" value="" style="group" parent="1" vertex="1" connectable="0">
                    <mxGeometry x="59.90680137248205" y="127.9985993703178" width="90.06402363691637" height="45.481524522635254" as="geometry"/>
                </mxCell>
                <mxCell id="6" value="" style="shape=stencil(nVjZctswDPwav2LAm3xO0//ITJzG0zTOOEmPvy9Uh7YBKUu5b7LMFYlrseAm3Lw+3r1sN55f3w7779tfu/u3x034svF+9/y4Peze5GkTbjfh5mF/2H477N+f74+/X+6mldPTj/3P6Qu/j7gcKLkJ5fnP8Y2jlv69+Hpc/7R7vlzvKTW1PlGpeH1W6xu5BtZH8vr7Tt6gA0XKegNXyAUIqHoHz8TIhEQcNSAQZwhwSQMyMbIhUWQNqNQ8BJioBUcVH8mEIYgbkJeSjXMoVPGRsrYh8ghQigYEyjgOH987ATJlbEOrGtAoFgCQMGm3Jt8j8xnARDol8hECoo5DKtQcAFTKeofMlIDRxVHRgZMSZ1BxJVHQbp1CCWwoUsEGUHuFLAJqpqaNLidWWAS0SEXnUpGaBl5qhYou0eoogVxq1SZfTd1vy4BGwezQulWLAMfCKtoIOWXCRjQdOTllQABPTue3nJJBydVALltAAgUhyWS4UgAoXZN8T6frhR8WEbFQ9HYLxEwh94ZzAYjgTMKlJjmm6INY+2iruuEEl34QzZEKpAHpB9XkxokYlo0ONl8bzteJS5MFBBAHIS4bh4SblvSDeA1AeCO7a44kFRbbNUa3GbsO3CqZY3MJB04AzgSuQqOFytIMUJHRcxtwepdZWxwUkPSDbCTWoEaTo5DsFogG4klRrSQakS9cLABRmchOn61fUTJJjXpjA6bj/wFUbfSgRQjPBF0Q0oQq2iFaFSdtLgO3ypHMDtJIUV902dpQRD2AZHJs5beIgYhYwOrKs+haTiVrsqQvKodZxxK9VEBFz7r0QJCx9ehA8XH3xkpJyV2hrtSs3LXaSlHMtvgHqpv7XLFS1su/+vyDuYFtvAaDCffxdOXk4/qotnK0cja+g9nN2bY5GA5d58GV06ezSmEw3oom1N8fzM+BmulPcD4PNrx4/PfUdHbi24VgW5nrwmq5k3UmOC9HMk24ynAJd5H0GRl+UN95fUCu91avMJxaxNWpmvWoDYcZOQ+ktcS2XHGeJNxzjb3CfCZ3sD+FidlmA4pX9p3JVqbDtXdZw/XycL44e9g9PR3v3S7/txdt8up4SRdu/wI=);lineShape=1;" parent="49" vertex="1">
                    <mxGeometry x="17.500635419692856" y="1.0160385317640248" width="0.5795371826943015" height="8.914162653692236" as="geometry"/>
                </mxCell>
                <mxCell id="12" value="" style="shape=stencil(rZrJblw3EEW/RluC87B2nP8wYDkW4liGbGf4+xQj8LlZ9d5pGMhO6uZtsljzLT6kN18/vvvy+BD9128vz78//vX0/tvHh/TLQ4xPnz8+vjx9k78e0tuH9ObD88vjby/P3z+/f/3/y7u5cv71x/Of8xf+fsV5l/sERf/P+sD7/z749XX5p6fPN8uDK35bHlxI18ujS/uvR5fr9fLkfNyWJ1fh15NrdVteXBjXy7MraVte3cjXy4tL+69312F5dXEXNXg3wvX65oJaf1zW6fruwn6cIOLDeYaLZV8vt9NAs96lpAEkQBBb2LUVqitw/yJgVzs05wsAsotRAxLYj5y4BQ0oJHQzWmuuRQD0ZTM3gE4e4Nfv3QDoWsVFqpFhgNDTrtWROvqwmKp2YgGQDN3lZACguCS2NDSgwrWm6KICjLXnOSC7sAsdD/s9B4gx73qQ0BXBNFJzVe0gh6Qdhku74iRARdBD9kuvByC7BjvkuMLhARAHAtPI9pbGCiPngOLqHjVSYICEMRWyE2aE3HXUEM14iHt5rLB7ANpKE+dxO2ihU0cHKhJ49yOJZiIEspJ0WhNABU2X7LLXgAIOVEzyEUAiQF3GfAPwYN6lLTUdtzRWOr0CjKEBBQJZ6a4ZQCTFDW3eAvCUcr2xJdE0CF2Dy83sADLUeAIIoIeadJExwwKYd806zAigEqDoLDqNj2RoyxAOQEBN164rAQk8lLLqWNZ/ADL6Q/OuKweqLoPHtbgquwPAimtpFZpHbRiWOZ4DsikmC4b7VnWxKgY/wDSa1Br7DmJdpIfWtQyiykhCGz20gB7XpTjZw30rK3ieA4I2PjlkgiP1qHOc/ATl6Z5XRjsA0gTALfWyHPIAFMxA3VTq8gnF1t5cLhpACaV3nUXlJxL4Q5ccVzWA/GFIjgsaQB43JMdlA4BQOUwguwfI6+sbQIFbGkVXxvOWwJZGNTtwBzearowFgEfqpuer2FKOsdqLG+NrJMPQHYrsQOWPALrRA1VkAhgKwI3rBOyxdXi81uAPjuBASKV7Z4v9mkT5hcxVAGqHtoiKy3tVQkg0ZkDdVf3jpi9VnTSAooB8rZqg+QnfkgpMIgPVPwJQWVFchDqOMXSsFK+lNHoCkDR6Z4f9SBLb7mhaR+OG8d5e6wzfFJiM4qaPQry3piGAzjs0cyRq5Kx5i49SsXHiQB5LgTMfPWrZyy2U9UlJdAegHKLeuyYVysS+C9u3CpZjICFow/HNPfxfCJMjBvdBNgsN7iFsnpM9qVC0mVQAmWQwuVoAVPfZamAwZWTrjQmAUtRWNIM5JlszTQARqKYquweQlKNkaNhezsrSAAqVolKpKietyDxILazjQEbOVervroSOfK3BVGVSPtAOfjF7N9GS0px0KaqnvtMSNNOPNi6B5teqrZFrAONrhhyUlpbYk2YcSNpyiq7NUEbS/KEMURNrZSBlNHtqBWhrBHDVtRfT8VaiW/pqYg5ARk1P5mH3h5KwepjcRtAAImkteyIA8mnLz0wyD8zbMkACICrbckwlMd1iWKwJIPrR8GQTAEeyTJwAKPFarm/qgehHwyaWiOW35StLxNRuGVEBROIrs64TS8A+aBqCoYyoa58H2H26+JUxrphp/1MsVjaFZW4Yl3LXxpeZDMmWHExrMHk5IVBcH3NMOWuhJw1MQkdX9mtNbdUG5wCvC9GUVxw5BcwDqCMlTLtzFrS7aIp3p037LaWANPCcZ6kd/GKdzgHG+OLAUeecySlAxzBjp37yCQUBO1ecADiSnVzGjh5nZ6MTAB5np68TQDNqM9+NHRO7nSALAEfOZkY99UCtnJmCR67I7Jx9Tv3AWu0kP/L0db4VCBqADe+iJW6NlYpKXRfHjpRUO1lP3UbVjynkE3pMcYwCjvUZOwEz75tPW/Dhi4ov810NnD8uAzi61oHEjx2vN1awZrznWxCQ15sHAmXNVC/W27cm1HR78xAkYyjyegQcEt6n11lQXIKGcF7PfgKTBoaM6Zhk/aoKjmYBo5zXZXbGCOR1QuZSza9nQ4esyM95XdhJfwie7hd392M5haqffK52d7n88eNl3IenT59eH9bdfq9f0slHr6/w0tt/AQ==);lineShape=1;" parent="49" vertex="1">
                    <mxGeometry x="22.290720839555092" y="4.069577716185904" width="19.173568183548916" height="1.1485904982213941" as="geometry"/>
                </mxCell>
                <mxCell id="13" value="" style="shape=stencil(lVjLUhtBDPwaX1Wa0TzPhPwHVZjgCsGUIa+/T29cYzxauyluyzJtjaSW1NqN3bw+3r1sN1Ff3w7779vfu/u3x4192cS4e37cHnZveNrY7cZuHvaH7bfD/ufz/fHvl7vl5PL0Y/9r+YU/R5xJbQso6t/jC5VY/r/4ejz+tHs+Ox5UepzOm5REzmfpYTqfxeL18zFI0el8Fe3kfJWepvNNql0/b0na7C88MuJwimLzhUIUDdcBWSWUGYAQNQKAC3kGZAnEQkFMnQ9FUr0OqCbJZkCVTLLWQII5qqFRC62sLHTJJA89iNUJAOIlQowO3vQZECQTQFAVnTMH7kV2pyZ5BphKJuTr5jMHenWS6tZF5+pJSumNuNpsIZloJgDUs7OAnyBOtzDYfAJ06kNtnhvZpJEKqii5OXO50TzUMCpyAEqUSuhaqm9ieMO6TEkSZvbBZiH8LurbRs3SlBZ1cRa6VBKlnCTNUUIqE2sbuPFMDZCFJQ55dU53lDnhEpjjwgrCBxLWhZvOAm8baK5pJl/vEklYU/BRAqCyK+kFCyxKhgu0FYAkzkDm6AGFhNXAzeQByq5Uxkg7CyujNwBpLqBeJbErFckOgDfcB9db0Z/p3K2D/WcA5WGtLkpJCnO6S8sewJwGNXr1gMzYGvzcBaBzevsCylLIZEcBefIVOhXTarIj0/aBBcfWJoFMIPhQigfQNhOkreqBhlVXUULFMS513/nOZv01Mnl+92H0Gl3Lqm0Ys4Deqz5MTDssJecsoER4jaYVNxoH+ERAOPIrfQ4AMmU3s+roPNcmSnQATGJWo30FUFpBGRNlbhu1UsGUUZFzBUEtBzao2yDnSWw02gUgXmwOK+QHm1nQ9047QH4wH5YLzBbgFcsD1E6f6wFqgulQaDh3pVTpzELUXR5AFpbpZeWYLRhvG5BHOudhKSkS1pb9gDCjFiCPnLyPnfqAceCXGoxuwtbW/USJic5d+OAGBPZvY4lD23KASOld45iyZ3sWyzTYqnOJBi6Yclntu5j1TPR1Lzawvhof1G6nwUbdWOdbL8iJWkBeXR4CZj0BLOuwi1IYu+BlgK30z+D7ZWaMhf7UM0aUL//8qtrodrIa0UZ1vfpdHbVPEqxjqzhRbmiOK8f9Xi+BEFT9zh0o23TIoffjbFlVv5BgUyQVr/5zmNJGHTwvla5H0UcGvpO9OXqR84GKkrg6zjTU574sfngcD+8fMR92T0/Hb6Dn//cfPfHq+MHUbv8B);lineShape=1;" parent="49" vertex="1">
                    <mxGeometry x="39.83172005373984" y="3.46310933126378" width="2.837052912705831" height="3.5621906922317144" as="geometry"/>
                </mxCell>
                <mxCell id="14" value="" style="shape=stencil(lVrZchw3DPwavbIIguez4/yHqyzHqjiWS1auvw8YFUfLxkzLfpN20TsgATSuudN33z9/+HZ/l+L356fH3+//fvj4/PlOf7lL6eHr5/unh2f7607f3+m7T49P9789Pf759ePL/98+TMn51x+Pf81f+OcFF4OUCUrx35cP7JMW///k1xf5Lw9fN/meN3npQeu1vIQ8dvkaRK/l03r6IZ9CH9fyGkrf5SWIXMvn0NImP4Lma3FTdj9uC61cix/fLvEaUrsWH6Hs4jkMIm5Ha7s2Gnon8jnE/fJTGOTuzTQF5dldyghJ9ssPORHbyjLlkjdvIue16wDjxpCJr9n1gz5xfXAuP0KPIB+J/ppCcvIkVtT0R3kh+msNVfG8xL7a0V52n+T3cwy6/77Q2M2CwZ7o/WR1ZEKjJeegu7yuCziXLyHv+mfKVbmhPjUMwiUm33f5Tv0t9xVON+RTCJtkIxsIGKX0Y4AKdFiWDa8ADfiw8Ts1QMUEkIjTGaC0HZD4rRpLwBMKd4u+WO0A9EWUV4C8k7rK8pQfNLSFKr3WtgL3ADQayrkG3c+gdtHslorLBWl571Xw9N2XZjixJ1g22FXKlbuGhTMAzOGZtyaMt2LJmAVoXJ5zAJQeWh1jlxKEUba5BgBaiOQMxsF9d+/SaZLSgkmnxkXL5wANGQB2b+wJgq5RrephedZcbeelmte9nQP6ymMHoIbIMnNdGh+ARlljpvI9RKtZhthhkgo8wYiHJXNZ3n+UamYHVu2YL+0qNeEA03i3Q0uLC88BbXn/AbAEx4rlggVeswzHKrDsDl1WgXsO0BDhDJU/QZAqW1vedQ6Iy0wHoIdGi+C0G7odKelUvuMJely3dlHCQ5LuEiqJzxI6yCdqNA1jZ8meabZKSDC9UMeuyC8mz1hYIgZzrzQxmBMNB+gs1KIDtKCMXxoW8gYYvHKGNrB3nqsE657O6cJSGTaCkdZuM9HsdhtCI8fSAKg0Eg2EWpZfHgDlAMfzI1NXNfqJexkzykpG54CCzjoqbXks1tUBGM9b8FZBQCWHtmjEQ1ca/xaOozoAIxhLZf4JTKWx8sYPAqbn/JRK5ggQcW8c2uza/ROI4UbDsn4CSMSNsUL+AAw6vbCvozgA4aXRnaUHZQ0D5I4ARvUG8GdQUsYYIDkAa4lPAJzIJmAggM6Qjh71ALTl8JfXGhFAfaljhhu8p7Q7SR7AnuAGYVMlZgfX5pqSkasEVcC0PcnSEl0affXHy0dABA06PrOvobSyT9i8YXqzA7BOev6ej1F+BoEBReQzLrsUqKLnI7g3leoOwR1c/TXxqE5OJeEqiYs5Ssf2hIKAN3hD3RMis5yxBJyh0RZu2mEgoPIn/CSg4Sh/EgMD+BzU+Rl8luvcv30e5TE6M3VyABKjsxZwAJZSZrXhiIbVZLO7aAhg8wOrmLwd2NjdajLoIKbDsyKuLI1vXYPVlckxWaPzg+rtUPkeprhDF8qVr0OYm9qYDdNLxlmUuWPmU0esmNIa7171KHitQg899wegEh9pJBei5vBsQzQXBgkBrCEQN3U0QGTMhyzTO93nVdfdcypWTA698wEIloi909Y1YjlmjCDkvL75LnTfKWhi4wO2w9HVpN5MM1hucyu0HumEtWBb3MaqYK+mK27akxgD44i48cHhwNF+M6Jg9o1Y3Rqb0QV1WoXjzcyNaTRXNvuVWlvNlgfids7Gl6xakGP4ejOZzMQI4uK+RUpFMtzA18zMxrERya4ejcrV/FZgBt3oLc3d336ttXJAwVGDJQlhKjWnUqZNQ3KLqJpop6TRnUFoltKEBXrlK2tLCTDBKbyA0YLzlbkAYUvlYz9yAPjKUTtulcvxUsY5YKC3Fln3ds5hEUnsdc15lWlxmdbWKvsc4OyQC51Czd3Y7nz2CV056qqVD4DwDWLG2tYumvX12ZVIWmmflCuuJ5TPGw0AdjCHpypVPPTkfwZwozeLcsZ8BsjwikKiPYYBYFb3muIvnwBvMDU655pnAEBZSfIKABnIMgZ9h6liNymyGtJL14Cdw6r7rnwPXnvi80wLH919NXO/EOyqMi2qjDHGLq+cVvuqqw8j8x1udV5Evc5YGFa4ac02r2geBgzC97EDE49QvrPMpgn1Yb/vuCXx/U1Cf+CbDHHzPH2rfoEIyLTolIydVKG0YjUezEgrLVLnDhOqVHo/HTcMfb34dd4uu+b3jZYIWhzhmaNgMApfYGZkRLteNnFWDC7hzX7CtZYM+vuuIDfvr4StBMlhfsKKX+f8ibZQggPLGS1UH6iHJpvQ34c0POVpi9mdPuz3I75VOPUn3h/xLbvE30SKuMB/4/4jvks17Uv1wfuRN/T38oydf/4V6Lfk7Y/X960/PXz58vK69u33+H62ffTybre+/w8=);lineShape=1;" parent="49" vertex="1">
                    <mxGeometry x="47.72069583262271" y="0.5475581798980897" width="9.141712003470397" height="6.969488248336994" as="geometry"/>
                </mxCell>
                <mxCell id="15" value="" style="shape=stencil(rVnZbhsxDPwavxK6j+e0/Y8AcRqjaRwk6fX3pWps4uXYIxvomw/OiqLI4Yi7iTevD7fP201wr28v+2/bX7u7t4dN/LQJYff0sH3ZvemnTfy8iTf3+5ft15f9j6e7w/fn22E5Pn3f/xxP+H3AOUlxgIL7c/jBRyn93y9fDvaPu6cj+yAure2TtHzePkloa/ss1Z23L+LN84tEf96+SXHWvhJ/vJdiNlzFNQLI4roFMI98F+csIJEVQpTx3xpQSIyC/o0AcmgxQFSr1EIARYq3gEZcSk5aBUAigCQdwtqIS6lJawAgYc1BEkSpkSjlDLlUpZNN5yYJNt1JahQv7jpAXDLnGBAIIC/neimgnjg4CuhLvV8IqF4qJB8FxFPnwABZ0nUr1BP1QAFtIZULAc1JAJpJJL2bl2zOIVMia0GaKdFIWaMlcQbgOSCLX2+6Syb104rlsSo5Evt3Hl3ss/RK7Js9ZqVmFtJ3dxf7JJkUW3cLxR3ZkzPu2guDsa/MHnhen08IrCeJ1v9IMqLnxd3FPlKS78XGJ1CO79pkirF3zJ8uaX2+bumM5+xN3Yelz52zr6ZktOr4At0s4KWTJjUAa/odjZGktHfONn9tQ5UlnS6xDmppPEv70iYXgDJBJGUzwrQ+Bk1c1poVkNd11rX3kl0rIBpAn23ar/eguRtZKYCmUrKJ7KhBLWhXScwlBayLR7s704UISJ6qBXRJxW7mB2eFJNfmGNY0KyBzblo//PkmMbz4qzKvLg5emNpD107qcw2I2kbJGZyoz8TVPFKAarLIg2RIRsWDm0RpTWPauBp3yfCkMvPEJUPER3H4XwhoDvpLZ90Buo8CKHtDe9NHBJYd0D/1EYW5BA1aAekqBaCAwEgDJMZYgQBQwwwAE2EgkjQMrMehClOAY7INZJ6GITHdhjrSUS5GpTp2xZQqaGF1kgJAbeuagalt0PO6ZiZhxRuDAlg/wTvJDAC3nhkA7lUzANzcJgC8G84AcPucAeB+OwPADXoGgDv6ALCxAUwBZgCYMyjAszkDTDIGgBQQzkoGgBAZTmPa+8jownnPAFw1UVIAo3ucWQ0AcQmnYkMYkyjh3E0BjDVwsjdIgIQVZ4cKYAoOp5MKoHMGSKVIeQzGq41LShjfKk8y3Q3j4Q/yP2kP4+fGx71OYrDPDyTtTtE298fEZ9AyYQtnyaI6ekF0VjCUsBTSOXtznUz0ooTyNtMrAPgTKyUK2G/o9PIJ8RwzBvp8HJux1wuQDz4tPeuyfJtcqeb2+uHj3cr97vHx8Grm+H/7LkZ/OrzHiZ//Ag==);lineShape=1;" parent="49" vertex="1">
                    <mxGeometry x="57.807584876478586" y="3.3556078956858073" width="15.230724148488635" height="0.1805613404891772" as="geometry"/>
                </mxCell>
                <mxCell id="16" value="" style="shape=stencil(rVhJbhtBDHyNrkTvy9lx/mHAcizEsQzZ2X6fmgg9EjkzJQTITZa71FyKRbJ38e79+eFtvwvu/eN0/Lr/eXj8eN7FT7sQDq/P+9PhA5928X4X756Op/2X0/H76+P577eH6eT06dvxx/QLv864IK5PoOB+n79w4urfLz6fj78cXq+OV4lVHffSwvZxHyV7dT5KJz/vm4SmzmdJbft8SOKSOl8lkN+PTpp2t0t05HyTWLS/XlLcBqQsPWhAlOS3ATlKMRHN4vM2oHiJWQOKFOJDaZKjBlSpheQYBugkIC2F+NBgks6yR1hJlFqRVC2gEx51N1wcAPCUhbUn8ZoYYGogTOrFJg6lwZz2DpVibKpSOrkCPmqb4g2bugRtU0y0fHoTr00CgSsDgDqaTClQbiCuTXMjFWkMEMVpbmTHU+3FG0AeGrVOpm41KXdaQW1O0wCUSEWvZWk6rKVIZfxO1ofqRhjWAUGSzkONI5XrADcMmAEwMpGirhaAn8gkrDUN5Z0BeSjPOsDbPKBqAxOmLlXf0AOlBqJulAyEz8Tpkm3Fda73APhiAY0Bkm1YV7qwjkA/cIsrCPtKsNoHQGJh8tKLDVMl7AMgG0DlXqMJmriiIAiZALA+ZA4ItrFDeTrzAbrlLCCwKGE00eIKqWKzDFKdvAUwFQCZQrUAJt/gt4vWh8ycLqOEr8JK+Y0uZ6JUJBD5ngDGJD5hAWDmGZAvsBotKyXH1BhhTdECCgMgiM0CaB6ibRATgM1kQVpemMTyEEaHuooSNQkFtKhpz0XAlmgVz9jq7agOaty4oRmT5sHxPwEWg2i7oXxlKOkMQIWwsDarSy2OVG41uW46O4Y01kbzIPMMSFKID7XZYRqzAxsFYEA340ylfRfjetXUAOE7EQHEJJkbHJ9/FonLhYa1LWQmo+sRarRmZ4fU6GKGWSTrPCToORtcwwjiDMASQoQM4m5uiIWGFeJezD4QR5WvA/KYza82jkoyDZOC5hL2adYUESW7Ns2j7FbivE4cNvxIbgD5nG672LMyyTTKxajG9ObAa9qaNN+5DnBWNTyfyLCzm/EeCzLTpbSYBKadnahGrJYaPo2i3XrYMInzgXIJaQoG4OiQ6KtE00XpSjPdrxM9vx2tZ8GuG3zbwJaoJYmXjhuj3eV4IvGHWJg9mpYN9hzdzQPlDxaEZo4zJVq+M1A6O7twe9oC3Wjyl+OeEM2N6r68F1aSJmcHVEcLxdk24OiA4Mewe/V4SWz3dkXgm9o/Po3ePI4Pl1fYp8PLy/kR9/r/9tUWX51ffOP9Hw==);lineShape=1;" parent="49" vertex="1">
                    <mxGeometry x="69.99341331694137" y="2.0448904384543596" width="4.060333345140331" height="3.570084987902568" as="geometry"/>
                </mxCell>
                <mxCell id="17" value="" style="shape=stencil(7VtJchw3EHwNrwjsy1mW/6EIURbDsqig5O33TphGT3dWd07o5oNuw2FlN1BrVgHzkN58/fjuy+ND9F+/vTz/+vjn0/tvHx/STw8xPn3++Pjy9A2fHtLbh/Tmw/PL4y8vz79/fv/695d3U3J++u35j/mEv15x3o06QdH/vb7w7d8vfn4V//T0eSeeXEgH8eBSuhavLh6fHl0o1+JjvfsmXuO1eIiuHx+P5Sn55kok+ZKv5fFvn0i+i+dj/en4/LwecK7M6rwn+SDkc3QjsbwwVh6uFZYf1/Kl2vVHL6wbXeH1JCXfXWR5pf8Gc3aS70q+uTQO8sWFei3fvessX8T6O8zfSb4Le/Xq8lH/Vdqrd1czyWchP7wrgeSrWM9A9HmWF/ocaYXfTb4FIV/Yn6sbQp/D+BsMqPYL/znmh74MciU/jvZFxlAJAoByTCgBJlc7aEshG6C4JFwOW64EgE6VDYqLR59AFhtKScm1oxHCkFllhJXUtqzrXRRq7UgrxzBAFcgqbpqrlNfj8txzAJR4DBxk3qYiJ7pGhUaHfhtc9+74doMrk5a6LH1t85yteKC0CrU2z86XwspP5+m0cTikJH2pJt500gmv+pVvN0CTFa1056nCdhnSpXAKS8Nl9Ya0VrzVBC/tUBDygQFDVcGwku4GwDfCNQCI3QAEzQHAW4DIS8WvPLoDyE375Qg7QBDOB0C1WtKAYgDK+QDIlQGqup0CJH3x7BrwpaHVWjoDql5Ss94q0gwAzFCHi9r5fGaA3HRcz9sBkto0ckQ0S9Ih2sweFM1DEsjGDqo+1MA8CYAillTBG82mu7ADUiWVLPiSskOzEefXIy7T/XFJiDiVW1FQmJxHqaW2JcYNkJYazotiYLqas8x8Pa+auQFAQBUTqMsRNkCTWQMMN9KmsSuxJFBcKiiIkKA4KLR+fAMipCpGFtnSJcsWeGRm0YgQFXGgcIHajLoapyuSGGnTqKtq041rXBlLDVcAykuIQUkSu2k1oube6OXpDdlVRaXH6gU3wBYhV4B+rNN1LL2dt//ec3/Sghv6FeO464ZNKHcdXCDQkyruMMzIAE1pUoDO6RtdqWrSp6mPWQBRK/0baj+6K6JWGgLuf3wDglD1ubOvPGoJ38gICkyNZ0ypzntwyGFXqqJAJ8QdoDeVNqD1fLTDDBHVBHkencH2QU0zTKsIgIqgFrlFmSEiYhTxQplsFyLniLLmd7tXqAhCWiF6MtekmGs727WiJ9lFA1DNZfE8FZhBKAwxa5oByLlbMabuchCSIw9apjOJPHOjzjuAyjPJjE7GVorPAZkT/px1CC0BQF3QjCAN8IMBWQHScrUdQDX5yczrkAWU850CFD1JpqMGQC4pc6VGJlNNPgDJANSgImWuowCoKToAxI0nQLmGGfPNJYk8A0AwalV8BgDilXNUeAdQGHBnD6zWKrkxAJxmmuyCppYyA9S0G3boiQFNvcF0QfdDNFUGVGW4bNJ9k7l1xoNZUrwToqZQD50EiPVNSystJT40mfRaHXFlZq5wb9XUzMxnIq7pJJDNG+6kymYiTk36vx/QTwJIuTcqUDF2UE0NahwR15mMhS/ls4hT0/vcTyIu3Rm2mIhTbdPkGiYemlhSaXyiM+m4mmwE7gfGNlK9ZGSVAYoaV3PIOgFqVI5Gr5glqcn3NjTYa0nN1scK+X3WEJsG+ea8VGVunS0PpZmi6X037p1XD3I1qKj0hiTp/Yim49BT45HZW9HlyDGCOTrqTb+hcp3uZeXCKwDNTnqUFG4yPOrAhzxSv5XAXUMt1drYW9Gy3xmFcI8f5ah8LsnMHVQim5s+qrU2SU5GNefAWcYDLF3MOCeqPWROlaWvuxFXLbunsVqT/QOcmZrRoonuDKDjHpBt5aniYPcuUR7WdtNaFj2ngPc3mrgOWUWRl8hwqEmqZPXAU4RcJSNDuJAdUCZV82qTcd4a5qtBNiWynBY3uBqV0/nAbGf1uWU1AEUS57iftBRkP123A7sdQFUge2QBgLKDPRSZb1AAcyx/D/DjGPI/nvnjGPJErf+3Y8hgThW77OOKuUkIgBq1FDN6TJpVTu5NS9Izger5gO02JTgHJHN5QV9TqdXcCYly3to8k/XkZUFB9qbJSewyt876cNTSvHSmCsowgCwjrkdmlfNepSq7mStQDJKcgN0PeoOX8yVQB0+3sLq+heW5QwlNn1vGRRQ2QJURZxlZKPqurBkyB31b89YibYAor9pMwDHigpfTH+yBmPGQ/fcw8TP0yVQ0HdAi+1dWo4OpLhNA75y59RWvefx91GiTOQ/0kCatGyM9l/err7jJq8nVvP961I+epTWTg6ucFM/7u3y/Ux3b1Wjvp6obcPb+sR682fvNd+TNAVlZ4/urES5NM8uaJZ7Kx8GHXUXeV47RPl+1F2E7H7nJq8t1iG9z/1vezrDXy+XtQL6akeWwwJxxJckoPO81SF/2rPog5wp+NX43cTUOMmU4SL5lLq2EdfH9SvwYVvqConm6ZryeR19eFlPP1drLGPd8juLlMNGQab/62QtxqqL6eNozvbon/l2/fbkrjg+3n9l8ePr06fVXOvv/889y8NXrT3rS238A);lineShape=1;" parent="49" vertex="1">
                    <mxGeometry x="80.66891917325455" width="9.39510446366182" height="6.524205587735533" as="geometry"/>
                </mxCell>
                <mxCell id="24" value="" style="shape=stencil(7ZzJrhzHEUW/5m0LlXPmWpb/Q4Aok7BMChTl4e8d6Yes7rpRddoCDK+0o57yVk4x3Biy39J3v3784ZcPb3H/9dvXL3/98I9PP377+Jb+9Bbjp88fP3z99M3+9Za+f0vf/fTl64e/fP3y2+cf3//7lx/myPmvv335+/zCP99x+7aPCYr7v97/MMaW0n/+8uf38T9/+vw0Pmz7fh7ft9hpfA3n8W0r7X58XF87xtetl/vxaQtRx+8wPrv9li3u9+PLFmT9eUswvm4xncenLdX78W3L9Tw+bgnW39fpHePDlsL9+LFV+f6+xQj3tW8tnwB9bAE2HMLWzjvubRuw4xC3KgC7YhK5tJWzzPWyVZK5vI7wAOSt0AxFpainLdMpla2fj7XbtRGgbuUsdz1sEe45tPW9A7BvgTbdl9wvQBtL1u8A7axqzT4BohTGVs660OziYAYzLlGWVLYGmzbAOJ9Sy1sF4TPz0s6n1Ozi4JTMvmRZkl0cAZIagBbwpg1QzxradrQAZpLCedN1bJk2nbd2XlLtWyabWpbKHwAzwrTposda6/rLNaAuo3gACuq0AYbsIW8jA8BWLEtK26A9dLXENW6DTqkvs3UAwhLHa4DZ1qEAUqC0L6NyAMz9wrGmsIXzksrgGcI6kwNgxpjcZ1wKeQDqMm3XgLQk5wCwTqesmy6m07Rpk9azAhXW6VTVehfTaZAlA8hNl4BOMbWtn8W77GvOa4C56fMM2S6OjnWoAuXOPMYk5yzeuW07bNoATZb0gimFdeoHoPAMxt3OOp0zircBxplrZFbRnJbfPwAm8GBmbAFJZthfAcZZ+OxmiM3YmdRdAbjpqsbYhGWnTZvplSW15TGuAW2LZ7tkAk+cPjvxNh3MNENXcmJaXkmW+vIGByCh1TB1yQKI6xiuefq+9OsAhMVk7wB6rPviyteAoJbPHEChGaLSUHMxGTZtdi6c78G8HlEHA8geZvwBptJMbz6LxuQG4FDMuIezAhn7iLTpok7RCBERLPM3u+zBAgSawYRZZghb5xnargBixgYYZ+GbTJbuoamfNq6MF2f3et60sfHMABG+cBCiO4Do9AxBSIHMCskMBbm3AcRlWdxFJNEAEj9YZDd4Brk4AwTaw8GODkBAVmkA4d4W/3aeQXzc4C24CTrL6lgbPKIHpGM2PgmPRkNs44VGF5bsocF6ZrEbyifToh1347toP3JuGy8ENyJzK0Op3kGpb/cb5PtEkkxE1ZujM596LK6Wlaw6xsMa4BITmc8/rwj+IQ8vPI4GGKxgUb9feb9h2f6H/KN87ovZPMZTvGNEZEguCVNJ2d3XwMSQkTVJF5hBCUSa7QKiAsgCGQcu5x2bjaMjzS7lESL6fOPUksEwQKMZwrqjZzvNAMnCTgARzl2vzQCUPjOA6M0E0EXvK4Xy3wP8pokZZcdQ56Yprh0XmybeYgDJ6NnFUY5kAoICMNvuUh5TNEAf5gxRAYX3oLwlIjOap5QUQCZsSqsjCRRaZFeTMADVDHJSJ2g6nUk0iqrowPzcjPDOK+pLZe+iqf18Cw2jL7OqEtRyEaYEzdtyasG8iHjNgkUV81JJWQh6kaLjEwbx5mWjemX0gnWRuAdLaMRamguKOOrq6gXD+sAtaxHjtVIAl+Ory7MHtNc1apUqrBzd9fi0nPBjPGWDa9HIIC7DdD3eZzgwq1PHhbyBPs4Uv8o/sdJmPlkKTsi6WlH5MQNRQGFa10rKNHJwY33XOuGMteDKetRUgoV/VDPrWVM6oWJo06tzBUfIeQ3oSwmfomoi130sK/UEoCWNoKnmuGOQPKLmdafmgGQM5wqmKtOSshL4GYHQDEVZwqxx0QxVKfmMucCHj+asXeKa89CS8KPGdQfQPWTMWE7AUEABfbgE4D0Md0p2M2AzhmM6BiDyZQBhnGaVSB8MIF4qFqxCjK5Ftkc7wx1A/E7klL8BsrtpssSPbpEnQKNNuwD7he+fgKqAzEtKbknk3QygieCMMZ4BukuiUjXIbjq4TeM9mCwFB6A9uL6QuQfwQFMfHIDio6lxzd0D7CHsu/YWRa4UDkf9pzCxnWnu5ih9YQC19wWZ7dRRl2BHlRtu0y+VWo1r4avuLuefkQr8foAr5k9hItlw/GemCWnThxl6AqD0Ze2GiRzZmmdXWYorR3/HHfQewgpdrwG7O9aAKmd0RjLyxk6oMaQ3bTIKh/xeA8py/E+UDAFZpXX2KdEegsthFPSKzWcY2Hy3piXewJXCll3CIGDFtjnSNzD31HzbE3KT2rXGVpCP1brE5iknT9FeVh6dVrh1F+1JWd5Uh8YHP57EtLrYJOJ5FteYE5e9uRsvNZS0vONddK5NAigPswCpOfnKNVSplheuWWTX9YNtdjPHfl5PXUWbu2yNNHY0zmkPtRKdE2yOsg2MtnNVw2jRMKUvZpOGmK2wmr1uc+Yuz4k9F650/0cK/H+UAncz/JEC//+nwB0VeVEnN2lVfQjYcnpRdNoxFTNz5r5wxo1X0gA3sM/ErIy0XHRuWWqutZjrckPLOw0NwKxcauUec85BQ7zC3RZRQ3OOXErSK2beVbL3suiVs1aOExr52VaqrKLRepqyosDtXF1ztju2HdVdvfIRrt6yoijjqaZjrMuvH+6rRnUgEVNmc7zWODDnHzSoSyj/Nl4K2RlZSHWt+wX118aXszxUpPk2XtrEuJNmjpcnHci6alD9HVyDCK7VKCwLdidww3kmygxUb9UThrDVBSqBs0aPdvUnAFLTcVFVoHRfcW9MAr88KK5x2iJSqoWW4YhXZ/reNfMVBvdA9ZW1eo7b2RQll0qgqHo29bueSWxrai6PFbFPxgCae0jcTltdNjujvZv23WXKsJ22OINXeYbskqKNy6jJlWk713Wj1jlftQNG1y7GT0Zm07F4WY5cjFaom01oNQwgp5QyUuzsWvZS4Y734arxBSl2di/TUsWL8xFnaihLRu5ERVN/1delxzrQtubqWhZ2rNjOhwTnY81cZM+OUM1GFQaIuc9cx5ths7j0zJuOenG2q0QXF90rloq5o3kmMkNj2r9ru5wJC80wwzX3dIf2YJIjxniqFEWQPt8XsPpvwixUw+wIcVtTF8nwmGnrIN7JCV/hlH9yZWpzAEQnp1FxL9OoicrMlijQw01eA1yatry4uKBlubpjonA+x5OQLTDgyNcfgBevTYd2vNeETMAAokA1Y7JtPkGRPRR+z9rUT9eKFxeblqlrQ5f1aFl/AlAoGau+k6kdY4HJLGSGgQ4lumdgjR8HRffkvAWsXc6+b0kXRGxIiK5A1RJS6UkJ3WNqfK4dlMK1ilXn6H4roPHLtOgqvK3zs/mhDTqN30bP+tXZZfUdn7JZtCAuqwdsATKAxEA94k1bACNZ0s7FTguRpNuuc+tJyPpooVfMTYTkfuShYfwwc6ICeHFxQVux+sCupJkelHB6x/yBe2gyuIu3q5EZEfMBvvGf81t1NTcc4zP3zLrxhbuQNbgfFcNWZ18GvyWMWmQbnZVf4+7ZPESKpunIMbAHOaj7HwPP06VXxsAqanDp44GMZ3e9hTsnAHfXk/sSoDf8akX+hGjH+8UJ0Yle/TQQdbW65NBsMuLv7zqegrar71OG+vf+tNHr8faPx+8o/fTp55/ff4bp+f/r7y7Zn95/syl9/28=);lineShape=1;" parent="49" vertex="1">
                    <mxGeometry x="5.947221440798188" y="12.580449019473775" width="14.389364345334673" height="23.520334246827826" as="geometry"/>
                </mxCell>
                <mxCell id="25" value="" style="shape=stencil(7VvJbhw3FPwaXQnuy9lx/sOA5ViIYxm2s/19ihHYatZT10C3BPBNmmFNk3xbvaXv0ptvH999ub+L/tv3r4+/3v/58P77x7v0012MD58/3n99+I6/7tLbu/Tmw+PX+1++Pv7++f3T/1/ezZXzr98e/5i/8NcTLnRX20RF//fTJ9l5/+8HPz+t//Tw+by+upxpfSlifXajbOuLS1Wsj26EbX1zvon13rW+rR+upuv1w4W6LccDu1jfXdx/PhTn8/X65jL9fnNJ3E91db+eMFwX68v6dq2P0ZWu1oe0r8f9i/uENOO+HjcwrtcnFm8KLgr5Jpf3+0zZBXHetL491lfXxX4gzf3+k9aHaNQ/uijuB+v9vj67JvYP6Yx9/ZD2YtaX6ILcD6/Hfl5z3tKWhl/d527u1S+NupLXrm8VvyD8CfRh308trkr9IfdQuytB6TPZYwsuvMZeWloWemWP+/5bdUH4h7q08Viv7au7sNtj1/sf7E96dE358+DKvqF+iOTKocfIgKI8unFZACShQvCYpKM4w1BnGOuIJ0AQW4ph2cjpVr2yGqjd7rbacFm5ocq31JrUUwiaDKEh0ChD8CtuHYC4dOVlQGJVguko1UiIFATIrqsnNANAdFaAsWLF4Y2qvNYcFjk5uccozC1b/9udF/YDd+73a52fqC0VFwngXRaHznXt+AhRTQou4+v90IiZ8tDN9d1JIihXdQZDAqGORagGAPSE6aiUG+5u0BOaa0K9ESaDASi/BED2DFCRDYBaGRDULQ03onmCuKXiXzhDEpIGIA0GFCFpAEpnQNcA8nyT3wnBAWAlrQhVMX4JMUkx+LmlwQDlKgGoBjD0tVLQTXGF7StA3iUNX1j1tRJtmK5Na2snv5RcFDzDaiusXNr0YCY/XaUG0KFBDRWVASARdwtuaJsmE61VymGewbC3qgGkS6BjN9Q77urdvRQcAGP33v0GQQzMoPuNLUVOqTpcpdpSdonO0PWWCpNoAFTSAEWgJLvrKDqThMGHbgqQFtk5AMhjFI+uy/WeKJxSvgoDIkbWZeYM4h92wbXsqgLUldkdAL8k8zJgrBB4Sn4UXwKt7USwNG/tZdGpM8ES1wpVq4ZgqXyjmziNUB/FGYZn+gOCpTgfAJRigQUqJjACK1/qK65eAajIA4C6VgA4PjQpOADoWgHIKo0LhsJp6jAi81YAVEABgLh30nwJAC7dNH2tcZnLCVA0oBtmrOIDAIPO0CUjG3AzkQFFPSGtat8JoNzMBJCkESaFxU3BUUXpKIFeKh8ZUHVeSdqzm3mOelc2zTXbIot0AJAzRgCIyi91DuzwfEpbZ7zZtwR/PlTdpLHywXsrr9Ebc2/EBxWBJoCiKCxEnaExX4J7HvoJXKboMori67g/AcqShD1AcFQuHVmWWvB7VGoZVdbDYQ+DAEWb6KEIpy0p5RtGNWaIUU/oqwNxXOuQSdPoRg5DMoExVjJ8AiiCBUAuDBj6CS3zobPyGvi9xIAhGyueHdNzFLt8BAlCF2eGYeszAuhDUE4D9VJsfQqiM0AVK4cpbAxN7wEgbzyfoJUpmCcoXzka109xS6rlAADbqC6HDlNwhaSLIhuNI8okaSqyNw7UAKi2GG4pWoPQ10oMa5qcOkPnku40anWGI46f3Ya20Wodkzr08XsngMr8xhEDz/5eb4kO/cwbL7dklE/2V02aNZKsIrweUE2AaJqSIW0jixvaHiKr98kZXoVFjkG6jQvVobbL1Eehrr1zQwGnVuWc3piTIbJ69YS6AshJ1KpP020ZYdwCUB1u/oTiZOWFbpY8dDFNkS7DIg5N/WXQRFXIBqBQA/IQ5RWATK5m2XaB4KiMUIYsVEA1gukBq8QMADLqWcpTgGFSjqLtwXM5Bzm7KqD+yNkX4EfO/r/I2dN+S8jZZQ0rcL6biw6jBz06magirr0z6StJskTryEqXUbEnZuv1GLZ5GQDyQq6yyUO3xllQi1IOLTH/aVVuqSFJogjkZbGlGu/dj4mSq0I2l8qbVI3q13zMmVaq6n3nEbbp2sQTSlkk8pwPKEAy5CTIUkgJ7DWgv4rDFW9qJ00GRdtrghyUPdiW9rM6XgEooECXstDWOUhA/YEgywizLU+zUXUl5VeAtnu+2WBTTcLGndHZwlOHbkywZpNQhCwLyFq97Rly1E1Ck+6mLosCUw67pFORDWcAkmkHqwz8x7TD8YQf0w4W8N+bdqDAnnRLe+oSMbIkZ06nbyVGpoc2rdeATatSea4cgfKNCabCzBifqEpITizp5/mHlwGRJwUQJuWhPbOZ0mWpPHWTWkY5q52qGZ6tcjwimdnNdqjjy4DAYyo3uijRVGibDuzTqZgBDJVPx8zt4K77ZXNEmjhfliP/0a8awwGo0reGviYET2xGtV1CNf2BJs8wh27NAIbKFEPkmhcAyhkHM1nZdYwbPFjZdaJoylH9xkgVB+nZXZMvLpATgx6p9Wk9/VQpUo47Mi1pRfqLyEObLcr7CZypz4EVcf+eUx/YviLEnhUCmYrq5njWOCQqav+eWVjRxNB0l+aLC+I+sZ7cb5RtQc9Vg6zjrK1YNVni8mzCOd/4fXK9WedUJnpMGiz003OSh+ig6mHBvFiT5EhX4Npt1A34yPYeq2zgmDoSLFROpxsu6DVDYMIcmuylmzb0fPFLTbDxtBhcsHrRxwx1B6/LL2YaTXfczCj+et7L0vVr3vtQT9mwRrjg96xkYd4GMN1LRoQkc/R6PyZ797LZEcwAim7wYD2pp9f3OVi8XjMCIy8vvT/Wk7yC3v9g9x/kHGAw6WKQSUcYxj3IvsvcP5m79G5hcK6YNCUbpp+wcpYr+dJYb5KFxFe/NntzPf54fkf3w8OnT0+v+J6/53d68dHT+8Dp7T8=);lineShape=1;" parent="49" vertex="1">
                    <mxGeometry y="38.755002600411075" width="11.235024313781393" height="6.599691279735638" as="geometry"/>
                </mxCell>
                <mxCell id="26" value="" style="shape=stencil(lVnZUtxADPyafVXNpTmeSfIfVAFhKwQoINffp53NmJW87lTezCJ5ZqRWqzU+5KvX++vn20MKr28vT19ufxxv3u4P+cMhpePj/e3L8Q1Ph/zxkK/unl5uP788fXu8Of39fL1YLk9fn74vb/h58kvS8uKUwq/1h/Tnh08n84fj45l5jBKsfZHK7IeUYeybpLxvn1SqGvshOe7b5ywhGfuYJPR9hxKk2wUilizEoUur1mFQB63S7AqIURz7DrXMI64OWLPtO7Qo2SYBYVDm0PwKuc+8XHToSVKwac6SSFh7nVFfHbACSVzv0q2DZqnkDCOI2jzomJvccxg2Sgj031fsOThs1yGDRalLtltqKplUQ1e/pY5TkTMgD8OWD17BwtrGLMfVYUgjiWtInD3DyFIIvBvqy25pVMkkcRVAaNahi5IVkCZXQGNMsFx2CFJcTQfkksQVNVqq31NmRZ1nnlYHpJpgQ+PM0+qAqiWH0OATgZpitFGQ2GLRNyiY4DCcQ6IVhC01CyakphB849DDJgKBZgWBsGa7JdBGUuKgkuyWQOisQWgTddSXJqHvgSlafKc6e8xlh00LSiseLzuodNez0IIYvrsMCz604UrOgLxGxzO8pjc7Ukp8AFr2KoABCTTWvcroZD9glGhhgeJgvaFJrN6egALFvnl/4vaOhsOUKZftwcIWdFESiSfsXd2AZPn7R/Px/Md+bHwyVW2wd1yE/LL49ynq3u0bUXnIV1JnP1hnrpKKt2fv1xnuM5XK8FY8SZRZQJfts49/phUPe0fVidYv7F29ROnMvvj4RIksv8XrEMgQHk/HD2EW0F6+NvasHQMP2/ez/XffmMC4hECB5+LjGVg8oTeas2+kfs/kxnuClW+oW/tMNRTsN4CmhAiF5dqkVJ4A9e8fjBD/0x6qNdqCb7Sntu4BOibC9xpY8wpwip29DlkdIvgIhVFA3QqNYrTWOc6skIizK+zpiGFJF8KDsWKNU4ydj4FMz43J4mfiqTMR2/yhIc+YUlnk3kYAVrYCxhlbCJCYjBq1eOpdxA5fIW1kcuRncKPsgl7CjohSsStg5lKmSTH7utkgUf5Cpp2eW6YPLjGzPcNC+ewOAozqtpSpZFlGBzfVRcrxbdW4a5TaDMMuB9gt9UxVTo/+Lqtx1ujFD/ytUJ0MIDgdBVpgicMIVzd3EOyWAw5qsYSiHYRmFmzaPKBCmFaAFndUWVY1uSf2vfhSWkAIom5oRjn4nNzJygf+uNFfkQp4xKRshrrGZuXqM42Ozi7Act9Ihj6p7bJDlOyGOp1wvHw1uukPMVHRgA04eKMpsnoYvuB4gUafZj4nR39vpBSnwbdPpd0z+IsEneHdMY9e8LMq28i7MvXVnrlXX5HuPfrprFFzd7OUaS8I8y753ZzNlmshnY2WBJVxltHZZENKPfnrm0QH6f/8OvFPczy8fwi5Oz48nL6jnP/ffzjBT6ePLvnjbw==);lineShape=1;" parent="49" vertex="1">
                    <mxGeometry x="12.480351142868983" y="40.226326209960774" width="4.16907900165558" height="5.255198312674472" as="geometry"/>
                </mxCell>
                <mxCell id="27" value="" style="shape=stencil(lVnZbttADPwavxK7S+71nLb/ESBOYzSNgyS9/r4UjJVFSprAb4k9lJbXcLg+8N370/3r8ZDC+8fb+cfxz+nh4+nAXw4pnV6ejm+nD/3rwF8PfPd4fjt+fzv/enm4/P96PyGnv36ef09P+HuxS8R9Mkrh3+UDpnr54NsF/nx6WcA7FTFwoZz24TFTKAafies+PgXqweALdQH4SikbfCdp+3hm6tbdmKiXfQOJFKo1qCQBGNTxvGGgEY3A5Swk9kjqQwMGJVBoNmVleLVtIFSsD6JZA1EqjSTZrGmZ8L5BjZScQaeKDJhStHkuVMCRqkbJhlUfEUHi1MBlujbKIKw1U7Sl1JgCCOv0But0qxRBM6gBW6d7IIk4SjZxnUc/7eVBnAHut5KpO4M2Ar1drZ0yWwNcrTlTth0dgxYw6KCsTmT/ipphy+WVQQSZE+W44L2O6A2BojMokPe0I5sLk1AEqWYZtbaojQqYjxMle6RWBhduG8RRa7NBgNTHq2KaWgSkWo8UrQ9KJB1kWtk42zeUNJhn2yBTsU5P5YWO1HzLCWYB5ftifZg+AUwm2fOMHhKxgJa3G4nK96g0chkHWEwUQXyfPLnGNlK5x/fB9ShTA7WkxFQt9XXqCN9H4VzHegVs35Qp7fNn6tzGd9+fCfZzV6K2I1QpCTSb4jt7PDiP0kkpDo+GlfJV8udBCevzdL3iUaMp3tF8hH22he83nSfBCp38rQ7fQZNN8bQMr5PxpnwxMai3qR6qx6P6KUNlXvGw3rKXtQmr7DymyxXPKF865W29RdhfihdxeBjPTNXXMxpOGp9VPTPGd3F4JL00X2XVv6j+lf9W/Yvr003jgOtB16Lo44PxTjpGOLsXkmmRYOxAswHFAl7xTnMlajigzTcMbIB2Y4Pdip/r9zowGmgY1UquIMqo8G38Sgu1kcHtgVe8OouRGlomtGDczM5j1d5T7m4x/WTG5NXqnuZH7C2myTY9B8rgSNJ9UFUGI9pS7cS2jSXBxVRWClPfiYiFu1f6qqbQasCryaFqqiGVXEZeZwMs59TAadiK86BHcplW4Y6WOhW9fjWQQQd7UWo2061BvaWauLq1EQ8EKT5xusmi8s5piOjFJhsAA+TmL7KmIQcorPBqzZShMrYN6moJZMjaWgjN+tA6ZKU6B3Gx0yFdN9272AZqPA65Z8CrWxFEfHokR/Sq/TOYJOq0k2oatwSc1q9di5Yw1MnedZa7YcuM36BRcqyRx43Y3sblpue0R6JqjaPUZoMIBbys7kUnMgZh1QP4a5Q+eGRve3d50IGCNL8eIDlNkqAo1AOw6wfqgLyjUHDtMDpw56o5Wiau8GYqeg4r8F4qesVcBqVtwnW/cveVMPrB35IVKF+CVy8FrqNhfalewExbaccMp/Lq6QJ3++Bv4OWzyHihxhDuhLLAKRC9oGBqqCTHt1c4UtU3/lbyKVz/uP4s83h6fr78qrP83v+Mox9dfgLir/8B);lineShape=1;" parent="49" vertex="1">
                    <mxGeometry x="18.629292145754448" y="39.412897141680304" width="4.3682385834520225" height="5.9906610307403385" as="geometry"/>
                </mxCell>
                <mxCell id="50" value="" style="group" parent="1" vertex="1" connectable="0">
                    <mxGeometry x="61.11680137248205" y="209.9985993703178" width="90.06402363691637" height="45.481524522635254" as="geometry"/>
                </mxCell>
                <mxCell id="51" value="" style="shape=stencil(nVjZctswDPwav2LAm3xO0//ITJzG0zTOOEmPvy9Uh7YBKUu5b7LMFYlrseAm3Lw+3r1sN55f3w7779tfu/u3x034svF+9/y4Peze5GkTbjfh5mF/2H477N+f74+/X+6mldPTj/3P6Qu/j7gcKLkJ5fnP8Y2jlv69+Hpc/7R7vlzvKTW1PlGpeH1W6xu5BtZH8vr7Tt6gA0XKegNXyAUIqHoHz8TIhEQcNSAQZwhwSQMyMbIhUWQNqNQ8BJioBUcVH8mEIYgbkJeSjXMoVPGRsrYh8ghQigYEyjgOH987ATJlbEOrGtAoFgCQMGm3Jt8j8xnARDol8hECoo5DKtQcAFTKeofMlIDRxVHRgZMSZ1BxJVHQbp1CCWwoUsEGUHuFLAJqpqaNLidWWAS0SEXnUpGaBl5qhYou0eoogVxq1SZfTd1vy4BGwezQulWLAMfCKtoIOWXCRjQdOTllQABPTue3nJJBydVALltAAgUhyWS4UgAoXZN8T6frhR8WEbFQ9HYLxEwh94ZzAYjgTMKlJjmm6INY+2iruuEEl34QzZEKpAHpB9XkxokYlo0ONl8bzteJS5MFBBAHIS4bh4SblvSDeA1AeCO7a44kFRbbNUa3GbsO3CqZY3MJB04AzgSuQqOFytIMUJHRcxtwepdZWxwUkPSDbCTWoEaTo5DsFogG4klRrSQakS9cLABRmchOn61fUTJJjXpjA6bj/wFUbfSgRQjPBF0Q0oQq2iFaFSdtLgO3ypHMDtJIUV902dpQRD2AZHJs5beIgYhYwOrKs+haTiVrsqQvKodZxxK9VEBFz7r0QJCx9ehA8XH3xkpJyV2hrtSs3LXaSlHMtvgHqpv7XLFS1su/+vyDuYFtvAaDCffxdOXk4/qotnK0cja+g9nN2bY5GA5d58GV06ezSmEw3oom1N8fzM+BmulPcD4PNrx4/PfUdHbi24VgW5nrwmq5k3UmOC9HMk24ynAJd5H0GRl+UN95fUCu91avMJxaxNWpmvWoDYcZOQ+ktcS2XHGeJNxzjb3CfCZ3sD+FidlmA4pX9p3JVqbDtXdZw/XycL44e9g9PR3v3S7/txdt8up4SRdu/wI=);lineShape=1;" parent="50" vertex="1">
                    <mxGeometry x="17.500635419692856" y="1.0160385317640248" width="0.5795371826943015" height="8.914162653692236" as="geometry"/>
                </mxCell>
                <mxCell id="52" value="" style="shape=stencil(rZrJblw3EEW/RluC87B2nP8wYDkW4liGbGf4+xQj8LlZ9d5pGMhO6uZtsljzLT6kN18/vvvy+BD9128vz78//vX0/tvHh/TLQ4xPnz8+vjx9k78e0tuH9ObD88vjby/P3z+/f/3/y7u5cv71x/Of8xf+fsV5l/sERf/P+sD7/z749XX5p6fPN8uDK35bHlxI18ujS/uvR5fr9fLkfNyWJ1fh15NrdVteXBjXy7MraVte3cjXy4tL+69312F5dXEXNXg3wvX65oJaf1zW6fruwn6cIOLDeYaLZV8vt9NAs96lpAEkQBBb2LUVqitw/yJgVzs05wsAsotRAxLYj5y4BQ0oJHQzWmuuRQD0ZTM3gE4e4Nfv3QDoWsVFqpFhgNDTrtWROvqwmKp2YgGQDN3lZACguCS2NDSgwrWm6KICjLXnOSC7sAsdD/s9B4gx73qQ0BXBNFJzVe0gh6Qdhku74iRARdBD9kuvByC7BjvkuMLhARAHAtPI9pbGCiPngOLqHjVSYICEMRWyE2aE3HXUEM14iHt5rLB7ANpKE+dxO2ihU0cHKhJ49yOJZiIEspJ0WhNABU2X7LLXgAIOVEzyEUAiQF3GfAPwYN6lLTUdtzRWOr0CjKEBBQJZ6a4ZQCTFDW3eAvCUcr2xJdE0CF2Dy83sADLUeAIIoIeadJExwwKYd806zAigEqDoLDqNj2RoyxAOQEBN164rAQk8lLLqWNZ/ADL6Q/OuKweqLoPHtbgquwPAimtpFZpHbRiWOZ4DsikmC4b7VnWxKgY/wDSa1Br7DmJdpIfWtQyiykhCGz20gB7XpTjZw30rK3ieA4I2PjlkgiP1qHOc/ATl6Z5XRjsA0gTALfWyHPIAFMxA3VTq8gnF1t5cLhpACaV3nUXlJxL4Q5ccVzWA/GFIjgsaQB43JMdlA4BQOUwguwfI6+sbQIFbGkVXxvOWwJZGNTtwBzearowFgEfqpuer2FKOsdqLG+NrJMPQHYrsQOWPALrRA1VkAhgKwI3rBOyxdXi81uAPjuBASKV7Z4v9mkT5hcxVAGqHtoiKy3tVQkg0ZkDdVf3jpi9VnTSAooB8rZqg+QnfkgpMIgPVPwJQWVFchDqOMXSsFK+lNHoCkDR6Z4f9SBLb7mhaR+OG8d5e6wzfFJiM4qaPQry3piGAzjs0cyRq5Kx5i49SsXHiQB5LgTMfPWrZyy2U9UlJdAegHKLeuyYVysS+C9u3CpZjICFow/HNPfxfCJMjBvdBNgsN7iFsnpM9qVC0mVQAmWQwuVoAVPfZamAwZWTrjQmAUtRWNIM5JlszTQARqKYquweQlKNkaNhezsrSAAqVolKpKietyDxILazjQEbOVervroSOfK3BVGVSPtAOfjF7N9GS0px0KaqnvtMSNNOPNi6B5teqrZFrAONrhhyUlpbYk2YcSNpyiq7NUEbS/KEMURNrZSBlNHtqBWhrBHDVtRfT8VaiW/pqYg5ARk1P5mH3h5KwepjcRtAAImkteyIA8mnLz0wyD8zbMkACICrbckwlMd1iWKwJIPrR8GQTAEeyTJwAKPFarm/qgehHwyaWiOW35StLxNRuGVEBROIrs64TS8A+aBqCoYyoa58H2H26+JUxrphp/1MsVjaFZW4Yl3LXxpeZDMmWHExrMHk5IVBcH3NMOWuhJw1MQkdX9mtNbdUG5wCvC9GUVxw5BcwDqCMlTLtzFrS7aIp3p037LaWANPCcZ6kd/GKdzgHG+OLAUeecySlAxzBjp37yCQUBO1ecADiSnVzGjh5nZ6MTAB5np68TQDNqM9+NHRO7nSALAEfOZkY99UCtnJmCR67I7Jx9Tv3AWu0kP/L0db4VCBqADe+iJW6NlYpKXRfHjpRUO1lP3UbVjynkE3pMcYwCjvUZOwEz75tPW/Dhi4ov810NnD8uAzi61oHEjx2vN1awZrznWxCQ15sHAmXNVC/W27cm1HR78xAkYyjyegQcEt6n11lQXIKGcF7PfgKTBoaM6Zhk/aoKjmYBo5zXZXbGCOR1QuZSza9nQ4esyM95XdhJfwie7hd392M5haqffK52d7n88eNl3IenT59eH9bdfq9f0slHr6/w0tt/AQ==);lineShape=1;" parent="50" vertex="1">
                    <mxGeometry x="22.290720839555092" y="4.069577716185904" width="19.173568183548916" height="1.1485904982213941" as="geometry"/>
                </mxCell>
                <mxCell id="53" value="" style="shape=stencil(lVjLUhtBDPwaX1Wa0TzPhPwHVZjgCsGUIa+/T29cYzxauyluyzJtjaSW1NqN3bw+3r1sN1Ff3w7779vfu/u3x4192cS4e37cHnZveNrY7cZuHvaH7bfD/ufz/fHvl7vl5PL0Y/9r+YU/R5xJbQso6t/jC5VY/r/4ejz+tHs+Ox5UepzOm5REzmfpYTqfxeL18zFI0el8Fe3kfJWepvNNql0/b0na7C88MuJwimLzhUIUDdcBWSWUGYAQNQKAC3kGZAnEQkFMnQ9FUr0OqCbJZkCVTLLWQII5qqFRC62sLHTJJA89iNUJAOIlQowO3vQZECQTQFAVnTMH7kV2pyZ5BphKJuTr5jMHenWS6tZF5+pJSumNuNpsIZloJgDUs7OAnyBOtzDYfAJ06kNtnhvZpJEKqii5OXO50TzUMCpyAEqUSuhaqm9ieMO6TEkSZvbBZiH8LurbRs3SlBZ1cRa6VBKlnCTNUUIqE2sbuPFMDZCFJQ55dU53lDnhEpjjwgrCBxLWhZvOAm8baK5pJl/vEklYU/BRAqCyK+kFCyxKhgu0FYAkzkDm6AGFhNXAzeQByq5Uxkg7CyujNwBpLqBeJbErFckOgDfcB9db0Z/p3K2D/WcA5WGtLkpJCnO6S8sewJwGNXr1gMzYGvzcBaBzevsCylLIZEcBefIVOhXTarIj0/aBBcfWJoFMIPhQigfQNhOkreqBhlVXUULFMS513/nOZv01Mnl+92H0Gl3Lqm0Ys4Deqz5MTDssJecsoER4jaYVNxoH+ERAOPIrfQ4AMmU3s+roPNcmSnQATGJWo30FUFpBGRNlbhu1UsGUUZFzBUEtBzao2yDnSWw02gUgXmwOK+QHm1nQ9047QH4wH5YLzBbgFcsD1E6f6wFqgulQaDh3pVTpzELUXR5AFpbpZeWYLRhvG5BHOudhKSkS1pb9gDCjFiCPnLyPnfqAceCXGoxuwtbW/USJic5d+OAGBPZvY4lD23KASOld45iyZ3sWyzTYqnOJBi6Yclntu5j1TPR1Lzawvhof1G6nwUbdWOdbL8iJWkBeXR4CZj0BLOuwi1IYu+BlgK30z+D7ZWaMhf7UM0aUL//8qtrodrIa0UZ1vfpdHbVPEqxjqzhRbmiOK8f9Xi+BEFT9zh0o23TIoffjbFlVv5BgUyQVr/5zmNJGHTwvla5H0UcGvpO9OXqR84GKkrg6zjTU574sfngcD+8fMR92T0/Hb6Dn//cfPfHq+MHUbv8B);lineShape=1;" parent="50" vertex="1">
                    <mxGeometry x="39.83172005373984" y="3.46310933126378" width="2.837052912705831" height="3.5621906922317144" as="geometry"/>
                </mxCell>
                <mxCell id="54" value="" style="shape=stencil(lVrZchw3DPwavbIIguez4/yHqyzHqjiWS1auvw8YFUfLxkzLfpN20TsgATSuudN33z9/+HZ/l+L356fH3+//fvj4/PlOf7lL6eHr5/unh2f7607f3+m7T49P9789Pf759ePL/98+TMn51x+Pf81f+OcFF4OUCUrx35cP7JMW///k1xf5Lw9fN/meN3npQeu1vIQ8dvkaRK/l03r6IZ9CH9fyGkrf5SWIXMvn0NImP4Lma3FTdj9uC61cix/fLvEaUrsWH6Hs4jkMIm5Ha7s2Gnon8jnE/fJTGOTuzTQF5dldyghJ9ssPORHbyjLlkjdvIue16wDjxpCJr9n1gz5xfXAuP0KPIB+J/ppCcvIkVtT0R3kh+msNVfG8xL7a0V52n+T3cwy6/77Q2M2CwZ7o/WR1ZEKjJeegu7yuCziXLyHv+mfKVbmhPjUMwiUm33f5Tv0t9xVON+RTCJtkIxsIGKX0Y4AKdFiWDa8ADfiw8Ts1QMUEkIjTGaC0HZD4rRpLwBMKd4u+WO0A9EWUV4C8k7rK8pQfNLSFKr3WtgL3ADQayrkG3c+gdtHslorLBWl571Xw9N2XZjixJ1g22FXKlbuGhTMAzOGZtyaMt2LJmAVoXJ5zAJQeWh1jlxKEUba5BgBaiOQMxsF9d+/SaZLSgkmnxkXL5wANGQB2b+wJgq5RrephedZcbeelmte9nQP6ymMHoIbIMnNdGh+ARlljpvI9RKtZhthhkgo8wYiHJXNZ3n+UamYHVu2YL+0qNeEA03i3Q0uLC88BbXn/AbAEx4rlggVeswzHKrDsDl1WgXsO0BDhDJU/QZAqW1vedQ6Iy0wHoIdGi+C0G7odKelUvuMJely3dlHCQ5LuEiqJzxI6yCdqNA1jZ8meabZKSDC9UMeuyC8mz1hYIgZzrzQxmBMNB+gs1KIDtKCMXxoW8gYYvHKGNrB3nqsE657O6cJSGTaCkdZuM9HsdhtCI8fSAKg0Eg2EWpZfHgDlAMfzI1NXNfqJexkzykpG54CCzjoqbXks1tUBGM9b8FZBQCWHtmjEQ1ca/xaOozoAIxhLZf4JTKWx8sYPAqbn/JRK5ggQcW8c2uza/ROI4UbDsn4CSMSNsUL+AAw6vbCvozgA4aXRnaUHZQ0D5I4ARvUG8GdQUsYYIDkAa4lPAJzIJmAggM6Qjh71ALTl8JfXGhFAfaljhhu8p7Q7SR7AnuAGYVMlZgfX5pqSkasEVcC0PcnSEl0affXHy0dABA06PrOvobSyT9i8YXqzA7BOev6ej1F+BoEBReQzLrsUqKLnI7g3leoOwR1c/TXxqE5OJeEqiYs5Ssf2hIKAN3hD3RMis5yxBJyh0RZu2mEgoPIn/CSg4Sh/EgMD+BzU+Rl8luvcv30e5TE6M3VyABKjsxZwAJZSZrXhiIbVZLO7aAhg8wOrmLwd2NjdajLoIKbDsyKuLI1vXYPVlckxWaPzg+rtUPkeprhDF8qVr0OYm9qYDdNLxlmUuWPmU0esmNIa7171KHitQg899wegEh9pJBei5vBsQzQXBgkBrCEQN3U0QGTMhyzTO93nVdfdcypWTA698wEIloi909Y1YjlmjCDkvL75LnTfKWhi4wO2w9HVpN5MM1hucyu0HumEtWBb3MaqYK+mK27akxgD44i48cHhwNF+M6Jg9o1Y3Rqb0QV1WoXjzcyNaTRXNvuVWlvNlgfids7Gl6xakGP4ejOZzMQI4uK+RUpFMtzA18zMxrERya4ejcrV/FZgBt3oLc3d336ttXJAwVGDJQlhKjWnUqZNQ3KLqJpop6TRnUFoltKEBXrlK2tLCTDBKbyA0YLzlbkAYUvlYz9yAPjKUTtulcvxUsY5YKC3Fln3ds5hEUnsdc15lWlxmdbWKvsc4OyQC51Czd3Y7nz2CV056qqVD4DwDWLG2tYumvX12ZVIWmmflCuuJ5TPGw0AdjCHpypVPPTkfwZwozeLcsZ8BsjwikKiPYYBYFb3muIvnwBvMDU655pnAEBZSfIKABnIMgZ9h6liNymyGtJL14Cdw6r7rnwPXnvi80wLH919NXO/EOyqMi2qjDHGLq+cVvuqqw8j8x1udV5Evc5YGFa4ac02r2geBgzC97EDE49QvrPMpgn1Yb/vuCXx/U1Cf+CbDHHzPH2rfoEIyLTolIydVKG0YjUezEgrLVLnDhOqVHo/HTcMfb34dd4uu+b3jZYIWhzhmaNgMApfYGZkRLteNnFWDC7hzX7CtZYM+vuuIDfvr4StBMlhfsKKX+f8ibZQggPLGS1UH6iHJpvQ34c0POVpi9mdPuz3I75VOPUn3h/xLbvE30SKuMB/4/4jvks17Uv1wfuRN/T38oydf/4V6Lfk7Y/X960/PXz58vK69u33+H62ffTybre+/w8=);lineShape=1;" parent="50" vertex="1">
                    <mxGeometry x="47.72069583262271" y="0.5475581798980897" width="9.141712003470397" height="6.969488248336994" as="geometry"/>
                </mxCell>
                <mxCell id="55" value="" style="shape=stencil(rVnZbhsxDPwavxK6j+e0/Y8AcRqjaRwk6fX3pWps4uXYIxvomw/OiqLI4Yi7iTevD7fP201wr28v+2/bX7u7t4dN/LQJYff0sH3ZvemnTfy8iTf3+5ft15f9j6e7w/fn22E5Pn3f/xxP+H3AOUlxgIL7c/jBRyn93y9fDvaPu6cj+yAure2TtHzePkloa/ss1Z23L+LN84tEf96+SXHWvhJ/vJdiNlzFNQLI4roFMI98F+csIJEVQpTx3xpQSIyC/o0AcmgxQFSr1EIARYq3gEZcSk5aBUAigCQdwtqIS6lJawAgYc1BEkSpkSjlDLlUpZNN5yYJNt1JahQv7jpAXDLnGBAIIC/neimgnjg4CuhLvV8IqF4qJB8FxFPnwABZ0nUr1BP1QAFtIZULAc1JAJpJJL2bl2zOIVMia0GaKdFIWaMlcQbgOSCLX2+6Syb104rlsSo5Evt3Hl3ss/RK7Js9ZqVmFtJ3dxf7JJkUW3cLxR3ZkzPu2guDsa/MHnhen08IrCeJ1v9IMqLnxd3FPlKS78XGJ1CO79pkirF3zJ8uaX2+bumM5+xN3Yelz52zr6ZktOr4At0s4KWTJjUAa/odjZGktHfONn9tQ5UlnS6xDmppPEv70iYXgDJBJGUzwrQ+Bk1c1poVkNd11rX3kl0rIBpAn23ar/eguRtZKYCmUrKJ7KhBLWhXScwlBayLR7s704UISJ6qBXRJxW7mB2eFJNfmGNY0KyBzblo//PkmMbz4qzKvLg5emNpD107qcw2I2kbJGZyoz8TVPFKAarLIg2RIRsWDm0RpTWPauBp3yfCkMvPEJUPER3H4XwhoDvpLZ90Buo8CKHtDe9NHBJYd0D/1EYW5BA1aAekqBaCAwEgDJMZYgQBQwwwAE2EgkjQMrMehClOAY7INZJ6GITHdhjrSUS5GpTp2xZQqaGF1kgJAbeuagalt0PO6ZiZhxRuDAlg/wTvJDAC3nhkA7lUzANzcJgC8G84AcPucAeB+OwPADXoGgDv6ALCxAUwBZgCYMyjAszkDTDIGgBQQzkoGgBAZTmPa+8jownnPAFw1UVIAo3ucWQ0AcQmnYkMYkyjh3E0BjDVwsjdIgIQVZ4cKYAoOp5MKoHMGSKVIeQzGq41LShjfKk8y3Q3j4Q/yP2kP4+fGx71OYrDPDyTtTtE298fEZ9AyYQtnyaI6ekF0VjCUsBTSOXtznUz0ooTyNtMrAPgTKyUK2G/o9PIJ8RwzBvp8HJux1wuQDz4tPeuyfJtcqeb2+uHj3cr97vHx8Grm+H/7LkZ/OrzHiZ//Ag==);lineShape=1;" parent="50" vertex="1">
                    <mxGeometry x="57.807584876478586" y="3.3556078956858073" width="15.230724148488635" height="0.1805613404891772" as="geometry"/>
                </mxCell>
                <mxCell id="56" value="" style="shape=stencil(rVhJbhtBDHyNrkTvy9lx/mHAcizEsQzZ2X6fmgg9EjkzJQTITZa71FyKRbJ38e79+eFtvwvu/eN0/Lr/eXj8eN7FT7sQDq/P+9PhA5928X4X756Op/2X0/H76+P577eH6eT06dvxx/QLv864IK5PoOB+n79w4urfLz6fj78cXq+OV4lVHffSwvZxHyV7dT5KJz/vm4SmzmdJbft8SOKSOl8lkN+PTpp2t0t05HyTWLS/XlLcBqQsPWhAlOS3ATlKMRHN4vM2oHiJWQOKFOJDaZKjBlSpheQYBugkIC2F+NBgks6yR1hJlFqRVC2gEx51N1wcAPCUhbUn8ZoYYGogTOrFJg6lwZz2DpVibKpSOrkCPmqb4g2bugRtU0y0fHoTr00CgSsDgDqaTClQbiCuTXMjFWkMEMVpbmTHU+3FG0AeGrVOpm41KXdaQW1O0wCUSEWvZWk6rKVIZfxO1ofqRhjWAUGSzkONI5XrADcMmAEwMpGirhaAn8gkrDUN5Z0BeSjPOsDbPKBqAxOmLlXf0AOlBqJulAyEz8Tpkm3Fda73APhiAY0Bkm1YV7qwjkA/cIsrCPtKsNoHQGJh8tKLDVMl7AMgG0DlXqMJmriiIAiZALA+ZA4ItrFDeTrzAbrlLCCwKGE00eIKqWKzDFKdvAUwFQCZQrUAJt/gt4vWh8ycLqOEr8JK+Y0uZ6JUJBD5ngDGJD5hAWDmGZAvsBotKyXH1BhhTdECCgMgiM0CaB6ibRATgM1kQVpemMTyEEaHuooSNQkFtKhpz0XAlmgVz9jq7agOaty4oRmT5sHxPwEWg2i7oXxlKOkMQIWwsDarSy2OVG41uW46O4Y01kbzIPMMSFKID7XZYRqzAxsFYEA340ylfRfjetXUAOE7EQHEJJkbHJ9/FonLhYa1LWQmo+sRarRmZ4fU6GKGWSTrPCToORtcwwjiDMASQoQM4m5uiIWGFeJezD4QR5WvA/KYza82jkoyDZOC5hL2adYUESW7Ns2j7FbivE4cNvxIbgD5nG672LMyyTTKxajG9ObAa9qaNN+5DnBWNTyfyLCzm/EeCzLTpbSYBKadnahGrJYaPo2i3XrYMInzgXIJaQoG4OiQ6KtE00XpSjPdrxM9vx2tZ8GuG3zbwJaoJYmXjhuj3eV4IvGHWJg9mpYN9hzdzQPlDxaEZo4zJVq+M1A6O7twe9oC3Wjyl+OeEM2N6r68F1aSJmcHVEcLxdk24OiA4Mewe/V4SWz3dkXgm9o/Po3ePI4Pl1fYp8PLy/kR9/r/9tUWX51ffOP9Hw==);lineShape=1;" parent="50" vertex="1">
                    <mxGeometry x="69.99341331694137" y="2.0448904384543596" width="4.060333345140331" height="3.570084987902568" as="geometry"/>
                </mxCell>
                <mxCell id="57" value="" style="shape=stencil(7VtJchw3EHwNrwjsy1mW/6EIURbDsqig5O33TphGT3dWd07o5oNuw2FlN1BrVgHzkN58/fjuy+ND9F+/vTz/+vjn0/tvHx/STw8xPn3++Pjy9A2fHtLbh/Tmw/PL4y8vz79/fv/695d3U3J++u35j/mEv15x3o06QdH/vb7w7d8vfn4V//T0eSeeXEgH8eBSuhavLh6fHl0o1+JjvfsmXuO1eIiuHx+P5Sn55kok+ZKv5fFvn0i+i+dj/en4/LwecK7M6rwn+SDkc3QjsbwwVh6uFZYf1/Kl2vVHL6wbXeH1JCXfXWR5pf8Gc3aS70q+uTQO8sWFei3fvessX8T6O8zfSb4Le/Xq8lH/Vdqrd1czyWchP7wrgeSrWM9A9HmWF/ocaYXfTb4FIV/Yn6sbQp/D+BsMqPYL/znmh74MciU/jvZFxlAJAoByTCgBJlc7aEshG6C4JFwOW64EgE6VDYqLR59AFhtKScm1oxHCkFllhJXUtqzrXRRq7UgrxzBAFcgqbpqrlNfj8txzAJR4DBxk3qYiJ7pGhUaHfhtc9+74doMrk5a6LH1t85yteKC0CrU2z86XwspP5+m0cTikJH2pJt500gmv+pVvN0CTFa1056nCdhnSpXAKS8Nl9Ya0VrzVBC/tUBDygQFDVcGwku4GwDfCNQCI3QAEzQHAW4DIS8WvPLoDyE375Qg7QBDOB0C1WtKAYgDK+QDIlQGqup0CJH3x7BrwpaHVWjoDql5Ss94q0gwAzFCHi9r5fGaA3HRcz9sBkto0ckQ0S9Ih2sweFM1DEsjGDqo+1MA8CYAillTBG82mu7ADUiWVLPiSskOzEefXIy7T/XFJiDiVW1FQmJxHqaW2JcYNkJYazotiYLqas8x8Pa+auQFAQBUTqMsRNkCTWQMMN9KmsSuxJFBcKiiIkKA4KLR+fAMipCpGFtnSJcsWeGRm0YgQFXGgcIHajLoapyuSGGnTqKtq041rXBlLDVcAykuIQUkSu2k1oube6OXpDdlVRaXH6gU3wBYhV4B+rNN1LL2dt//ec3/Sghv6FeO464ZNKHcdXCDQkyruMMzIAE1pUoDO6RtdqWrSp6mPWQBRK/0baj+6K6JWGgLuf3wDglD1ubOvPGoJ38gICkyNZ0ypzntwyGFXqqJAJ8QdoDeVNqD1fLTDDBHVBHkencH2QU0zTKsIgIqgFrlFmSEiYhTxQplsFyLniLLmd7tXqAhCWiF6MtekmGs727WiJ9lFA1DNZfE8FZhBKAwxa5oByLlbMabuchCSIw9apjOJPHOjzjuAyjPJjE7GVorPAZkT/px1CC0BQF3QjCAN8IMBWQHScrUdQDX5yczrkAWU850CFD1JpqMGQC4pc6VGJlNNPgDJANSgImWuowCoKToAxI0nQLmGGfPNJYk8A0AwalV8BgDilXNUeAdQGHBnD6zWKrkxAJxmmuyCppYyA9S0G3boiQFNvcF0QfdDNFUGVGW4bNJ9k7l1xoNZUrwToqZQD50EiPVNSystJT40mfRaHXFlZq5wb9XUzMxnIq7pJJDNG+6kymYiTk36vx/QTwJIuTcqUDF2UE0NahwR15mMhS/ls4hT0/vcTyIu3Rm2mIhTbdPkGiYemlhSaXyiM+m4mmwE7gfGNlK9ZGSVAYoaV3PIOgFqVI5Gr5glqcn3NjTYa0nN1scK+X3WEJsG+ea8VGVunS0PpZmi6X037p1XD3I1qKj0hiTp/Yim49BT45HZW9HlyDGCOTrqTb+hcp3uZeXCKwDNTnqUFG4yPOrAhzxSv5XAXUMt1drYW9Gy3xmFcI8f5ah8LsnMHVQim5s+qrU2SU5GNefAWcYDLF3MOCeqPWROlaWvuxFXLbunsVqT/QOcmZrRoonuDKDjHpBt5aniYPcuUR7WdtNaFj2ngPc3mrgOWUWRl8hwqEmqZPXAU4RcJSNDuJAdUCZV82qTcd4a5qtBNiWynBY3uBqV0/nAbGf1uWU1AEUS57iftBRkP123A7sdQFUge2QBgLKDPRSZb1AAcyx/D/DjGPI/nvnjGPJErf+3Y8hgThW77OOKuUkIgBq1FDN6TJpVTu5NS9Izger5gO02JTgHJHN5QV9TqdXcCYly3to8k/XkZUFB9qbJSewyt876cNTSvHSmCsowgCwjrkdmlfNepSq7mStQDJKcgN0PeoOX8yVQB0+3sLq+heW5QwlNn1vGRRQ2QJURZxlZKPqurBkyB31b89YibYAor9pMwDHigpfTH+yBmPGQ/fcw8TP0yVQ0HdAi+1dWo4OpLhNA75y59RWvefx91GiTOQ/0kCatGyM9l/err7jJq8nVvP961I+epTWTg6ucFM/7u3y/Ux3b1Wjvp6obcPb+sR682fvNd+TNAVlZ4/urES5NM8uaJZ7Kx8GHXUXeV47RPl+1F2E7H7nJq8t1iG9z/1vezrDXy+XtQL6akeWwwJxxJckoPO81SF/2rPog5wp+NX43cTUOMmU4SL5lLq2EdfH9SvwYVvqConm6ZryeR19eFlPP1drLGPd8juLlMNGQab/62QtxqqL6eNozvbon/l2/fbkrjg+3n9l8ePr06fVXOvv/889y8NXrT3rS238A);lineShape=1;" parent="50" vertex="1">
                    <mxGeometry x="80.66891917325455" width="9.39510446366182" height="6.524205587735533" as="geometry"/>
                </mxCell>
                <mxCell id="58" value="" style="shape=stencil(7ZzJrhzHEUW/5m0LlXPmWpb/Q4Aok7BMChTl4e8d6Yes7rpRddoCDK+0o57yVk4x3Biy39J3v3784ZcPb3H/9dvXL3/98I9PP377+Jb+9Bbjp88fP3z99M3+9Za+f0vf/fTl64e/fP3y2+cf3//7lx/myPmvv335+/zCP99x+7aPCYr7v97/MMaW0n/+8uf38T9/+vw0Pmz7fh7ft9hpfA3n8W0r7X58XF87xtetl/vxaQtRx+8wPrv9li3u9+PLFmT9eUswvm4xncenLdX78W3L9Tw+bgnW39fpHePDlsL9+LFV+f6+xQj3tW8tnwB9bAE2HMLWzjvubRuw4xC3KgC7YhK5tJWzzPWyVZK5vI7wAOSt0AxFpainLdMpla2fj7XbtRGgbuUsdz1sEe45tPW9A7BvgTbdl9wvQBtL1u8A7axqzT4BohTGVs660OziYAYzLlGWVLYGmzbAOJ9Sy1sF4TPz0s6n1Ozi4JTMvmRZkl0cAZIagBbwpg1QzxradrQAZpLCedN1bJk2nbd2XlLtWyabWpbKHwAzwrTposda6/rLNaAuo3gACuq0AYbsIW8jA8BWLEtK26A9dLXENW6DTqkvs3UAwhLHa4DZ1qEAUqC0L6NyAMz9wrGmsIXzksrgGcI6kwNgxpjcZ1wKeQDqMm3XgLQk5wCwTqesmy6m07Rpk9azAhXW6VTVehfTaZAlA8hNl4BOMbWtn8W77GvOa4C56fMM2S6OjnWoAuXOPMYk5yzeuW07bNoATZb0gimFdeoHoPAMxt3OOp0zircBxplrZFbRnJbfPwAm8GBmbAFJZthfAcZZ+OxmiM3YmdRdAbjpqsbYhGWnTZvplSW15TGuAW2LZ7tkAk+cPjvxNh3MNENXcmJaXkmW+vIGByCh1TB1yQKI6xiuefq+9OsAhMVk7wB6rPviyteAoJbPHEChGaLSUHMxGTZtdi6c78G8HlEHA8geZvwBptJMbz6LxuQG4FDMuIezAhn7iLTpok7RCBERLPM3u+zBAgSawYRZZghb5xnargBixgYYZ+GbTJbuoamfNq6MF2f3et60sfHMABG+cBCiO4Do9AxBSIHMCskMBbm3AcRlWdxFJNEAEj9YZDd4Brk4AwTaw8GODkBAVmkA4d4W/3aeQXzc4C24CTrL6lgbPKIHpGM2PgmPRkNs44VGF5bsocF6ZrEbyifToh1347toP3JuGy8ENyJzK0Op3kGpb/cb5PtEkkxE1ZujM596LK6Wlaw6xsMa4BITmc8/rwj+IQ8vPI4GGKxgUb9feb9h2f6H/KN87ovZPMZTvGNEZEguCVNJ2d3XwMSQkTVJF5hBCUSa7QKiAsgCGQcu5x2bjaMjzS7lESL6fOPUksEwQKMZwrqjZzvNAMnCTgARzl2vzQCUPjOA6M0E0EXvK4Xy3wP8pokZZcdQ56Yprh0XmybeYgDJ6NnFUY5kAoICMNvuUh5TNEAf5gxRAYX3oLwlIjOap5QUQCZsSqsjCRRaZFeTMADVDHJSJ2g6nUk0iqrowPzcjPDOK+pLZe+iqf18Cw2jL7OqEtRyEaYEzdtyasG8iHjNgkUV81JJWQh6kaLjEwbx5mWjemX0gnWRuAdLaMRamguKOOrq6gXD+sAtaxHjtVIAl+Ory7MHtNc1apUqrBzd9fi0nPBjPGWDa9HIIC7DdD3eZzgwq1PHhbyBPs4Uv8o/sdJmPlkKTsi6WlH5MQNRQGFa10rKNHJwY33XOuGMteDKetRUgoV/VDPrWVM6oWJo06tzBUfIeQ3oSwmfomoi130sK/UEoCWNoKnmuGOQPKLmdafmgGQM5wqmKtOSshL4GYHQDEVZwqxx0QxVKfmMucCHj+asXeKa89CS8KPGdQfQPWTMWE7AUEABfbgE4D0Md0p2M2AzhmM6BiDyZQBhnGaVSB8MIF4qFqxCjK5Ftkc7wx1A/E7klL8BsrtpssSPbpEnQKNNuwD7he+fgKqAzEtKbknk3QygieCMMZ4BukuiUjXIbjq4TeM9mCwFB6A9uL6QuQfwQFMfHIDio6lxzd0D7CHsu/YWRa4UDkf9pzCxnWnu5ih9YQC19wWZ7dRRl2BHlRtu0y+VWo1r4avuLuefkQr8foAr5k9hItlw/GemCWnThxl6AqD0Ze2GiRzZmmdXWYorR3/HHfQewgpdrwG7O9aAKmd0RjLyxk6oMaQ3bTIKh/xeA8py/E+UDAFZpXX2KdEegsthFPSKzWcY2Hy3piXewJXCll3CIGDFtjnSNzD31HzbE3KT2rXGVpCP1brE5iknT9FeVh6dVrh1F+1JWd5Uh8YHP57EtLrYJOJ5FteYE5e9uRsvNZS0vONddK5NAigPswCpOfnKNVSplheuWWTX9YNtdjPHfl5PXUWbu2yNNHY0zmkPtRKdE2yOsg2MtnNVw2jRMKUvZpOGmK2wmr1uc+Yuz4k9F650/0cK/H+UAncz/JEC//+nwB0VeVEnN2lVfQjYcnpRdNoxFTNz5r5wxo1X0gA3sM/ErIy0XHRuWWqutZjrckPLOw0NwKxcauUec85BQ7zC3RZRQ3OOXErSK2beVbL3suiVs1aOExr52VaqrKLRepqyosDtXF1ztju2HdVdvfIRrt6yoijjqaZjrMuvH+6rRnUgEVNmc7zWODDnHzSoSyj/Nl4K2RlZSHWt+wX118aXszxUpPk2XtrEuJNmjpcnHci6alD9HVyDCK7VKCwLdidww3kmygxUb9UThrDVBSqBs0aPdvUnAFLTcVFVoHRfcW9MAr88KK5x2iJSqoWW4YhXZ/reNfMVBvdA9ZW1eo7b2RQll0qgqHo29bueSWxrai6PFbFPxgCae0jcTltdNjujvZv23WXKsJ22OINXeYbskqKNy6jJlWk713Wj1jlftQNG1y7GT0Zm07F4WY5cjFaom01oNQwgp5QyUuzsWvZS4Y734arxBSl2di/TUsWL8xFnaihLRu5ERVN/1delxzrQtubqWhZ2rNjOhwTnY81cZM+OUM1GFQaIuc9cx5ths7j0zJuOenG2q0QXF90rloq5o3kmMkNj2r9ru5wJC80wwzX3dIf2YJIjxniqFEWQPt8XsPpvwixUw+wIcVtTF8nwmGnrIN7JCV/hlH9yZWpzAEQnp1FxL9OoicrMlijQw01eA1yatry4uKBlubpjonA+x5OQLTDgyNcfgBevTYd2vNeETMAAokA1Y7JtPkGRPRR+z9rUT9eKFxeblqlrQ5f1aFl/AlAoGau+k6kdY4HJLGSGgQ4lumdgjR8HRffkvAWsXc6+b0kXRGxIiK5A1RJS6UkJ3WNqfK4dlMK1ilXn6H4roPHLtOgqvK3zs/mhDTqN30bP+tXZZfUdn7JZtCAuqwdsATKAxEA94k1bACNZ0s7FTguRpNuuc+tJyPpooVfMTYTkfuShYfwwc6ICeHFxQVux+sCupJkelHB6x/yBe2gyuIu3q5EZEfMBvvGf81t1NTcc4zP3zLrxhbuQNbgfFcNWZ18GvyWMWmQbnZVf4+7ZPESKpunIMbAHOaj7HwPP06VXxsAqanDp44GMZ3e9hTsnAHfXk/sSoDf8akX+hGjH+8UJ0Yle/TQQdbW65NBsMuLv7zqegrar71OG+vf+tNHr8faPx+8o/fTp55/ff4bp+f/r7y7Zn95/syl9/28=);lineShape=1;" parent="50" vertex="1">
                    <mxGeometry x="5.947221440798188" y="12.580449019473775" width="14.389364345334673" height="23.520334246827826" as="geometry"/>
                </mxCell>
                <mxCell id="59" value="" style="shape=stencil(7VvJbhw3FPwaXQnuy9lx/sOA5ViIYxm2s/19ihHYatZT10C3BPBNmmFNk3xbvaXv0ptvH999ub+L/tv3r4+/3v/58P77x7v0012MD58/3n99+I6/7tLbu/Tmw+PX+1++Pv7++f3T/1/ezZXzr98e/5i/8NcTLnRX20RF//fTJ9l5/+8HPz+t//Tw+by+upxpfSlifXajbOuLS1Wsj26EbX1zvon13rW+rR+upuv1w4W6LccDu1jfXdx/PhTn8/X65jL9fnNJ3E91db+eMFwX68v6dq2P0ZWu1oe0r8f9i/uENOO+HjcwrtcnFm8KLgr5Jpf3+0zZBXHetL491lfXxX4gzf3+k9aHaNQ/uijuB+v9vj67JvYP6Yx9/ZD2YtaX6ILcD6/Hfl5z3tKWhl/d527u1S+NupLXrm8VvyD8CfRh308trkr9IfdQuytB6TPZYwsuvMZeWloWemWP+/5bdUH4h7q08Viv7au7sNtj1/sf7E96dE358+DKvqF+iOTKocfIgKI8unFZACShQvCYpKM4w1BnGOuIJ0AQW4ph2cjpVr2yGqjd7rbacFm5ocq31JrUUwiaDKEh0ChD8CtuHYC4dOVlQGJVguko1UiIFATIrqsnNANAdFaAsWLF4Y2qvNYcFjk5uccozC1b/9udF/YDd+73a52fqC0VFwngXRaHznXt+AhRTQou4+v90IiZ8tDN9d1JIihXdQZDAqGORagGAPSE6aiUG+5u0BOaa0K9ESaDASi/BED2DFCRDYBaGRDULQ03onmCuKXiXzhDEpIGIA0GFCFpAEpnQNcA8nyT3wnBAWAlrQhVMX4JMUkx+LmlwQDlKgGoBjD0tVLQTXGF7StA3iUNX1j1tRJtmK5Na2snv5RcFDzDaiusXNr0YCY/XaUG0KFBDRWVASARdwtuaJsmE61VymGewbC3qgGkS6BjN9Q77urdvRQcAGP33v0GQQzMoPuNLUVOqTpcpdpSdonO0PWWCpNoAFTSAEWgJLvrKDqThMGHbgqQFtk5AMhjFI+uy/WeKJxSvgoDIkbWZeYM4h92wbXsqgLUldkdAL8k8zJgrBB4Sn4UXwKt7USwNG/tZdGpM8ES1wpVq4ZgqXyjmziNUB/FGYZn+gOCpTgfAJRigQUqJjACK1/qK65eAajIA4C6VgA4PjQpOADoWgHIKo0LhsJp6jAi81YAVEABgLh30nwJAC7dNH2tcZnLCVA0oBtmrOIDAIPO0CUjG3AzkQFFPSGtat8JoNzMBJCkESaFxU3BUUXpKIFeKh8ZUHVeSdqzm3mOelc2zTXbIot0AJAzRgCIyi91DuzwfEpbZ7zZtwR/PlTdpLHywXsrr9Ebc2/EBxWBJoCiKCxEnaExX4J7HvoJXKboMori67g/AcqShD1AcFQuHVmWWvB7VGoZVdbDYQ+DAEWb6KEIpy0p5RtGNWaIUU/oqwNxXOuQSdPoRg5DMoExVjJ8AiiCBUAuDBj6CS3zobPyGvi9xIAhGyueHdNzFLt8BAlCF2eGYeszAuhDUE4D9VJsfQqiM0AVK4cpbAxN7wEgbzyfoJUpmCcoXzka109xS6rlAADbqC6HDlNwhaSLIhuNI8okaSqyNw7UAKi2GG4pWoPQ10oMa5qcOkPnku40anWGI46f3Ya20Wodkzr08XsngMr8xhEDz/5eb4kO/cwbL7dklE/2V02aNZKsIrweUE2AaJqSIW0jixvaHiKr98kZXoVFjkG6jQvVobbL1Eehrr1zQwGnVuWc3piTIbJ69YS6AshJ1KpP020ZYdwCUB1u/oTiZOWFbpY8dDFNkS7DIg5N/WXQRFXIBqBQA/IQ5RWATK5m2XaB4KiMUIYsVEA1gukBq8QMADLqWcpTgGFSjqLtwXM5Bzm7KqD+yNkX4EfO/r/I2dN+S8jZZQ0rcL6biw6jBz06magirr0z6StJskTryEqXUbEnZuv1GLZ5GQDyQq6yyUO3xllQi1IOLTH/aVVuqSFJogjkZbGlGu/dj4mSq0I2l8qbVI3q13zMmVaq6n3nEbbp2sQTSlkk8pwPKEAy5CTIUkgJ7DWgv4rDFW9qJ00GRdtrghyUPdiW9rM6XgEooECXstDWOUhA/YEgywizLU+zUXUl5VeAtnu+2WBTTcLGndHZwlOHbkywZpNQhCwLyFq97Rly1E1Ck+6mLosCUw67pFORDWcAkmkHqwz8x7TD8YQf0w4W8N+bdqDAnnRLe+oSMbIkZ06nbyVGpoc2rdeATatSea4cgfKNCabCzBifqEpITizp5/mHlwGRJwUQJuWhPbOZ0mWpPHWTWkY5q52qGZ6tcjwimdnNdqjjy4DAYyo3uijRVGibDuzTqZgBDJVPx8zt4K77ZXNEmjhfliP/0a8awwGo0reGviYET2xGtV1CNf2BJs8wh27NAIbKFEPkmhcAyhkHM1nZdYwbPFjZdaJoylH9xkgVB+nZXZMvLpATgx6p9Wk9/VQpUo47Mi1pRfqLyEObLcr7CZypz4EVcf+eUx/YviLEnhUCmYrq5njWOCQqav+eWVjRxNB0l+aLC+I+sZ7cb5RtQc9Vg6zjrK1YNVni8mzCOd/4fXK9WedUJnpMGiz003OSh+ig6mHBvFiT5EhX4Npt1A34yPYeq2zgmDoSLFROpxsu6DVDYMIcmuylmzb0fPFLTbDxtBhcsHrRxwx1B6/LL2YaTXfczCj+et7L0vVr3vtQT9mwRrjg96xkYd4GMN1LRoQkc/R6PyZ797LZEcwAim7wYD2pp9f3OVi8XjMCIy8vvT/Wk7yC3v9g9x/kHGAw6WKQSUcYxj3IvsvcP5m79G5hcK6YNCUbpp+wcpYr+dJYb5KFxFe/NntzPf54fkf3w8OnT0+v+J6/53d68dHT+8Dp7T8=);lineShape=1;" parent="50" vertex="1">
                    <mxGeometry y="38.755002600411075" width="11.235024313781393" height="6.599691279735638" as="geometry"/>
                </mxCell>
                <mxCell id="60" value="" style="shape=stencil(lVnZUtxADPyafVXNpTmeSfIfVAFhKwQoINffp53NmJW87lTezCJ5ZqRWqzU+5KvX++vn20MKr28vT19ufxxv3u4P+cMhpePj/e3L8Q1Ph/zxkK/unl5uP788fXu8Of39fL1YLk9fn74vb/h58kvS8uKUwq/1h/Tnh08n84fj45l5jBKsfZHK7IeUYeybpLxvn1SqGvshOe7b5ywhGfuYJPR9hxKk2wUilizEoUur1mFQB63S7AqIURz7DrXMI64OWLPtO7Qo2SYBYVDm0PwKuc+8XHToSVKwac6SSFh7nVFfHbACSVzv0q2DZqnkDCOI2jzomJvccxg2Sgj031fsOThs1yGDRalLtltqKplUQ1e/pY5TkTMgD8OWD17BwtrGLMfVYUgjiWtInD3DyFIIvBvqy25pVMkkcRVAaNahi5IVkCZXQGNMsFx2CFJcTQfkksQVNVqq31NmRZ1nnlYHpJpgQ+PM0+qAqiWH0OATgZpitFGQ2GLRNyiY4DCcQ6IVhC01CyakphB849DDJgKBZgWBsGa7JdBGUuKgkuyWQOisQWgTddSXJqHvgSlafKc6e8xlh00LSiseLzuodNez0IIYvrsMCz604UrOgLxGxzO8pjc7Ukp8AFr2KoABCTTWvcroZD9glGhhgeJgvaFJrN6egALFvnl/4vaOhsOUKZftwcIWdFESiSfsXd2AZPn7R/Px/Md+bHwyVW2wd1yE/LL49ynq3u0bUXnIV1JnP1hnrpKKt2fv1xnuM5XK8FY8SZRZQJfts49/phUPe0fVidYv7F29ROnMvvj4RIksv8XrEMgQHk/HD2EW0F6+NvasHQMP2/ez/XffmMC4hECB5+LjGVg8oTeas2+kfs/kxnuClW+oW/tMNRTsN4CmhAiF5dqkVJ4A9e8fjBD/0x6qNdqCb7Sntu4BOibC9xpY8wpwip29DlkdIvgIhVFA3QqNYrTWOc6skIizK+zpiGFJF8KDsWKNU4ydj4FMz43J4mfiqTMR2/yhIc+YUlnk3kYAVrYCxhlbCJCYjBq1eOpdxA5fIW1kcuRncKPsgl7CjohSsStg5lKmSTH7utkgUf5Cpp2eW6YPLjGzPcNC+ewOAozqtpSpZFlGBzfVRcrxbdW4a5TaDMMuB9gt9UxVTo/+Lqtx1ujFD/ytUJ0MIDgdBVpgicMIVzd3EOyWAw5qsYSiHYRmFmzaPKBCmFaAFndUWVY1uSf2vfhSWkAIom5oRjn4nNzJygf+uNFfkQp4xKRshrrGZuXqM42Ozi7Act9Ihj6p7bJDlOyGOp1wvHw1uukPMVHRgA04eKMpsnoYvuB4gUafZj4nR39vpBSnwbdPpd0z+IsEneHdMY9e8LMq28i7MvXVnrlXX5HuPfrprFFzd7OUaS8I8y753ZzNlmshnY2WBJVxltHZZENKPfnrm0QH6f/8OvFPczy8fwi5Oz48nL6jnP/ffzjBT6ePLvnjbw==);lineShape=1;" parent="50" vertex="1">
                    <mxGeometry x="12.480351142868983" y="40.226326209960774" width="4.16907900165558" height="5.255198312674472" as="geometry"/>
                </mxCell>
                <mxCell id="61" value="" style="shape=stencil(lVnZbttADPwavxK7S+71nLb/ESBOYzSNgyS9/r4UjJVFSprAb4k9lJbXcLg+8N370/3r8ZDC+8fb+cfxz+nh4+nAXw4pnV6ejm+nD/3rwF8PfPd4fjt+fzv/enm4/P96PyGnv36ef09P+HuxS8R9Mkrh3+UDpnr54NsF/nx6WcA7FTFwoZz24TFTKAafies+PgXqweALdQH4SikbfCdp+3hm6tbdmKiXfQOJFKo1qCQBGNTxvGGgEY3A5Swk9kjqQwMGJVBoNmVleLVtIFSsD6JZA1EqjSTZrGmZ8L5BjZScQaeKDJhStHkuVMCRqkbJhlUfEUHi1MBlujbKIKw1U7Sl1JgCCOv0But0qxRBM6gBW6d7IIk4SjZxnUc/7eVBnAHut5KpO4M2Ar1drZ0yWwNcrTlTth0dgxYw6KCsTmT/ipphy+WVQQSZE+W44L2O6A2BojMokPe0I5sLk1AEqWYZtbaojQqYjxMle6RWBhduG8RRa7NBgNTHq2KaWgSkWo8UrQ9KJB1kWtk42zeUNJhn2yBTsU5P5YWO1HzLCWYB5ftifZg+AUwm2fOMHhKxgJa3G4nK96g0chkHWEwUQXyfPLnGNlK5x/fB9ShTA7WkxFQt9XXqCN9H4VzHegVs35Qp7fNn6tzGd9+fCfZzV6K2I1QpCTSb4jt7PDiP0kkpDo+GlfJV8udBCevzdL3iUaMp3tF8hH22he83nSfBCp38rQ7fQZNN8bQMr5PxpnwxMai3qR6qx6P6KUNlXvGw3rKXtQmr7DymyxXPKF865W29RdhfihdxeBjPTNXXMxpOGp9VPTPGd3F4JL00X2XVv6j+lf9W/Yvr003jgOtB16Lo44PxTjpGOLsXkmmRYOxAswHFAl7xTnMlajigzTcMbIB2Y4Pdip/r9zowGmgY1UquIMqo8G38Sgu1kcHtgVe8OouRGlomtGDczM5j1d5T7m4x/WTG5NXqnuZH7C2myTY9B8rgSNJ9UFUGI9pS7cS2jSXBxVRWClPfiYiFu1f6qqbQasCryaFqqiGVXEZeZwMs59TAadiK86BHcplW4Y6WOhW9fjWQQQd7UWo2061BvaWauLq1EQ8EKT5xusmi8s5piOjFJhsAA+TmL7KmIQcorPBqzZShMrYN6moJZMjaWgjN+tA6ZKU6B3Gx0yFdN9272AZqPA65Z8CrWxFEfHokR/Sq/TOYJOq0k2oatwSc1q9di5Yw1MnedZa7YcuM36BRcqyRx43Y3sblpue0R6JqjaPUZoMIBbys7kUnMgZh1QP4a5Q+eGRve3d50IGCNL8eIDlNkqAo1AOw6wfqgLyjUHDtMDpw56o5Wiau8GYqeg4r8F4qesVcBqVtwnW/cveVMPrB35IVKF+CVy8FrqNhfalewExbaccMp/Lq6QJ3++Bv4OWzyHihxhDuhLLAKRC9oGBqqCTHt1c4UtU3/lbyKVz/uP4s83h6fr78qrP83v+Mox9dfgLir/8B);lineShape=1;" parent="50" vertex="1">
                    <mxGeometry x="18.629292145754448" y="39.412897141680304" width="4.3682385834520225" height="5.9906610307403385" as="geometry"/>
                </mxCell>
                <mxCell id="62" value="" style="shape=stencil(7ZzJkh3HDUW/prcVOQ9rWf4PRYgyGaZJBUV5+Hsj3a56XRevTpFeeaEILSgS91UOSAw3gXzJP/z2/qdf372k8NvXL5//+u4fH37++v4l/+klpQ+f3r/78uGr/ekl//iSf/jl85d3f/ny+fdPP7/+/68/Lcn1p799/vv6hX++4sJmiPVf+NfrX8yxtfafv/nzq/zHD5/eyMctiHzfZiL5WlS+xGv5tMV4lm/bmCQ/gsrncS2ftyLjqdsA+bLFqvIlkPzMZ3n7G5CvWw8qn2G+basin3H8fctJ5TPs79hCP8vbCheS1/VP+xefys+ttrN83DrMN5qCZgUkUriwDdmxsLUMgOiWNOxK/hxgOnpe0zFRpw3QBTB40scevQFEmkPZwnkOg4+ZAdr5nI3G575uSYZkB6cjYEYFBJp0U9UYZUv0ha62a2SedN+PygFIW60AGFsVQNwaDWluWfYh4E6b/ZWN6xPPswH6eZX62CYc0GWBz6vUzWLTkJIuqwECDSmpzettizSkvLWzEe51izQks4nyhbIv9BVgyiqZasDGmR1uMum0NVANM8Ril3rcDc8V4L+K8AYQ4MSZ6S7yBbOF9AWz3ecT18wu0bI69W6HOX8OmGr5DBDJm8/dqBwAc0iwDzlsUYZkdon8edj/+Q2ArHeO7guVI4bjyB+AsnXYh2wHKCqAVskA7awajbU1Z1W+Zi6GAb0rIBDAztfZi7a4n8ErwBRA2O35c0Dd6nnSdW6d9qHpshoggLYaQCKBOva9fw6wE3fW1tp50mM3jAeg8cYN3elaMTjJU91uLdtgwHAAOg8lbOV8puuhXVeAedalmvag+jnAPNBZW2vEM10swJI5BEwCDNCHAiIc0ZJ10mVi2F2KxsVl7BHUFUB2unQMpEvVE1fY7RazcwKw1Ie+0DR0KKx85YghD0DZ9/45YGh2WNhPr0WUOWQMsGybJDgxQKQv2HkQQNpT0ucJWdDY2/SXJr10cyigwIkz7R+iSwFzJjtfkqHYKe9gW+0Ex6wACrAMIKu0LBWlrUXz+mULQZfMzklkvKwtDant+3oA2h5nXgEk4ch8Hsy4d1mlio7d3IdkKAYgM1MPo3IACiYc5jOTADJG9y3qeTAATdr8vhAaFn10AmQ1Mwag6N6CHQlD8+EArgBTJh1wpy1gm0MBdIBa0wzFAtNOgMNWvwGQmbE4WHTJgusC1ttC83o2AhbvDzjTFvwLc2UA8tOWXqTzKlkKQi6rJ/VxlhVRpmiAERVA5JIlYZJwWKJGcWt3iZ8BKAeyRFLyaUs2O62SI+AMkGCnLbfNskoJXZYBRL0XyUlD6pqLWg5PfroPTQcMEGkfhqYDKfAcHK9hgAgHaLEY50nHufMQz3nEsB+XAzB2e/4cENXHGSCBthpAgsTYcdIj6YkzAGXsI6vLig0jYwNIRBYrRvejaIayeDlapbrb6gNQdvLlCiCqsbhFWtamPi5m9HHDnQcDUIYyuibgkROOMTSEi5FJ7KmWzwCJAULmRCaZZ9AcaKJpnVEP3NzTg+fyZrvP+zzQ7Jm8aB4TOdMSpnMU0DGKnkXH03i+ZQ83H/KF5ltdiojWwuSFJqpIFc+2x8tHjI4hyWz6+wWJgOm46yNqupLvEm+jOZ1DnX/m35979H4YeKRK1q2fOARM9Exews6Efvxxi/dG/mZ/9fcp4Vm3cul75lt2e/CN8ln1+UY+KUufMAox+1CjyrP90ejxzsDl79mvZXKdPLnK7kJHdt7OB9z+fv2e/VrXZbr+gebr7lUjXtuYvPB4TIENZx8i2sNn8ol9qhsPcal+vgFvCvx6hj2o/cb9CsgOeH0IaM+9vgUk/U2fS1B5ihWn2v+AZQLzmN4befKncc/q38izPYkqX8l+JiVPAvuv/GS+9PtFL7MCnvdZ1V8EJB1WFUcTeYopzb9U1U/S/+W/9PeJ+ZmOW7rZ36HET8Soe7qLhIg8kcnL9UzmeG9q/FZ4/HMf7iO+GrT+U7O3jnf9S/583o8FuJKXyyIL0CklXoDzAlkKQAzodCnxTRoznUu1zIps0JxKv1uyRzUaCyDJXsO8ZwEk7+lYrbQA35WlT1fvkwI6vukM6Srx4kkrICO9sgBZATf7UB3gTjWmAohYXsrnvnBzfEJzANqHofZ9DYkB3S0rsbjeIq1l5S80N4fANsyrBt0YrzlUBdzMQbzISmtuzF5UAOYpzo6twJQNnzj++y8URzfezEFTlZtVmi4W5+qDBXCqgTs9XTaXOb30bPqNtjpTeXcepjrouxPnamXuzvTQmqU7qzH00u7OLg2tQ1zLehNluCGhbf0fAFWc4sSr/gVwtC8VIC+AY3GRyvEALkF+MqSK17MGULd7wxYNzaYi33rPZwwoxks+/uRiswU4D4lLWk1eEhIuBDP54Ag+DrinEnCUcC55uaVkArd7QgcTvKbjiWwjq57+m/CzKsEX2X4Vp6RYvjuzu9Dk6DZpgpFYQ12CeuMHXQJ8Q/C5BJsJMp/AJ0xIPEHABOgfhNcfhNf/OeGVlXDB33fZbMCiJ09Ah50R+kaCO/CFkCPQ7wksJfgq2St3AXArP5UAQnl3gcH6MN216w0h2DXxuFmfrlWeN/JDL6gCX1BNf15uUuSp/ovsbQyusyLxDeTcs9VHAIGMoIu+b2M4MUCFx9N3f/4IgG4UQgvh+ca4qUI0DuCcgna8QTJ5qY3uHAAVLXLkco7V96aMIHJdWW90JwdwyQXpN5Ry1Ihp1QTQDgRXCBF5ykFtUOTS1OGYq5j2qvsrLzAEkLm+ZLgqHM5yh6uxX7kPOVZXxR/5Kn64zhxLxwqFTq4TwRI+jA2cbX/0rl0BlFzuGO2O7IbU8XQO14NlaTH67+Tyh4kFvKvzrSgAK4mi48Y4pRyuEyEFbKlaRWau7o1uKbrnWRNOug/HFTM31l0F/HI7VFnnauxTxkCquyr+xCXCBtCyzoLnoVclDxKX/ffi6LqKwUjPrvqCs3sDKG3a0Bv25NKzjvloj3riUseEugcNeMwBYRHyVIdlACxz9uTyxKKrRzPewWnwLWXre5HJGwA56dbUA+XI7equbTgzj9CKq4DnRsyWNRFZ3XFUeZ20lG3V2MNON9e/lAvvQ9AC3tUnQC0kUy8qDEDZZh1q7nPDdKp61eBa1tX55vo1iEGs7mWCPPD+p1YNcDPfJVbfJzDRkBlAQ/qAVXDVNSYXzuINIElGiRgvrVa5rAAyMzXqThe+/zGAfiFxs1DQUr7Cly2rQ8oB6Na4TL13KAV9nAGEHLxvPBM2pVT008XVL5aG/FFx/JEB8OEQ95yB/QTF3jZiKZkvnAEZIEkf2UT1LsWp98Q7rLWvUtURkJUuzhibOhLNv3RTAMwbF9e/ZAAKEktUoqceXShXACl9WXaE5hBc2zCb+zy1Y7Ae7P8VQE6cWVvslR7a1VJZ+Vb3nuw09y896ZWe2PuzurHPRqAFPHGr31tKwiMG66ujfCiA1Ds7h9I4PTaABOuNX9PJjqRY3XH0dkDWa4712ADEGtn1YFnIRZFAThpgrQcTCBC112E9yUBDiu4LHRO/FXQOBZBtNYBYvjbQ3K92P9GlibY1ufo0A0x6BGVoBULn0CG5C0tLQUiX1oWpvGnCfWSL0OsKoITDAFqUl7FN8pHmHYCCZaaWSEpf5Uo2aUhF6y57Q9uafKNK58dokuZxfWDp5YMyOADsdpNrxOw3uhQ0mhkB0+PoiJARMSKLTr0Hl1ItNum8rCPze1FdrcbgpGkxYjIkbtGJTQnaxfzRHKp6oNHxERQDyFMx61aN9sF1xY+BpjJ6EptZ6eheflmPldEckj70NbkA80EpH4Cbm5aoWda8Ub6gYei6vKPaBWWL5k3xspJFk2s7hmZMs3D7rBY5mXyn5nD3Il3Fq5OmpS+zIitT1d+uy0F8o1B7ERvHSW78HWsRsh6bdZdFns29CTiw+Slq2PaoDL2QF0PxqD5/Ku+elFqXjzCeoHHnkof9Cv5mibsP3JMkk7tHg+aqj9vTC3k9MBPv0oImC5OfUwiaUT3qNa/ko8qTVXRXvY+C6iv5pPJEhgX3KOa4UQhxZet2HH8/JZUn53ovb394vPj6y4ePH18fjH377/pCrP3V6+uy+cd/Aw==);lineShape=1;" parent="1" vertex="1">
                    <mxGeometry x="72.46628176819715" y="221.95447131844463" width="39.0772834883213" height="24.401880736062825" as="geometry"/>
                </mxCell>
                <mxCell id="63" value="" style="shape=stencil(7VvLbh03DP0abwVJ1HOdpv8RIE5jNI0Dx339fakakkeHd84giwJdeHd9Tc5IInlIHureybvvnz98u7+L/vvz0+Ov938+fHz+fCc/3cX48PXz/dPDs366k/d38u7T49P9L0+Pv3/9+PL3tw9Dcnz67fGP8YS/XvSa630oRf/3yxcSXYv/fvPzi/yXh68H+epa2uWLk3AuX1wNm3zyrnkm7/MuL06IfHYC8nmu8KZ8crXu8s3FzuRFNvnsXSXrEdfKLq8rJM8XV0C+OU/OU1ze5YueZ6PP38+/6ArpeuruD6W6mNn5+P18anCB+E9yye/yyfXK5Ptu39pcE+YPZV9/iy6T9Rv/bOo/RL66vp9/a64Sf+vT+lO+6/mUc/mwzLkUIj2gkFyMu0J2nlgglBsKhWwhNJeMAvOh6F1pRoHsIUaz6ewS8Wo1c9zdoicKW2q3vMd9F9dJHKvhWkc7VOIYEhAZ1dKRIYWG5r6k1ikUSUYsapVjRZmesxTUWYgdpLkM0eBnfrit0E14VureKbgM8c+PNan378damgtk0ynNUz8gnrAlqS/tzqcQnNiSigugIBNFzhTAvTXpdAJiqSJqjF2xJRn3HpZhS6poB/WuTiJOFSIk/ug8S5zG+bTWyGzTZRYGSyHPZH2mUEEhusJyjyoIKgS26TJzwVIIfEkakAkVEgGBYWmPCoErQEKPvABQBQhRVaB7aGZJqsACqM30cVwSV4Akqpv2zL0VGAUVhFV53SWjwMo2VYAAGq7BAqhPVzsosEIjh/m8g3szS+eIQKYBFFjpozgHIBBons4Ji0kFAWbpvNL4AWYaOaVcMU9rOc/Kf4VeKB1eI+R2/ead35ekBXomIFA0IHc76LklsukSETX0GDorKdPMykuh0hKulAmMx6KevUFPCXKc1hrEDtXP6mgtqVO4r4JvyNqZETvUPMv+w7F69oaCncCIQRLTWllk0+olEg+14bFq79nZGzoin1ZQgStUCKAwi+szhb67tzYgiYSoKjSbslh/0qczT4VQaYjqKUGBFYR3QG3WkEvBO2GWrjMgV803m/Yzz+i7fHKFyyN2u0DCbcjDEbnKjFZcEZCP3LPrbmRPu59aES84glVTM3haHKo8rH9h5pl8x/XT0G8zFx/kWdQYjPe0CquGo/KzIT0LgYjrYS3GCJnd38JV1GeUz+Q8W8DzzzThtIj77TOx35ZPEzfXehZrdVthodpS4NlA+0wsnLPLTKEjLafAyHyie+wWBvQSo2k3DkZTcGdEpPb7DZhIoXvoGQs2zTesgel1to0HBbqkikChbR7r2nrDklAVCnENVQB6cSiwN3Sz6cT5rY6NpG6aWrpjm5c416MK4BraljGCayh0VMgkyY4lwRsqd76OTVhaGHumAJCUKo04NRyeUqPESjcgfKVQp6sdl8R8qSLMjE0zO1QkVsaxMtdY3NHRcOyUVMFYmqUqVRB4gzof3zQGUJ6M95kdvIm4yhWyiTgaoqZ7vgKBPsuzI8zwAMKhjQLZRcQJKjCWPvhVUhwsx4iS8YqICtRd7SbqFc78oIJgGh0K7JjCDbxn3I1mRcwogU6Tmh3nVVoLa2aHYn7QeiRGW8YuTDsY5q5NsPUcZA+rHSJ29CFT/25+0uaHhqQT6BsjpH1Ji9w8K4ihCUuUTHprSN4akv9zQ1IN2XnR8ZuCipMWGpBg3079uS3y6kBBsAMdHZUhOTIDoYjXCuIFzEWc8VzBnHmDdjx0SQHTjXY8FObCnLcckgEbO1lcHOXUhZ8ClxpmNXMamPumc75CIugLB+HLXDUZanTZ/rZCxH6kCJ21VY9gUfKsKs/IVzhWVWDhUAoWnYUz/8VuWjiBHLFF0m8i2fQ4RNi0pwSy/lt2iMmVznhyNyR4piCmz4NpXuYDxmx8STseOoxIOM3TKpW1SGOgYsovlshzwEsDwjueMasAJBZK3aSO3jqwlU+GcTjHi//bU1U+t32bqr5NVU8U/uOp6liSmaqyy0xDwUxVGUk39rBv+mKqmkwfOa5WMNfoeBEo8Xo4mfpQ+0hGcA3XgNa205HNuBS5O5+CJxvD2hsrmgAYhaYgAMNqzXosZaWMXE/pdBye1gWv1eUJbQtTRIKrrjnrbYWABIBWgayQFkOWNl5VavrA64ydskljgA+ld6SltJgLpZ1P22Qh6VIodG47rv3AGyq/q5exmhlsKHuDzAheCp3Gg72geCCkbhNWbXIWh1cwAjdkc/GTrylEjFHdNSvvg0ff6JWTQ4hL494nu/hgxlBC04PdsadzLnNNonGuKiJL34RfEsXnj76XXb3FErfyeY/Hq9I1XMjD+RTOn3vs914vlpzJQ+fjadvt0aVzpbSBaSdHQU3O02PcjxtN9PnI8Pbp4Sf2SoZ+ZTEcEbg0a7IkGA3rxxO/mEJhwf2J/wPFIHzqlExzwc8/IykvgbL4BW/wCK+BC/qzyjPGw1y1V3lKu6J/ygVNONHgKM9uvpjLbJ4T0+YGrK6fzfHN7TpPE6VhpcXzMQ3G+7Avm/ghnrxeWT+Th/OMFP9/9KdE1/L64fV3S58evnx5+dnT8f/4Oyf96uU3UvL+Hw==);lineShape=1;" parent="1" vertex="1">
                    <mxGeometry x="88.41287620462052" y="237.62405195130538" width="6.4763163655910985" height="5.155836175850254" as="geometry"/>
                </mxCell>
                <mxCell id="64" value="" style="shape=stencil(lVhJcttADHyNrqjZl7Pj/MNVlmNVHMslK9vv04xqKAKkOvGNEgHOAGj0NGYX796fH972u+Dez6fj1/3Pw+P5eRc/7UI4vD7vT4cznnbxfhfvno6n/ZfT8fvr4+X328NkOT19O/6YvvDr4tel9skpuN+XP6pE9/ePzxfzl8Prwjx4aU7Zey+13naIUYpewDcJ6bZD8pKqcghRcr/tkJ2koByik9iIQ5eiY4hNPFmhVGl6hVQkkRhqklyUQ87iSJaak6JXKFEqiaFliVnXLYjLxKFJMg5dQrnt0J00HQPWTGSF7m2W8IlEYsDrbhwSrXSbyzQ71AHHbQc/sj6DzzlxxKMEqRobHYsGAqYsPtkgOok64XtllSaCjRQk6KhbGonbbrkmzutSzwDedgCYdAwVWSL4jsmir3jpBExYwetSZ97UiCHoFRLQRwqHLDWdpVglR14HvQJow5M65CRBQwPExByQE7OCr6OU2w6roH2gPVqzNNPUUoh96+I09pxUAgwgM1djz06HHiRFY89ICa2ytvfEvki0+/eMYdAJ9vuZ4LrPlDgXgO+/WwbzNP+Tvd5PkMji7eP11b4TTE9cpe0jp+xiz9pIiWLiZ00UibIp8GDso3TSMcBbsfuppF7As4/GPpL94wBx3eSTiZeGdkrG3pP8w77p/UDM8AOtWDx3lk+0RzD2idXLDxGx6BeGN6Tb7ofWN4/yLL7P7EHJq/0z+ybdG/vG8NNHORf5J/hfqIFFgdmG+ji1FgDiDZktoNkJ8FF7SDIrV2jAkxAwahwlZw7oSF0ByHemVqBbLcUlyqG5rXrYjapvO0QroOJ8lN866U3Q0BJMNkLdBx001mS8ju913Qc4+ytzqHZAKH20xnbQ3gK1FtoKuVjp2wAlclZC+TrNFWCnQOqAqcg0J+iesUVdsTXOE0ZHk3w32trxAWE+rhczS2PwbrZ/sMlKtgTFVXQMmLsKGwWdzVJJ9EzAazNGYcSglW52AgG66EABFWKUb+fa2o2czA6esgZeZ71CyANd29cKEBaGh/kEAtoyQ79P9Gj240rgSpSFVGE1j0OJka87q/QbndBWp06jkJjnkqs5Y1RnRUWlCPVWg/MhJYybj6s5a/poFVTh1GuhWUaDbjfLGEf+z7zaix9shvHP+m6MTicfu0r7pzkerrd2T4eXl8ul3/K9veXDX5cbwnj/Bw==);lineShape=1;" parent="1" vertex="1">
                    <mxGeometry x="95.64014836805282" y="235.86861960879702" width="1.2857981377498693" height="3.965030487661276" as="geometry"/>
                </mxCell>
                <mxCell id="65" value="" style="shape=stencil(lVjZbttADPwavxLc5Z7PafofAeLURt04cJwef1+qxsomJU+RN0fhaHkOZ7WRh/fd09t2E/n9fDp+3/7aP593G/myiXH/utue9mf9tZHHjTy8HE/bb6fjx+vz5e+3p8ly+vXj+HN6w+8LLlPKEyjyn8uDSq3/e/D1Yn7Yv96Yh0rT/27sQyTJ9wH6vlosoFGs9wGSqIsBRCEGJ6S4AHQK7T4gM9VqAFIogqBzpWxPSEKN7wOKUEgGkCNxAQDNunWpMAkA1EDRprU0yiDoGqnaGGqhlCBALKAJpQAA7F1qnQScoEFzM4CeKIATprR2C9DuAq2hhWu2W3uH7Z0DBRt0YCYGpU6ZOHifCgIwdTtxPVIDpZZG3Z7Q6jhzHdB9EFWjBr2hLlVHAhGPnIxem7tPn4BSJ50g2985jX5cL0Qc7T+PXB61XAe0MfPzUNfRLevNlDwLKG1E4JKOnLAFRNgatVKyLoU8zlwFtERsXepUQGd0Tbr1SHsLVEHHy5E3UwL+9OxzyoPX1u2VRr09SpBOSvL+I5bsjZI4ewGDoMPuGIlh003kYP0JcFXdcMMVgAZtOsCtKkqgR9VebMF0FaIC6A4Izh4WuI7jr/YwQYXEbU5qqADZF0CooPwk30AyDrw7AMnlsyN/ZOyXqz3aUH1O97W+FZCQ2rt66T7B9m4XMBXkf6KWnD2iLM1/XwwY8kcXix8waN98PtUfPJDs7TOq78x/13wynq9enX3B7/fSEQpBtc/R2aPV/Vl7FUyO4IIuHeCQSjJPQBUCVPR1O/E6YhmUWFVdsS0nDHOqe1VsT6uAQbpRN7dr6lQGTa4DktcGOcOxUcHveF2djEijNb9YVRAhsTzpG6egOoxBT2ALaAVLrj46Z9YGPIZ7PegylO4MyIOd1gvHPmgVpgXpdxnLbo5B84YkV/H6XfsXzZsCiqtDgQqq5MGHc6U7Djp4BtAnaOXolSI6JasxoDtIWLR3HjerezcKvwQbvBap0C1u62PdMslKe0LM+BIvXphOSgoQWZivijfSVwBzB0+USnwMksS+uQOWdrzwh2HE7BebbgrQRgsd2KHu0rd7c3Sh40Hp89jAqz57pmiQ7ILXgBXySvQTVqGkWyioCjf+glKwud7h2DuDhvdzH7v+a64/rt/VXvaHw+Wz3O3//Xc4fXT5hiePfwE=);lineShape=1;" parent="1" vertex="1">
                    <mxGeometry x="97.9445063685514" y="234.50609896249807" width="2.052655108569146" height="3.7579167166167813" as="geometry"/>
                </mxCell>
                <mxCell id="66" value="" style="shape=stencil(lVfLctswDPwaXzEkQYLEOU3/IzNxak9dO+O4r78vVI1sEbI245ssL4THLgByw08fu5f37SaFj8v59H37e/962W34yyal/XG3Pe8v9rTh5w0/vZ3O22/n08/j6/j7/WVADk8/Tr+GL/wZ7SLFMBil8Hd8oYmK/n/zdcQf9scZvlIsHb4JSVrHx0xVeoMADVIgTp1BFQoVGFQKfUjVPPC6AWfS3kAylbJukJlCH1KppHHdoERKfVULDqmo9zD4bOsGIlRiZ8CFGPHGlHseUqMQgIGStt4gTFTeNTAhcJ90ZOK8bqDiPQQqIGetVMThI2BBm2chUMD4lhyeEV6Ji8MrKJDha4+PpIABw2vtOaYARKQLxjIlVH+LR3uVQgkZPvf1McZRvm1K79qYFDA+qcNnVP9K4hqfGAwKXQwKmQbBmj6d3oQiqo9QcmOCIornOtdufEF9mvv++4kaxnOvh0gV6U2o+X6B368T/Td8ApPd8KoOjyaQ6UF8P8J66kTPDV9x/0p29Sm4f9XXX0B/xXDN79bADTdk6wkr01pYwy8EChtMp51yw7dP8PoAvjXfANEoQQaRGvcVtdME2mKFUp+xLXM0E8VCcj0WKQMPYppxm1jhFijXJpwdDgJgOecFa/YG9AEL5V6nNcLFaptdeg+1wgPOsIj6HJqtblDWKP6Q1swDkqofdco456mEV7ziDKhUj2/gLJF8PLNmvZ/xPQdAR8tzNU4gTLqf4dEyCP7sYdOSQfzB7w6bxhkM08XoGrYh0NwSX0geiieTAMKW+eJZGqavzfARKfrBe9DneHu4Xbre9ofDeGeb/+8vafZqvODx8z8=);lineShape=1;" parent="1" vertex="1">
                    <mxGeometry x="102.26426123393549" y="233.76854343595073" width="3.470730024533433" height="1.8372322684131177" as="geometry"/>
                </mxCell>
                <mxCell id="67" value="" style="shape=stencil(lVddb9swDPw1fiVEUZ/PXfc/CjRdgmVJkWZb++/HwJBnUfUFfXOcoyWSdydqkoe3/dPrbvLu7Xo5/9z9PTxf95N8m7w/nPa7y+GqT5M8TvLwcr7sflzOv0/P8+/Xpxvy9vTr/Of2hfc5TiiHW5B3H/OLSn5+8X2GHw+nFZwjZTb4WLbxPlN1Bh/8Nl4SuX4/hXLexodIod9PplK38TFQLR0+UZRtfAqUY4fXD4D6ZKHoO7ynwtv4wuRzh2dyDuCz/b6D+Kr4ZPafQD1rpdrXk5kyaBi7ZQNLxo5CAksUm7K4VuTPA7THfc+Cx0l7kr5pUUhA1kVJWXtWBBJAI22DCciBGOigLGVfdBCh0DQgGqEl2IgijZhLQCEH+qABRmrafEYr8KDlShlVyVGSnkwO0zXX1qf1EmBPWcmUbNYV7Clr50wS2DFyan+vGhHRlrRPPV211Q54jG7JmQCBpqoB2VRJGQ9cRquUTZUYCkL7UE2AowI0evOxMAQg4/PNJFZbgoKQQRCeGK0QBmqoCyB+q0ZNDqGdjpsBg0bviJpN43Jbcytpq4dyr6wyaDRhUbtkAyoiXx3oXakgLpWhSjpjYHqnaJP2WNPO2z5AE0iDgCIcA74coNbn+yplZStyY22cGUw8dA3lUu3NNariUEC2x6jUNhxsnYrJnOxKPnTuctPX4veqQTTNFOLeW++y23oALKoeyqVnEjuKQG9Jx9s+ZfZQPjFSGVIWsIIOrMZZdaQuIEAnYmMBnJqbfz5yF3ucsOoDePc402tAAvIZ7gxcIFV9S3D1/QpowU28KzwS23D2aIUqaJqzPq94Bt9XLZsex8bbDbyZiJUTiKYjXohBfcb9qFUABx7zZWJ0yRvq6SCnh35VeGwOdKhwFvniDfUuXB/+X4ZfDsfjfJde/28vz/pqvnjL4z8=);lineShape=1;" parent="1" vertex="1">
                    <mxGeometry x="104.36191545373094" y="233.1525244985922" width="2.3042264507295918" height="1.972905305024862" as="geometry"/>
                </mxCell>
                <mxCell id="68" value="" style="shape=stencil(7VlJbhRBEHzNXFO1L2eWf1jC4BHGRsZsvyeaoZrOrO4YIXHgwG0YKlyVW2Rkzim++HR38/H2FNyn56fH97dfz2+e707x5SmE88Pd7dP5GZ9O8dUpvnj7+HT77unx88Oby78/3iwnl08fHr8sf+HbBZfEhQUU3PfLF/imt5/fvL6cvz8/bM5X8U6dj0FKPz7vnQQNSE5aJIAgOWtAkewJIEtICpCjxEoATby+oTip5IbgpBcNaOKIk0KUHBWg4pHkSSFL8wrQvHTiVsShaaMbrGI2dEka0INUckP0w4kroEgnNgCQmgbU4YZDgHkS3MqfFKoFFHaDGy9eAZ16CQCTfACw5APAFQtojsYhOwtgbg1Nuq5Q73Apu6JJnIzoDIBkChZQCgXY3OgSWfZVcTq/EbnGrC5Sp1D/suoI0LoGoAhZjZbhk00FZW60n2q0caODflLlxARA0nEoKz0fAbJ+Uk5SmNEAaLemzKmvStFPipXfgBLWyYcS8YkCqqYNsGe5UkHarb6O2B/VaNE846N4xmRBnEk+mnsxStd0XzjLFImmiUoifz8F8dpiTgCp2xi4Efbd8zlYIg60OHO25V9GC94/X213gyrwJK/Rj512KJo8a7glTDIG1E9cWuJQLSug0lZSsu09MY3y3gcU26GTH2HcBzRJ+kmJ98/qBl+t1R+kk7wD/Tidd7lSG6BaigGguxGOBCNWI60gI8gNLQ822QKIDRAh1mjYQCLdp14FAFMZaDS+WQALXJ86NACZ1MNvTbEC2pDVR4DWLIC1no1E2ESOsepyxSSKWeQASFOor/jV3uBpyfVmZw0AWFEj1MEkUxhEcpRMacq+xiKXbbMCILF0BW0U61amD3uyknUhQ2Y0AGb86bwg8mh+m2RKhFwBKDpwC6Fzt0ZvAZHQRl8rcltyzK11p+Q8z6Uy3ZB4PcQ0Gc3roU41yvTkIsrNk9Y7DwFGZjhuNEreWwBr7AAY4bOkNwO0EddtAf1NABpEM0YXqlibs/UAQGFdMdtBoGRKlXVloRUQuTppdjZZIs0AZepZidIM5oSg6yHxyRjEmMxaJgymOpJkhipjlkw03JL9+gaoaEduyCBjHWnI0M5uSHbxg0GARRryyHgJg0BiN7jBpBvhGohbU5lSg058cHrUNmc+yjRr8jo97Z9P0/IgUamOUcZQhm98ARLsNBb4zBr96H+bATH+0Zroygi6AIyQ5kMuAFZT8jEaADNRXhnUAaj6hiurAAAM1y/LBnZDsGKpNVoM//d7Rov/3+/90/u9LMkEYt267AOmltigi5kNExe3yFfqCJPO71rGI/ensjqNTJ3qYpC1mb+XgYYBvKVvMFklbm12M5Mq9eo0fS+7KUYaNpHQkdg2cN0Vrt2kDDI/OG/yDucZEU9jMfKKcZizO1+cZ9OYs1MD0pCxsBt1uDnP+rO3Ah0eZiOxH4uIzfnK6tKm9HKeUcve32er0mlPF6nGi5MmTHQXE6dlchqMvy/A/vDnz+vn8eH3b61vz/f3l59qt/9vf5vFV5ffdeOrHw==);lineShape=1;" parent="1" vertex="1">
                    <mxGeometry x="108.88735726867557" y="230.48042277560603" width="3.4965430672051148" height="3.5946376163846785" as="geometry"/>
                </mxCell>
                <mxCell id="69" value="" style="shape=stencil(lVjZctswDPwav2JIgOdzmv5HZuLUnqZ2xnGvvy9Ul4oIStvkzYdWuBYLgju5ez08vOx37F6vl/PX/c/j4/Wwk0875uPpsL8cr/ppJ/c7uXs6X/ZfLufvp8fb95eH6cnp07fzj+kNv244jlR4QrH7/e8XIXF/f/l8AzwfTwuAMLncA5hCAoBExfUAR8wAUKmUDuATZWAhOAq+BzAlgS6F3kIhjuB5T6mPOZMDEbCGnM37PfBHEyLJBiAgYk3ImCIPIvBa1NoXwZNHFhy53iWNOdRtQLYplUAJGEjkpHs+aMhh+3nlae9PdI2IG/64nnUxUwE1qMS9PymSQxnlgROeAmgcn1uFZkBuOVhnBVM0LPWwD5RltY+5RMqI19E2TimNueud5qn2MVRPDKoWCuXepcpUPShztK1TAyRqEnJ9DFULB1zKzjJDAajZcqIUBgugFYpQHGJAhdP3xfSRLNXUemsBKIB8NTciLC0gl7Rw/VyoArNUa5sCCwC0UC1bpyyhoBVQbR0iauk6xJBIgG4rwPcioHlzyCWdG8kCIrKQ2+hbAGDhVNf9AEAWZtlaugTYOvVXsACPgpY2CBZpDUBmFOBNP8QmnpsAYyFQwRaMVCoAtaj+zcYlwTFEYm8BkBqJ2MSgLYoA2Y7oCVAg+cLgEiMu1abVC0AGUjk10FAHlCXv1sQVHa3URDF0Te3ksQUwZyUFZFTqMqixZhqxLw9kyjhNHwXogKimEBUeWHUEVW8BBU3F2mRoPiC+lWYdoaNdrImIJnUY6FfgIhBSk/dF5SoguIylDi1xW7uJmEJwk571E5MegMxBvcBC+GLPAiVAC57t9pMLHO3ZUiPjyT6ot55bUY50lemLEAsJ8Me109c7z92DAOiZEZ27vd0zZNby9RrbeKfNANF02JRwhVUjzfPcMra1WQVTMOi/muc+QQJHGw+zUNcMMP91CTCCivte1zRzhHFwcspwRvLtBev8FDtppW1aWyphxFQrCPzRDaMakYB8DtWqkBa4goQqwAxy3bUjWpJm8V9ceKBVcuoQc6US4SqpLWJUSKuOAMpJI4z/yZKu55IHANo944oFtBmqcJl9YVpfEUDswj0FDZihAGeylKH08nxrtADAGNj2vuYNzcwJYK5hdEMHaqGAXCwAye/b7d0MCM3JrToYwdZXwCwFexOjALTzfPiK8R0A/fB2o/l0fH6+XYgu/7c3oPrT7fZU7v8A);lineShape=1;" parent="1" vertex="1">
                    <mxGeometry x="112.86470800354309" y="228.82660352675185" width="2.644436066304744" height="3.599463166464299" as="geometry"/>
                </mxCell>
                <mxCell id="70" value="" style="shape=stencil(7VrLchw3DPyavaJIgs+z4/yHqyxHqiiSS5bz+PuA2XA0bO70em9JlW7SLHpIgkCjQc5JP3y7//T17hTct9eX51/v/nj4/Hp/0p9OITw83d+9PLzaXyf9eNIPX55f7n55ef7+9Pn8/9dP3bL/9dvz7/0Nf55xSWLpoOD++vdBlRL+efLz2f7x4WlnX6W5yT57yeXY3ntxcQZEiYkAguQwA4qkSAAqJU+A4qQxgE1AZ0CUUimgzk4qVaoSQMJF1zD8dgTws1trlto4IE2A5iRlCgjzlJpK5muIMEIR5WuIFQGJ7XQSBUAVzzbO3LoACptSlOxnQBPPdlqlVQQkDkC3NqlsHwIGn3dOHFuEl9RuQzgp5aZJ2fv0lmU3iW7xKwlXY405p69sXEUO6JFBQqlKAvtCs6GKzi5tUTxhMZst+MeNUDzwT4b8t0hk6ewGn+wYhiZbEAeU5MeTo0BVIG4d1H+UO+DTZBTCGSbNI8QsmeV/Fp3XoJXHdZY2A8zRjU2pYHaGIMpIryCtdpJilJSxHjZRvuY4zyjyzEwYSV4q4yOzz2Af+furB3vH7DMWKscZOGNQuEEdh/5sYM8S02/a4M3esf0yHlG0Z/PZeGpnz/zTJCSwD0ROmX0J6B/y/j48+odJF/tZIaApkfbhC9gzIrWfgUkzXa/ZQwp7LtaCYsDZljtCpT2hZoA9oYAyImyjIU9jVLcQ2PEWS0pVFDoxSSO7oHm8b+PeMOLqIiBalAGgSCGLjop5n8NgjssA8xIAMo3UZFOa3ZobLThJcYTCWwtbIux00RGNFwFW8VQRwEqaTSA2nBJLn5IHm+8XzYRLGCVy1+1EEku1YT7kxKXIwti2045MyQAVpuRHsFwGFKw5BijErSbm4gJg7VFXlwnXENiU2oicHwxvAzQYwUKDTwk6BQMwJjZAWRphpkUMgAm0UduRW6HbyYlGq20cqE4DKGFvA7hlBGX7kFGA9SkxgOkXh4subA32vowAltOm9BsAlEoYG8EFBHi2cZtk3AVfIrxkAKB7A3i2howtYU9RQpW9dV8AV1I0LOc87MjDAG1ZNCu7vcMMCIgcgF7SEY4HTdWm7XYI2ta2hfoiz6CGhyQGoDxTlxESZ+ObAX6p7JUW6rqEqxU5WhUbanoro6zI2c8N6q6NSUbIi+p+K6xHlR1kdDH9Q2LDetm8AFjKmQDzyxpYzYpG34vYYEo3ZqyKtg+MjU3DQS9p2qGR8I6rJNNrOhR4JtWxlUdKF8SGqTq2hn6SBP0wP/gMCQu1Nkrf1vHD4a0GSt+9Y5tHCFcObyoCrEXJZNHW5EJ4e89Pe/JSd8exwPupwen91OB/d2qw3VW82dNDACcZGmie8w7bsEYrWl8e5AvXtQaAfrsfLDLa8nh1oW7kxA+6SCttSCwm6hwTMfOkb0gqVhTpFVJdrvKUNiT9NHVRFpEdv+YhC3bH4JkTFyy6xkEFRwDIzOaunWrjVQS/Kni/Btuk9Ps1GErt/9w1WFqveAnt1dGKb/ZKdUjFA7p+SU39U+awq5ne71SULVVpnbVGaPZP2UT65cYFO84rfUvBqmB8x+Zvih9kXRtnDZcF/HIGGymfOiQ7a+ITiTe33BFyXbcchGf+EcLaj28Zd2Dv5/1Klo8kPh360+z5+6G3TtsR2mWCwPgx+0BqQVi6oUp1ZsBqlgpvtySVxZ5dEyy3BJWKkIh9u9mz+L/1Y6Lr9vbH25dLXx4eH88fPu1/xy+d7NH5Kyn9+Dc=);lineShape=1;" parent="1" vertex="1">
                    <mxGeometry x="116.15637845299793" y="225.59203030487646" width="3.22967477275256" height="4.56053749024295" as="geometry"/>
                </mxCell>
                <mxCell id="71" value="" style="shape=stencil(lZjbbtswDIafJreEJOp43XXvUaDpEixLijQ7vf0oGHIsyv6z3jkOP4sUj9KOnz4OL+/7nTMft+vl+/738fV22PGXnXPH82F/Pd7kacfPO356u1z3366Xn+fX6ff7S5WsTz8uv+oX/kwcE6cKOfN3emEoTS++TuKn43khHii5TjySN9vihVwvbh1F3paXv03pgUTeAiBQ9B0gFjlggC2UbQ/IGwA4T6HfIU5NyXWgUDQd4D3FvA2wp9TbEFzbt3WgUIo9IGuGbUAUCD0QY3PkOlDI9jYk2VYP4mKIoyS+B44Libg3OnvywIZoKIceyJTBtkam0sdSceSBDbInGghkQGgkQ6bfpYK3NTnKCkhQpZQpOA1YAGRLaVDJgYzLYmLuAU8ZARIa3APcPrFeA0SBfgVxHNqluolFAyg0ylwjFoADKVqyLjMViBBIQ/AxAgqx00BAKhVdBAQoIIEEKH3GiWeg0QJkDSRUvEtrBbOnDax81egB8MjTksFOA6iQCWCHFVC/qqFRBgA5LuoyU1VCfojErAFGNgTtuLqtaIWgW5Y4DqoUWkdbhgbydGxFZVlbQREQQPW4Gt4ISE2BZQJhIEcNPEjRMNjAOIFGowPOhzjkdHqQcYPjLLDBmqGjCBFwnRldXTAQxnBFOfppwOoZUeLRgm3KiYJqQTJhARsyk1cZlCmCFeosogBc+lJoGTnPoXfXrBNWT0yyhEfjSWr9YGEEmvqib2Vl0drRLBCt7kHSqRnYEKS6qgCXkEenAa89J+MEnPqMBsQ1BZQBH5vGi0G0AKO91Z064hMEx/a9GTBtNF0HrM5qGdcLcJyckdS47kNrlOuA2NCvIEcO1OVs1CqxadVw65ylxkQ5NiEbhvOAzXA0jq3OzfIMq7ej0BsgFoFIlVzsnWzbjLklrrQnA4Ju+LqBZd606nYXD6D/zyPRXRyNC7I2K3ELTLV6sjWwlFo9HuEqZ5tX/k/c6eTFyrhWbBamojTR86yBEwXruwicIp+8GHkoLg/3O5i34+k0XeEs/9d3NvJquu/h538=);lineShape=1;" parent="1" vertex="1">
                    <mxGeometry x="119.92926066471338" y="222.21518595695915" width="4.133525604795068" height="6.869514157194885" as="geometry"/>
                </mxCell>
                <mxCell id="72" value="" style="shape=stencil(rVddb9swDPw1fiWob+m56/5HgaaLsSwp0nRb/33peVZNpr5gwN4c5yhRxztSHsLdy/7heTd4frmcT993v8bHy34IXwbvx+N+dx4v8jSE+yHcPZ3Ou2/n0+vxcf79/DAhp6cfp5/TCr/nOEeuTEGe3+YXLVCJf958nfGH8bjGO/JVBdREMWwHyA6tqYCSyTkQ0CjpgNyIy3ZAqJSzDmCKbTsgSoBTAUlOlbcDUqXIKiA6qrwdkAtlzVLwlNJ2gHDCXgV4qQOgtUbyQQW4SBXs0IR1vQNTBWcW/F8dfOA9qEIrFLPBM6CoVfLO4tH6lRobfET5N4pa2SJ1xE9b6OsVIAbrO+7n6zUmBqqTDZo+cCQHKtyufJBurc/F4CtwshAadT6ZAspHNF0MHrlMBNSCXR/4XvCms0j+CJ+o2PMyOm+yAo3EFeKD8TAx4ictDl8JCOfftMEc7IvCT7IGjui85RODIQMUalcGRvlU2+OYAjJ8W/5eNSCs52L5QZNp8lc1/N/Ca/1Ix72Rj+Y/3sJ7q8/s/x++Zqo6H9c7xuczplIyBMkboOjC5LQiQoE9V+Zu1SWLGXIkc9f00CRNAog0do/0piIsAdXJ3GXtyhLhHJOqBt12q6MEfOACZX3o5mAjCkvCHd9gGcLSplZ4NLn9km7XBeNR7GyjnqyB7oC2MU7WAOt3n6/wqAT99tbx0mqAiuRiYggty51zA8/B4j1w2tWgl1YcgSLYalRafYb4oCXa5CoH+SnO4j2s1z/e8W/i5eHjg+JpPBzm75H1//YDRF7NHy/h/h0=);lineShape=1;" parent="1" vertex="1">
                    <mxGeometry x="120.69743213222873" y="224.09404265423262" width="2.958915960087173" height="2.102124782284553" as="geometry"/>
                </mxCell>
                <mxCell id="73" value="" style="shape=stencil(lVnZbtwwDPyafSVI3Xru8R8BmjaLpkmRptffl8ZCjjX2zqJvG4eUJXI4HMqn+O7Hw933+1PQH68vz1/vf58/vT6c4vtTCOenh/uX86v/OsUPp/ju8/PL/ZeX559Pny5/f79bLJdf355/LSv8ufhZk1gWr6B/L09UwuXBx4v94/lpYx+ihDjZJ+lG7IvUPNl3sXrdPqqU2d6ShEYcsgSdHPwEiTgkFZvfEKrkQBwyhigmaeQNWaXNW0pBYicORSIEtUslUSomtU8OvkSNxKFIm89QgmTyhmqSwuxQx5NjhyzJJgdfgiWudtH5DTWJpesOLYjBG7JUsqWWpMAbiih7QxOb81CjNILu1scGNodOJKzdEEulSWAOQfqM1pIGWI4d/N8z+HKXQs7QPXGApTRq/NihoENyEiGZ7lUMHDyV3CHPZ4ieOKUOCRxUlB26SJ+35DyW+KFjmnmp8yh5WOdMO5ExLHniwowlM0pkDo3SkFoJursiFVe6vldDntcvvNyydEV7VjzOQAX3Q/ZfG6Ki0xwvtasY0Exo2EuxgINTfyYOXpwzKLz3MGDnKgqwK/QM2ZAkYxjVd9ysEiY59nGq4/7ZRmtai7PyDu21O28p50HM1yQASIYSRUnpeBDbHNaqNHFWdq2kDuo/drDRXodDiwO8x1jCTtK5TLIhilb7TjWGIfLcvhHkeWsFlaRKGVKHYtm8oJMse8AT2leyoTUcG/tI11fYT5PG7RXtIwGdjka/2lcqkBRVpNsHun4CWVuGJLtiD4Bzew4IS2jP+pPtuPHW+i2gfSP4CaJ1Fx+yfsBmtsSf4Cfs8OP5pevbHj+MIrDfL/gkTG2jdW3xTws+VrRn9WWI59sFDHPRwhCkW+roXFsGooAG6ev2SgteDROQ6f7RvkonCd7vp94gFBDWi8Sj5/0/+yI227dKh0BTnOkaHw1cHoLc8vGGNWIXoAn6ahuselwzCftqUbqluGOtHLhDRVp3PcI0XYqokl3pVza9r2W4KqhOB1kXJzD5Ond0Usk+W6NsLFQb+GCcoRmv7HosJsKgqjfhy4S1ixk4c6K9zIU1qkwpbOzNIyDrAaSw9TtKRuOTTUAuihLYoJKGFFhhR7VBX+8+3gYD1jucqRTOG6lGXnrLDGtrfDTrOCJ7yugA2/HIfgbaz3SniLxymCTtu8rxKbyxCbZjj/XiS6QleJhAlXrxFT7nA1148WV2hjzmgNVhHeSPHeJu5r15QVPnsN5g4bZLtZcro4u2u3qoffT2a9dY0dChs8Hd8K7CHYxk2idrUHd+BmOMlEaBbe/u2CyuCA1/wsJaMk5c/oTB+62Vbe692EVZTkOgbZobc1jQD9e6iUoYb25wPRDXe6prsziozuUai0AjRrwHdmqlEqCjzl6aG7vvzzuuN1pxy6QwZ7qN4fyYyCpex0dKrct+A9gHElO3r3BHwyfrgsALVMG4fQbmpky/2GPzzDf2U8GeVZrbtxlDSsWCxx/uTpRi1O0DfjCiKtXVUQR7dvnj9g33Q+PZxBTtGX7+84PXbXv/8fZ17fP58fHycW77f/wa548uX/Lih38=);lineShape=1;" parent="1" vertex="1">
                    <mxGeometry x="169.57495325587718" y="211.38344279802334" width="22.04570215451552" height="13.946317280096642" as="geometry"/>
                </mxCell>
                <mxCell id="74" value="" style="shape=stencil(7VnbThwxDP2afY0SOzc/0/Y/kICyKgUE9Pb3dbrKMHFmzlKpL5V4Wwafia/HjufAF8+3l4/XB/LPL08PX65/HK9ebg/84UB0vL+9fjq+6K8Dfzzwxc3D0/Xnp4dv91envx8vm2T79fXhe3vDzxMuuFAaiPyv0wP2rsY/Tz6d5O+O9yv55BIP8lRdqvvy4qKM8tnVtC8folWIovMMAMV5AyAXgQVBJhO8E9oHELs4AvRMASqpiTwarVYVdIK4nEaAxiXvAzi4OqqkGgUgz1aj6AgoxNmFOsh75z2Qr6760QDnQQxYXBmDlpyALFL5lAd5fVCgvNFfIxARoLocbVJU5NHqgklsfYJcWqyLWGsJnVBcHJMiUvfaHiCMSZF8f7IXZTFR0OLEaVFHt2Z2HsVNAaOXsjoaJbaqNAa6sMso87T8Ry8VXJzNSyOgBmx06XFdAMkxCly2FCZKMMgGNXE8QVJXcpcvxmyVJVm2AcURW0BFFEZTwVXIGEHjWiwAndA41Jwg3W97AK4TACRfyL2CVwAPAqcAEmtDRiql3stWAKiSljzZOCAiC0uqLYClBvcANtKajqgdpsno5CLIVgWYli7a3TCgkgUg1mhxMG5lOGQooGQLIJx8zBaAGpZ2AyoWgHipDQ2TDSIAUHuYVl5CycdxqofkPDhB24chMgUwIGNtHylYQAJuTdKnlhUA0X0udi5RQAFxKKmHaQWoIA5K7jLZgAbQOo0yDYAm3GqHt2YDAkjP/vUJINIKiCb5cE3LNF4pIGGAGBuWvrpdQH4ZCFeIDMi1HWECUeGMq4BcLSBjI9gYIXBq1fdJtABCNuhdx08ApFKdQi2wRtWJhazRaOiTaUpUAIMaVYDtKHomVmkGIHLdUCnDBrFhtHYAlBqzW1MP5VsDl7DRc2okOCVuJF+G99aN9F6ujW8toAxpY7tGIzZipgF0L9sgmtqng7dSWe1XhLeSpWDamOlY+jjxbwAbHULguL7Rg/DkutHlBE7fG31UAeCEjU4tZ2eByegIAG3amIxOINJtniELKOCEtvOYvHRmkWMGoFWJvF9S3i8pFvCfXVL0Dm5pg+BwrLd8GweCqw2as5X6+nW7qP0ECI7QLoT6tWrZtgheJbKl75rwTortEuvcAoh7D1yvmBAg2p5V+Bz1mY1RXprSHoBGt7ZFHNqrTYCk6XjmBLN9FLyijdOKmeCFQAHmdsnKIyjSsbPQsnI9s+qbAR6vjaOL09oYdfbZBulr4W351Oev1z08o/dPc2uESzXWoJqCdgnr70dOCoxXld6OMspSBFyqIUrJxgBVW1ucmMV6xKuZMG3iE7zsKk2a3aYq6YFK2hvMlEsVrlsDWwLQOAgc1fuaZKmFAO+JxU72ypto50D9trOqNfQ9hHolruQRISmD5kke6B8sWbSPIUB/by8mjStAyHx/2yIf+xt25GmSR9Ot79FZ5Bl+gJtuYu2LHKgz3++Oq/gif/rpM+4yfu/IGx7SfEMdytvZReURMf7tZ+Xz8vrj9Rv2zfHu7vQJfP1/+81bH52+l/PH3w==);lineShape=1;" parent="1" vertex="1">
                    <mxGeometry x="62.3479184856503" y="281.1568980629906" width="10.305649141569992" height="8.054306167360059" as="geometry"/>
                </mxCell>
                <mxCell id="75" value="" style="shape=stencil(lVjLctswDPwaXzHgmzyn6X9kJk7tqWtnHPf19wVHpWJA0Tq+yRaWJIDFAtQmPLztnl63G89vl/Pp+/b3/vmy24QvG+/3x932vL/I0yY8bsLDy+m8/XY+/Tw+T79fn7plf/px+tVX+DPhmHLqIM9/pz+yIzf983WyP+yPV/aBmrZPiXxet88Us7Z3VOO6faNclH2slP26vQtUqgYkisABV6k2DfDkyzrAR2p6h9CIASA4ak4DChUU00bJW4AHTsdCKVsAu3WAJKmYHTK1ANIWKNUFAOxQeKT1s4DZxWsAcLr6QYTPAuR1ucfpxhSM04kYkTUQswZ4CggwrzcAUiAOcKllyppLTioE+VBtgTrIjNbI6w14+LRmH4tZP6DzNCo6RJEq0Auxr2Z9hrUgAFOeLlNFAsBssyZnYoDoWxhuS1ArdsLwopDDgGREyVFBRGoUdJpjhDosAG4WEBskkilo0cmAAbY+K3lEpWqp1KsH5aGOA8yJw1rfd9B5EPWHZKojJjPAUcQA0z9FaVE91wW9IVklbU4HlW8xz0gYY7loi6SNhr3KbG1fYfPspWPkKFICxP6oOh1lXApG5uVMFUte1WcSmQ9Y8+xQwhRxVP+/ngFhLHEHAOUhD5rNc5vIJCJGIqdHBmnxjJgdhibOgIwlSWKiO0lukEvL/lykl4AoLSeADgBOL2eMDgAatpxiCq7/5ZzUAaCgl5OYANJds54AEJeW06QA2o151QA8FA3RONaZLpEcAIjq2h3KiNvaVG9lxo3+tXJtMFGtkQqab4cIzfYVHijaYmh+CPmH9jwG/vcpBs9VbHnUBye4QdQO99YFaDSrw2yfiUGAeNwCrxxGdxjxLtuAFlD8bCkkCfMgwYuuUNqYjNfstaCW+Rq35q9ZXxontPfaXtSxwfgEfZ4cofyyHUSyh1eRe+/xt+3l4f2jwcv+cJi+OVy/tx8Z5K/pA0V4/Ac=);lineShape=1;" parent="1" vertex="1">
                    <mxGeometry x="72.7786811844773" y="284.00957809914183" width="20.089302226289494" height="0.7265848996416177" as="geometry"/>
                </mxCell>
                <mxCell id="76" value="" style="shape=stencil(lVjbcttACP0avTIs7PU5Tf8jM3FqT9044zi9/H1RNXK9yDqO3xSHs8sBDiAN+vC+fXrbDMLvp+Ph++bX7vm0HfTLILJ73W6Ou5M9Dfo46MPL4bj5djx8vD5Pf789jZbj04/Dz/GE3xMukuYRJPxn+oEppH8/fJ3M97vXC/OgVLmzV9Kwbm/nS+nsCwk4X4W0t2/UwPkxUJPO3jzktg5IQqX1gExV1gE5UtAOYCFSQKFE75LFqOo6oNoNfUwtSCgJLZD0SVOew3YdkCm5rClFQLo1qrEHVAoR1AUzcX9FtNJCVyRqfVwTU0Ksea60M8COAICqswMzIAeKIBEl+drImTKovlxJepdKoFoBgKk5ORSKqFwjcc/BWAUkiHPpnAEVuqSZtCfdKmUESAuJNkrAJbX6XgBQ4qwJNL4LECi3u1zimeIlaaCgsQ05DoUSqCUD5L68TYTCEFAc6Qgbk3EIjoNSAhq1KDmJNoHFZ3lgF9ZABZWGKS56ALwhUmYPyIiDSTR5DoKilOe8XkQpgExr8c3V8qCIgynY3XB28rM3mGhvcHCASgqKb4ySy0MjQYmLlKoHVMRh0VsvJsBqMS2uKAhgvXLRmBpKBC/6TJlnzGclZ5EGrEdRu7gmGNexbSw0CjsZLzqZUL3Rye4CRKHkJorAXSA2ir3kSp6PuD6zMsU+SoWpAMll24/6xNnSVUAXsCmrvUupwS5QTC99HmywIsnZTub6TLTiy+sAy6v0N9hqGtF2Ur3kTOaItKUpuK1P4S5d1C9Mcl7rrudB5gXsDMhwoqTgtxNbdQOQaGQ/UUKDpTEutj1pW9dR1xDxpO2FoIBMB9vYnEuMBzVFt/NB8+B7d4Y5sIgGZ67gdPaLfYILK/sSirBXLHZ6a17AdzN3Lw3EoD7ZK0ZgIBeNLsxtZiWQ4l9sK0xT8+YKThc/YI076A7qhYVn5Z0v5TfN7eH/+//Lbr+fPh9c/t9/L7Cfpm8N+vgX);lineShape=1;" parent="1" vertex="1">
                    <mxGeometry x="90.81013718770947" y="282.13292839223453" width="4.666106818313551" height="4.301782094527425" as="geometry"/>
                </mxCell>
                <mxCell id="77" value="" style="shape=stencil(7VnJUhwxDP2auaosS97OJPkPqoAwFQIUkO3vo66Jm7bc8wjHVOU2i15b1vK09EEunm8vH68PMTy/PD18uf5xvHq5PciHQ4zH+9vrp+OLfTrIx4Nc3Dw8XX9+evh2f3X6/ni5SC6fvj58X57w84RjqnEBxfDr9EOmePrh00n87ni/Ea8kOogrpXBenJWkDfJCXIF8pVIG+UhRzsvb48r4fCbJQL5SG+UDFfB8Mf2Lk48K5Bul5OQDsI8qsTr5BPRXs3909gnlvHyK/fgunygwkFeqeZBv1JB8pjzahxM1pFChOBrIXPgnRM6eIGMEMTRRSsTjCWo+ADGXLCTHmDArKwIEqnU0qikJrGTPC6NVs8IwsrDI4x1KoAZUUvYnlAwdJ6UbsQOqMQGKbKE6+qGapwFTSCAZQ682eGljHpfLzaIXAYTiGHzN0jVBdsmjSq2QgvTnQpVHQKWI+Kt0etsAElIpU5pOyIhR05ShFd8hUZwAAQGUik5WQndQXxSauRJXheAcZ7dCJwi1MR/M0yj4lhOcpwUmkAHiBAiAlwzgmN6iNSKAMe9I3Y07tZ0DpOYBjMO7TCohx1nxaMWfgKw0l387QRAJJNLgAQXUBxXK9T1+sArnKpABBDBfZt9iGECBSka9aVIpAZVKnUJDupL7TdVU4wyA2hLLYJ5OSMAPBvA5Lb3E7APaDrcGDPCOU3hpAzSnkgULoHsOYUrqDFPOjqjuEsbPyEzNV0UDIGIyADuVao/4c45I6gEFhKsp4M1kAND/GMC1rMuZKJjyZKWKXZ17z7+xkiBX556RG8el9wESFeS4WSWF/c/OpXFLtmNWecsP3nGC/TCHhnTm+dvgsyYN54MPb4Upt5NA1l0Dx+3nKJqAFhoQD3gj5TzRFMo4qT2VVezqmSytJ8MAnnMUxffM3xiwUyEqnIJ2alCFVtqpchU2cTt1tPZu+W8rdYWz4k4v0OD2wLoNmQCK1wFxAlS0b4i+xdpE/P8R4v8I4QH/2giReyCsgEAKVIrcNV6n/ALNGqdLG7ehFVZcO7AVID0J91mA+wZzBQS8C9HO7uvypMBKLcVvEYsQA4CyX4PmAttv1W71FcCwBGnpq5J1J6VwItDmN0ZqNQYNWsHvpKTCBj9xb9lWQOjtxLkC4cqoBUtAq751ZbWyMa6KdocyXprXBey+lbKfkCssKEvJGjXKeEnWfE3MsL9aQtVtEuHGK7b+96t8RQO++qXdG7zd/D4at1YLg3l7wmbPb4s5wEkjUh3V5wjTJk7Pj3Aa454iG3m0CmBfyxkzfPApwwz7keCHEmb4+ib08XdjzwTuO3fzcC8RfH2qfQY6p43bQcP2LvRZZROb0JbTmy1UBaZCluFLgHe+N3tT3D68vqK7Od7dnd7wbf/3r/Tsp9PrQPn4Gw==);lineShape=1;" parent="1" vertex="1">
                    <mxGeometry x="106.33903470858013" y="280.4251271136538" width="7.831888098556874" height="5.535311169168381" as="geometry"/>
                </mxCell>
                <mxCell id="78" value="" style="shape=stencil(lVjZctswDPwavWJ4H89p+h+ZiVNr6toZx73+vmA1skWgWlVvsrxLgsDioAb/9HF8eT8Mznzcrpevh5/j6+04+E+Dc+P5eLiON34a/PPgn94u18OX6+X7+XX6/f7SkO3p2+VHW+HXxDMUfSM583t+YczfF58n+Gk8L+CeauzglhKAF7KugzvKeR1uLcXS4T0lC/CJbG99IOfW8Q9rH/iUAD5TCQJfK/BOmI834yO0JziyUeA9WD9UvX4E/omZfBB4FK4UKMr1kX+y1etnYE/OFJLEByAfR0Xag/RTeH2FB/6slpz0fwH+qWE+3gIPzlvzHJ4FHuihVpmNm/jU50uZE2INX3p7bKCCCVUkMCsanZgJIoPZpAJS2NwLzv3MDiZB26IPckrkgUrbqWtHyAWmQVVpxsIqeIfUx636ObPXCKFIQsWR9mIH9hv2kuvdyslkQO4wwfbayIYS3sGIZM5kQTZrAte/gr0kTHLsBhw4cWib97qVKt5AxC2RAerWwkhbQhLKs25LSELb3OPCRoL2O3gPa/w/EjRkStipogYku7PK5IDrsKpjJcIqowsll/6Cs0FUYq79GzvsJKjesEVQzacRdnU3Jjg0ran22QhATLo/NwKItB4AGmHXhNEI4NB6hGGCB1VJz0hMCMBLeghrBDS1qSmPCWis1WNkiz2Qhp5TayQDdtCDMBOQl/SkzQRkkh7la4JtXV0VOEGQlNRNpBYYNnXRWRS2FUIwcoMISrEhJw7MSgUlxszZvhgyAiir936/mGLwgY1oPZkycKiew7i3YXtEW/Bza/k/e7zb8I9RnS0CASl/cuuMcH0Rr7jhHiEH7rNQDbvu1Ztwfnhc4d/G02n6ArD8X175+dX0ucA//wE=);lineShape=1;" parent="1" vertex="1">
                    <mxGeometry x="119.62755056481393" y="282.5335071025561" width="26.4618608618689" height="0.28301732971855625" as="geometry"/>
                </mxCell>
                <mxCell id="79" value="" style="shape=stencil(lVjLbhsxDPwaXwlRlCjpnKb/ESBOYzSNA8d9/X25NaRYtHeM3Na7HC/JGT60G7l7f354225ieD8e9t+3v3ePx+eNfNnEuHt93h52R7vayP1G7p72h+23w/7n6+Pp99vDYrlc/dj/Wv7hzwknxG0BxfD3dCNQ4P83vp7MX3avZ+YcqeTJnqmmdXv7f9HJPlEM6/bCxGmyz9Tqun0KxDzZV4pl3T6H/vrhP1MAAA2UygxIFGQdUOwNc8SspA0AGiXnUqPl5xqgFp/ThQTwhmYkO0AiBTFwMBXMPolQQK8onreUIdEtUq4z0QEyXZXaHERWKgoAgfLMnEZSkNci1GYtaaUEXNJCaQaURAyCViaJM6D1NFyXq1KYATVRw/rWmbhmAgZZSkJlJq7V7uR1QKQ6B90aCWgBibv8zwANZMlqOl0CQAwyHDgDZNDFpPoKsqARD1JI57Zngo+gHmQ8HoBMBRBnAHFpNS1hQHEAkzfKUu1CGADunWctrR5gJQXahhGn0QMYAaxvXQAi0lKkJh5Qsbyr+KAbknei5FySzswaQF2WElU0slLX5gDorRJtTksFF5D1e6fWRiHDtIbqAUitxnSdXTobGWti8nIdd9bk6vNaqQFtWEHUixpFA2IpueKJuFXUF1QXFHSh7BqT9Dm5FjQ7IpgKakyfBST1QddRU9cnCvsKKhYVqKBsU3HmoTBs3yqUZzGpOYnmbvNdwLY0BYCifkBkvABZThwgVaqAadvJ8jx3rQgTYNpo4pkHwWO0jfVoABjulbYwuR0u4iFXql9nbPlW0DaMB3FvkC7H69JoPScDEOBKlpo/nnDpclxrM24PZdtDUQGNCTUAuESjLa7uBGQnCCBvOzKFGVDhohv91C1wCeWuyw/zCDhjf/5RmM/gdzeFR5Pgl5gMJ1vwY8eqEoyEy0MJnCChn1iG2Prmuua7Uw7sWoGK0w3MDPe95uOcjYTPfpbZXgR8j36luDGMP3fov2luFx/fF552Ly+nzxPnz/33CLt1+pYh9/8A);lineShape=1;" parent="1" vertex="1">
                    <mxGeometry x="142.65835410148918" y="281.1822684917363" width="5.302968861959054" height="3.973111866941963" as="geometry"/>
                </mxCell>
                <mxCell id="80" value="" style="shape=stencil(rVnbbhw3DP2afSUkUTc+J+l/BIhTL+LagePe/r5HXWg64uycNEDe1mNSQx7eDjUXffft8ePXh0sK395eX748/Hn99PZ40feXlK7Pjw+v1zf8uuiHi777/PL68Ovry+/Pn25/f/04JMev317+GCf8ddNLUSwOrRT+vj2JRXL798kvN4Wn6/NeoYr1VSFKL+cKGqSvbzApicgXSbbIN1Fyfg6SyiIPB8j5uUjVRV6l9XP5EkXbIp8kK5FvEtIKkGg9l684Li/yQQqTb96eICGcyzeEx7w8sb9VCfUH7G/m46XSyfk9Slzj1SiekK8rPkg4lkBQ0PUFSOlGPOhBdI0YIMok5VqXHlYFJG2mmJpTMDH2hix1DYJmCUYUkuj6Bm1SiEI1qWsaZbQCUvjwoRwUWOEA1rbCmtMs1fsKWWzNpKwSWeBMontDprVvScwpINuJSVYlr3HInVandbFVoSSJBKUYtvLdNCrNPkPk1g5cI4XJmve6VokkNyxLW1s2mgjLbwSiu5qukliNqsd1tAWi0IoviL49OWuTcYUVRhbiQ+nTxW1OJals8KDxrXGwIjESBRTEahLSy4gPmjys1mkc0IbMKRiFFY3OO23SSBcY7MCN/8Dnz+jWwb+CEYYo2fGFJp2YBFSzl2cMBi7XQxQIRsHPc8gnen5w9hTaiQ/TB+XHZgP4VPbyrOkBf/XyrOdhkjh5DHTSwbYevZM3kqTqGSfsSaxs7tjPKh/oqcc/EfkyB+tO3gghyZ4AIx8qKQBYe8hn7m9QL19J/qjnX2gSrCDTrI69PDk/+s475gnBM8zo7+0neCL/zcuznoX6ah7/TOvLzVfEtxP80R8O8pHWYz3UY2ET/xCvTM9Pno/bVkEn8o7vD3mSD+qJ4LDnJ8qPkeEKoM4V5r6CTV65jzDbSYvoQSHwweqI4+gRBFM1z2UHqKxJ9MMUSDNv73ehOsnGjq9UUga1+LzodXbK+xRKfeH0NHneGYGPK6xYfJQpFD+K8c7KeWNZncZawiiURd/ca5ZOUEKY3LZZA2UfUHDrNRb6TNIbJvU1NcD4qdNV2moSmCQbaCDLyW1enTIKrOTuyiU3ihLYtZtpmTtdu2/yWKQ6U9DDMoipT7IVcXXMdNQggRWE37WZcZNEKm5swE4h0SaAJaiuPiS+DCL7nQ8Y7nTLyXPz29i10dmJwKXVpO9c30HBXY4YJYNwoawglYnaWWI4tpz57RfKzSWSNJLa2NJcTyq06aEWXXVWGrLcPDviy0dOh+1mpuH9QdL8TVDky7vq3Mc2BZ2j5ey+Vd2Nbp6M4Gx6+pWu07kwGLC7IUQScQXXU6HAKm1cyepBgXCqsYSEgwKptHSI2/CBrdbb7dgeJUbb4rxu2Cmwi+xBDJ3TjQcu+oEOBWUoxcPVbqXDcJgUvYJylDyshdbPgPWHGtj/+GCBH/997vh8fXq6fS3Z/99/HsGj26cV/fAP);lineShape=1;" parent="1" vertex="1">
                    <mxGeometry x="152.85737521311654" y="279.4965574216612" width="7.015893978756405" height="8.488529907757007" as="geometry"/>
                </mxCell>
                <mxCell id="81" value="" style="shape=stencil(lVjLbhsxDPwaXwlJFCnpnLb/ESBOYzSNAyd9/X1pbBexKHfkvW0czi6fw5F2fPf2dP+636Xw9n46ftv/Ojy8P+340y6lw8vT/nR4t6cdf97x3ePxtP96Ov54eVj+fr0/W56fvh9/nt/we8HFECiEMyyFP8tPgcryw5cF8Hx4uQC0Skk6eyZG9kqtdvZKKcL3i3b2lbgB+7K+brWPkWKGDiXuAZkYAYQk9YBCjSHApTRFqgiQSXuXklBDQZvHrgiBMqpCpthnlYUiKkOm0AedrVGQS0ytr0O2L2BAzR1ALIYCAaXvJLEsKQb0X9BIgiptgD5oLRRRWpm0dYCSSCaAPoZSSLFLWvpxSLjSBnDzo1RwHRygBdKEAX3zWbMkPA+uNVojxoWT4AECABaiZA8o8n9AESrqARVkSROl6gH/iO0qIBcSx0sfVHsVwUxhSBPqb2Pq0acKoo5hKHVbG/gqwCa4ePsM7PNa1gv7BOzrSrwX9ohkovrxsXXRAI3ZF3wnVTgN2eZ3+EIB0yCFMm8BlOgbY+JStQU7fAEF3aLnjElabUB1qAOqmw18ZQ9AjVHbEAPuvGLzOwwD6m0ddMZkeiSt2+bmAS1XfEIckLKXGhOWiUxZPADxmK5Zv5Eo89oHNzLxVnv1umSyGnQgALx7BvvJclPfdpPtafa9AJisZ7PvO2Ky/9Uz9kRgmH1PqBMFY/a9/xOJpF4WTjSY+n6YiDzxQzlRkeI14USmipciEx0sxP3MT4T2ViWfKffxTo4KJjgdB+GzSFq7/cbDTqTs5gUeptiLfnxWiys33XYU3HjSjJ4LAwlIpSk6duYMOjkOiz5ApjJ31HsfAVOxCcbi7AOoVGY/KngZiY2ijxfZG9EM+UH+lEo5boi3DjoI5/O8GHx+UL3O9wJb2mHzxcYNAHv4uEd5PDw/L9cwl//39y7203Jnw5//Ag==);lineShape=1;" parent="1" vertex="1">
                    <mxGeometry x="67.92049849214905" y="293.46802943998557" width="0.1790206396032564" height="12.74421688833172" as="geometry"/>
                </mxCell>
                <mxCell id="82" value="" style="shape=stencil(7VnLbhw5DPyauRISqec5yf5HgDjrQRw7cLyvv9/SDtTbYs/UILccchu3VWqRLBYp9snefX/8+O3hpOH72+vLl4e/zp/eHk/2/qR6fn58eD2/4dfJPpzs3eeX14ffX1/+eP50+fvbx7Fy/Pr68ufY4e8LzrqkMlAa/tme1PTfk98ugKfz8x5gUtICSCa53wZokxJWQJUcCSBKywsgGz1SbJLXI+UqwQggi65GlyBJCUAl1hUANxBAk7ieqDQxYkL2Pipderu9Pklb11cYQNabdPPra2DrQ/LrCzm/ih7OYyTGUVLy9layPnh74c9GSBemt7f19c764AhRpFa63p1ni+CN9XGldEnTAzfWZ7e/iRXmTxevopzQUlc+lCiF+Me8P3Oh++dDCkfJZH0XjatGZHoeJKQjxBAykgBxi+cGUJoBg3IrJZQfCTnpfApdakSFIBLaVoDyJI5e56poJuuzxPVENh9cX9+kr1HgSQ/hdzK6pcX19dXHADQkpAZn2uqgLIlEIOepIdv+gavuxpkNUGZMrgKQhS5kUL7KAFWiY1GfQbwKgG52R+wikTi1ppmIW+pAjIl0VURhzc1Rj1ktg7j0NQwqmfCoJV/9UI8ZkVrxuQY5YqnTo9hqNOoHM7pnH4daxEju9K3+TkBPtGsZgNWtvUhgR+o+mzviwI4EOVnpjSesSGE/D+i0a8GJi0vQwFO6bxm5e0UjCQEvpsOZlIhAt8m1ndXKAqFXAtGYX9ULN6xizQsATpdwyMreYAejlbMviTpuxPnkVhzUxSFQnYFPXN8PgDFu1EmdHYCSCX1/9jYYkW8QwTWF8BJNiO61Eo7urGsIh74NjsuMfWhLndW4WjB+9/nvHV0Ty6DmrxbYgrqp+l51+IGJZT7QFQCmG8lXiKFVLCHMd2O90XYYgBi9W43ZoLNT2AWOVogfBTTI0Bpp1D0jXmpZuuvGEuVS08Oloc7YX6/UIIIDKK2jqGl5NRqFl7Un1fy9bZR2cqRxTVvfgOYhEGrgHuWULIXpt+sAnemyNUBwK7EhtymlW4vVaJubUYIcAJEhOoM+NLi+stDbJC4vtnoJjWhknXT08t3o9RA9oT8RCgq7Oqhv7SMfkehBjMcdkDgJvXldARaoDWj+u7uR1XtjHufVlKSRChTzNHF3C6W3aPXSemeQVL2ylkxf8GvM82vM83OPebL69Ur2P4w5x1iITWHipMtutJvYpDb5kUHeYnhLJFyrnQof26hvRZJJYePpPJvSXUVjpLYDqyHfd9Tdz+S3xLsOQB+x6pDx+zMA7o4EABWK5vvg8QbCDDvUD9gQmdQF3ziPAR3JTQDyWjPN6FhiNB7OaJ6dqMqO3pbvAtwbEEpuQ3eRrvcAZWUrIsMKPwDxMCiNbGj4wx+E7gPw4//vT5/PT0+Xz1f7//vvVXh0+dZlH/4F);lineShape=1;" parent="1" vertex="1">
                    <mxGeometry x="66.57934546318643" y="292.9327297754475" width="4.084850617600514" height="3.069832215813477" as="geometry"/>
                </mxCell>
                <mxCell id="83" value="" style="shape=stencil(7VrLbhw3EPwaXQm+2Tw7zn8YsBwLcSxDVl5/n2IEjodFTW18DODbapclks3q7uom79Kbrx/ffbm/i/7r89Pjr/d/Prx//niXfrqL8eHzx/unh2d8uktv79KbD49P9788Pf7++f3L31/ejZHj02+Pf4z/8NcLLhRX8kBF//fLN8U1+/eLn1/Gf3r4fB4fXVrHN+fT9fjuUl2Gd5fD9XD8s7gMD8llfz2+uBTW8d01sZzsalrGx+S62C5+XZcfzfWoxqe+jE+YUaw/ueCX8dm70uX41fq5ui72C+uV9XTTtNjVftf1F9hTjMfuVvvUMi12cV513W8Lcr/VWVvHV9fa9XhzeR1vwXlFZ+/ialArzosDA//pBKxNm70OyC7a6gHeZQWorq4z9Oiy4BwoT5vuyZnYQ4yurafQ85zzdUB1npZU5jevA7qrZQMoXidX2rYkQaTUJi9Pm1aekEG0wGatghq5TOacDk5xO5uLq1nNnIklFc/stupSEYC0sfVGeMyu0wzeBTVD5YAEh0vCSgD0zaMloDE1apEhqRh7HL4pag82F3AAwgzLVwBy0ZwnWa72QGZNCDwq7LW54gOQblnJr4EYLtXUDMbnkOJc5OuA7sLqD6lKjwOgrLkZuaqq2O05mcOlomArAESN3GVsrWFLb9mZAhyR9JTfkrBSRVxaqYFvmoh8Nc9jOgAmE8pImKskgQNVQe/aNhct0qexgLguqcFDREJpR4I6okZ0RVCjRbaSZakKW2F6j0CmZkAQICt1KQTwcyedWl0WBwehQC6KXamUZZt2q1VyCTaJa9QA+VTateNcD0CckeoKUNcZEMhUUgSgr/6AvNpF5APAVi6lIHPcWNK6B4gJpaABICtBrtzYQ+wMUPQGgPJDDNKnASBqABC1lRrN4LVshcBqDJBsrTPvnwBRBAEAWmZAUPRuLH/GDBqwL6moc2jMVgBM0bvN4H46B6WXoL9ItwKg8gMAlBTBJSXWASAZihI2qIPrHDXgQKpitS3twkWVugegUxaFmlEluucZoJeyOIceWC8NRaZmiBzIkPUUW6Hl6RyQk5SaQbUQCYBIJVwU9QhJB2QMFch6ZZ9GAlB5uvetHGguCn8AoHQGKGoAwPWDyagRvJ9a5ED0KQ6upiClC7YEvQnzDFDxHgASG6BXUUfdOVaCXl7NYNx0AECFbwBCZIDc9BbJsAcV7wFIkQFBudxWD4wuguIGAKtDjEDyXTOM2KZnoN6bNe2jjZtFAKgiaJzD5kE3Tpp1qBYbg0vbkoIIrn3rtQBQhMsB0Dazqry7exwAqkX5ulObXpNtTq1KPwDYg3SRP2Lfxu+u7GpcNg2X09yIWxS44UEWtiWpKPDdgMytcbBPFWbIcsy+II+6H1r7SFpNdjZwrsS+FuWSBnOofK0yaY0W19YxVt3KESTWGUZRI8g3PJK6MxAPSjFVvtJIJn10VEHUtb+h+srsHJ6uBVRg+lHUTMCPouZ/UdSQckXN3nQQoL706AqoGsXmuZ5cVOXdfQ+5yAz0TTofYSbNFtIlNdaUVf1sIV3Se11SNSlc7SjDTjVKUkuKzCU7bgxeB3iewYq8/hpttU1sqISCFbdNOqiWVEu8JABMcKmFqWvPSld1XNvMmec6SwQyZDS2UtaXkMcxnfK06ofW7MLWcVVdgZpYwrU8heZV59tWtjYvS/DRW1/3MBK7ujrabu6/dduvbiAoZZUql1S22DruadQNROVmS65Tcl0BKJDlIO/8SmG9lHQ9AADVNJAO6sIfAA73Nvs1V1aqBCgyx5XOLjpm0NTwhfdgit6e/SGZrI+r585GzvKkASCtUXRToHo+B5hB3UCMPVD0rlOjXZmVny7ESZYrf+ALBZNm3a9SLWkHykyNoZXVkgKHyhvRO3dOiqiymmBr3pQxqiKVsuCQ1K3s+hoybeG+a+mQEvv0qPrFpsfjhcYAdXBwSFuXdKrJX0dAzHueQgWmYJtdQSZxEKFwMYp6VsX7gLhFR531SzDP2qHr4GpbtXvjZnRy+dxwlW+R8pZ0VccrcZcPDq10dOTxiBjyCLgiQ8xROd3zqxwoVqWU/KyCj6Dapki+GE8aI3tZeHu+ck366ttPTXTknSZlVWD+wMKqFgt8oxuajNiRq3pQXFViW/uma83G5qwyB7bJlcOa8jFRCJwyg8wFYXt34PXDt8ISVUes8U50G68Oa3vW4KVUC5UfKXiZaDCeLq2CzGQYT96lm3kYT/cYUZO5bspxhvj/uJ6knxFWfr6WZTAc9uR3var8HecVaLzk2/e+G745Hh++PVL+8PDp08sb5/Pv/KgZX708iE5v/wE=);lineShape=1;" parent="1" vertex="1">
                    <mxGeometry x="63.117058952074586" y="309.3885543035032" width="7.742235572010804" height="4.380381866152258" as="geometry"/>
                </mxCell>
                <mxCell id="84" value="" style="shape=stencil(lVjZctswDPwav2JI8H5O0//ITJzG0zTOOO71913VQ1mErM3kTXGwIgHs4tAu3L0/P7ztd+rez6fj9/3vw+P5eRe+7FQPr8/70+GMp12434W7p+Np/+10/Pn6ePn77WGynJ5+HH9Nb/hzwSWJdQKp+3v5wYlz/3/4ejF/ObwuzH0WV4x9rtv2WiTpYB+kxG37kCSM9rm/4KZ9jOLG+3snkRyQggQ3ApIU4nFW0RGg2l9xE1CcDZE2ycSHUsSZGBUpfhtQg/jxhAgfMgFUCXEAIAyZ+NDURil7CY0AkDc/AqrURAAgxpi4kiQXAmji0wCoXgqhnnczlWdE4U40KWMiEAfH7gSv8whoooR9NUkdw7S45W1yVCtQ3KkyQJYwAio0S7xG3N1IDpzpSGBLlDrSD7lmfC0rr1OVzAArcsQqSgheoLAxEQGUDyQRXurotM4auQ1o4sKYORQGwo26upL3ksgJzXX+L0pZY+zz0tQCWKFpwYoUAFZdW7xxpczLQK3Wac8KTZbSLKCwKxXbIJCHSNgKQDROB1q/AXAmcZEKCD5os4DCy4Y3gCTKfAhWcQAkVl3VVo0JQAQELpnqCgCNklvpIXaVb+lBowV4pri5gSwTR5wGoJlMqyRWBNqKGp4nzq2GB099QFhtHhwtlVNxjxbwgUQ1WABt7SCCs4DGfMg9iAunI9NDWdEbpZI5DYmaE0IfibYAqhZQSaY/D1gPcbVX2y3ymTygA1WiaXTlPF4JPY4Nopgd0qqLsgEIABNW9OnIJJrt/ING7NkJtQdxnjXQMZimkYdR0+CvZ5pufV1YzHBsgQDARKkqZSt8MPQumXbRKUqjD4WPcIiJ4RJ2ispOcLYuJaSSAMpqDo1FGltqml05outrzm0AZo1R00GlEAGlaJsiNjlPyIcVxnAJq6WSxGFJstMMFEKqN9awsBpOmESx6LWRfI0GCQ0tG8HRLh37ADmnmQ5X2PqCMWedQfvQcjWnl+8lemYE1Znrnl3NPYm9623y+hmA3X21uSmt1s4OL0qLius0mXnQW+JWZMa7836Js9WYs/kUWc3G3JNBLdoJhNeeT37e+dAcD9cvSU+Hl5fLh6jl/+2XJ/x0+WoV7v8B);lineShape=1;" parent="1" vertex="1">
                    <mxGeometry x="71.74733983133999" y="309.53491906764157" width="2.1073866354250255" height="3.58380067214038" as="geometry"/>
                </mxCell>
                <mxCell id="85" value="" style="shape=stencil(rVjZbhsxDPwavxISqfM5Tf8jQJzGaBoHjtPj70vVkG0yuxME6JsPckUOh0NqN3Lz+nj3st1weD0e9t+3v3b3x8eNfNkw754ft4fdUT9t5HYjNw/7w/bbYf/2fH/6/nI3LMenH/uf4wm/T34xUK/Di8Of0y+NYvv3w9eT/dPu+cqeC9Vm7GMkDusOKVKJ1qFQl3WHHCjbEzhSRg6dRKxDJQE5lEItGAfJFNK6Q2VKFqQk1Bk4FIr2hCyUQEj1jMl0KEwdOWRiG5IGGQpwiNRtSE2BBkkrSqlbh0acYR0qG4eeSPpnKt0bZeAgZWJy5lIIFAD7OFHI/giUREyTCWcHmQRexpWatW+VEmCr+DJUhQ0EpNSzoNZADT/f2pc4n7Bo33x75jg7fBmgQsUekBgCpIpRLEKiMQIH0QrZkPQREaSgPJJiadEpAkyLFtk2T+TZTssgNRJLIy0CAKl1Ks3ZI1L0OP++2KOMlZOOFbgNeqaUvD3It1diH7+g+Nvk8MW+Am3pio/Vlgjxv2rzi0MDajcOsAFpHwFGaAIuICy/AyA3QqDUaQHENQEVBKg+jr09en70M1AoA3wGQX38SBaH9Ht8KohHRTAXZ88g3yGaroUhPhpPYGePpp/mGz2hET5d+zs6ewaa1Xny/arBUAMnv0Z9YK9rV/DxIHsVLB8/mqzaL04gFE/E/+7XRq0X7kc3JpUP2N4pNM+C/Bf7mqYcnONPkEA6RaMTFJU4IFmp+xO4Qsrp2HMOYysFJ+jo7rZndCtFi/LYoy3pMk+aLMuuRmxZpDBkpNPvaKrbCnTQHCwvaoPCqzpVbdKtwN2du1eKji8sotLuNsAMh33SFdByT9U7gqRzmr1ytTOiVXxs1m4V1/0AVHpcHtzWGGeQaxuRm09FKADB0L/dhpDxlWjc0twdKs0ladlBvCTp+o80L2Wv2Vr7CGDVSrukx5QFJ0jwU18XTbTXxXc9rTJT0Qkz4KvbNZqDWtXs7VFHh7k1XS5Q8z6yYs/i7ROA9N2a1md/r5i7qdw/eLrv/TmFVsBxYtSgAGvPZGcO6eZLW6FwldlOF/MGFq7qO/58z1yefwvBgFQ/+9bnY3v9cHnF9LB7ejq9obr+37+S0p9Or7Pk9i8=);lineShape=1;" parent="1" vertex="1">
                    <mxGeometry x="76.43620097025936" y="309.1887868921485" width="1.3299777933056354" height="4.522730828394591" as="geometry"/>
                </mxCell>
                <mxCell id="86" value="" style="shape=stencil(7VrLchw3DPyavbJIgs+z4/yHqyxHqiiSS1Zefx+wNpwdNmZ74mOqfJNlQEOAQKMB8CIfvj1++vpwif7b+9vrrw9/Pn1+f7zIT5cYn14eH96e3vWni3y8yIcvr28Pv7y9/v7y+frvr5+G5Pjpt9c/xl/466onyfU6tKL/+9/fuHb9xc9X+eenl718dDWAfGDywYUM8tHfl4/dSQL51Ih8nX9uyifnC5FPriaQ753IR+fjIl/o+UNHe6trkcjrnyuLfHclEXl1x3pfIbhCDA7etb4qyPzNoUIzHyhO8n15/V+Qb64Ti5MrbZGPgVqsBq8XMK4wkBtzWVb55gKJoOA6BHR0gfx9Pe16HimucPn1PCm4TPxpAi4VV1mEurIGXI40Y8TlNQFyc0Lvq64JVsR1EnDFBUiY7iKxV/Nj9X9N88YP5bura7zVNiHs2P9hJvhUaOI8S7E0/bcpFJ6T1clqQuv8yryLq4+63hlDRXGy2tCTy0xBTwwKZQLTcVT4CeObgiKrEAVxNaNCYXFnkFoVEvFS8i4FtCGTIyX1kkcvNXIkzSyfzT2wL2iqrMmsNy0k+bNHo1umN50VHCD4PIWLW7bv8qeR/MxiKlqbNeieApSoEibm31VYj5QTLSHjSOs9pErvQY2uAJLBea6AtCK7yowOE+T2ZYF9ISCxUKRizOJQgcHMUOioQIMvYOlXBc+CL05g3NXOyo4UXQyocBatRuHkpqHcqoIwt0bXTP1PzAaZkbO34SQfjA00lmRG//4eSIlThWRCQ5iXZCLpPpbYkZQlA+3Xqs4uLiGtksaBLGNBUXimXsquA5PvLrPw1hq3fmF8k31BQQWAzPOMa4gaZTvksUJHqKyeekkPENeLU/RmKTqgF75Q5m+OFUy01krDW02E4KtqNKmipWJBqUIrkNabLuilRoyuCu6rl0qh9EcPgDcdaAWqJvg0lgr7QsMal7bO9bit8linU6T1oUW0QSqF+5ZcWG3QksV6z0FFAMg6JVitGqistBdrDcFY9CqZgrbP603L1n/cU8hgdKcgoArQ7ykuNRIa3eM9KAtkuNSDC9BhCYV7VehrAilSeRIaylKBexdOErvMYN41cSxalTgng3yZgEA3VFqzPDOjG96DgkAgN907ZpwqMN6qCsV8geW0KjSY3QR+D30C406B9UC9Yy9aI83pcaSKCp0rwDigCm+nO7Y0qlCZDQ2ZceUDAVXI1Siw4GumZMnk+8cK1cSSUL6kCjDUULeyCjR624AKbKo0FKCKBlp2VaHBkTwtu+olb7jGScYl84XIYqnNQPjvKRrMkaiXNoa350uktVQFe6STfOgmp9l4LHg/Cdj+qrnVAN818nBVI0zKnSAZUjI5wxkgTCPlWEI0kxBCp2rfr5CdNPQSGzBpzQLYGINEphCxoVZmGk7qLigknqMB41tpJaUCHofjWtnZemXQGRid8JseDAvoTKcLEFWABUVKdP7bDPQpw8qMuFbs/CRPVnesUHCaIxz6mokl4VufJggbwjlcC0hc1Uts71M7jvmzpxenXRi0iiek7zbW24KPNxDVbEJKo6RPoRR7S05cS8OxtDajjCVq25YAjTsdS4+EXBVOxqHqk2rmp5WghmYwRKseqbFZS0fU0KtkC6/cDIfLkyzfm1M0wx3YkjWXOebe98cnsxYDZJFNQjJudfQ3dDKYzAxY6yoJjWwWmwOX+OwRN9F8EZS3vd4ONdgC4sdIdyr8GOn+D0a6YiYhgTZyeZvH7uo0zYeEg43kOVSaTWriI6ycMKfH5ojldMI952BkLB/sYGNrT+95yaJ34vkAYKxkgk3VNKdxqVioW5OZMisxZdg6XhCsRo/5DjE6Gb6k7alnCh5n8dogsNnj2AbD6rVzBcGGetepHWpEM+nrfKEQ7VucNonmsULEgVEv/DFOR0p2G7QdKxREAb1q1lsGmTOALZg4uAaPXmqJ0/uDBTXrHwqarPlDt/gHHT5j3mbpr5yReSjilDw3OkEw/FATnNE9jzCsmMfGBx7HOON9EPG/GU8IXwCp96AbC7Q8e6SGsVJwiTj4PXsRiG192F70HMMjtgyaE2yUUWcGbvIbFb2XANDUjxd1LGMitty8kodsRrLUQWHjKlvE0TFdDKbwc9RKCHOBJoBmMDSenr9u6vjmxdONjMYjkC+O61oJYHe9Pac6ls9YXz1l8SoPL+QCTeDxkiSCPAs4lQdGEeYH78nDliHQhZXiAVJ+On4Rs7qJ/DxlrvBu8uxB6Tj/6h+h8Tz8CcMa/qAxmwEVXRmKWXvK7LfvyeNOktv7vU+qT+X1h9v77S9Pz8/X59/7/8f33vqr61tx+fgP);lineShape=1;" parent="1" vertex="1">
                    <mxGeometry x="47.86723340805608" y="325.1521961395808" width="10.01099990005812" height="6.166567083272157" as="geometry"/>
                </mxCell>
                <mxCell id="87" value="" style="shape=stencil(lVhJcttADHwNr6gZzH52nH+4ynKkimK5ZGX7fcAwQxGg2IpvWtBDLA2gh0N4eN8/ve0Gdu+X8+nr7ufh+bIfwqeB+fC6350PF/k0hMchPLyczrsv59P31+fp+9vTaDl++nb6MZ7wa8JVqmEEsfs9/eCI698fPk/mx8Prwpw9Va/smVrZtg+BgravxA3YN2pJ2XumytuAmClEDagUwBOSp+x0BImSB4BEXrskQVUEqOSKAkSJIW8Dsus56YDElBwASAwakBkGLX+zLnPxPdFbgMi6bo4ackkAVQMqlTtP0C61SAVUWrJUdaWbkBcEHSslXQfvHDkQRPTdg4VPDlQuVGom6kIR9UPp7TUXonW23AZkYk3X3CiiDsoUNSC1zvitGLx2KTnyKK9CJt0QkrcESh0LVe2SdFACaU3BlpozDFq48e+8GeAogzmWC2UN8BnWoQlzdNClD57b9r7Pxau9A0NjJJo+P1ND54u7hkjkkX2xKS2UQEZbI68TJIMbnd+oan+E1wHam0EvB6D8t9WclwojgNBa97L3FADpJKNmIAmgAlpLySyAyaGc8ioGvke6UK1LBTzhOnMXAAZBy7jKbNOKWlMAXi/0RgXwQuxZ94GMTNAHEoFrxt4DHtV5Gi54jfpMSOCMPayZCJhVXyJeJ0uK0ht7qy9X/kSwBYXWxWwcPFekPFaAFVDfxYq8FvjOoMj6AcKgiDyq/bwFRz1OkVs1ZkFPEED8CKAIZ1YiErG6OLtkRQdnAMhhtaDmgXx7BZZ+3rwzI2WQpVEy6jrIng4g6Dg34mLvR7AzY7GFE2WRMMCoI9EujPRXWy0pIQvohjFoM10yJdCeo/o34yv2IzafYITw3IFbADPkR+WMxM5aKTAUnQIwgk20dAYASWvU5BMnkfqXS5W5FcYAp6r8HTQgYDEv9zxzIbkzJ0UxGi6NCg80EK/3f+pNexsQ+hVqMTVQ0HKe4ZLMchSzvUdGuGl9Z83VnMHpvq+BuQKQps6yNECdsFoKTAXk0llnuKuGLWfMRQ3eJ7yVyh5KTekmTQSH70M9zYs3ImBARDsUHZR02e4yfCOdb5P/d/oH3+bcNZcP1xdHL4fjcXrvtPzfvmiSn6aXVOHxDw==);lineShape=1;" parent="1" vertex="1">
                    <mxGeometry x="58.79290443134204" y="326.31404972691945" width="1.4955248230122102" height="3.72412583308844" as="geometry"/>
                </mxCell>
                <mxCell id="88" value="" style="shape=stencil(lVjZUhtBDPwav6rmntEzSf6DKkxwhWDKkOvv0xsziyXbXeHNh3pWR6ul2U2+eXm4fd5uUnh5Pey/bX/t7l4fNvnTJqXd08P2sHvFp03+vMk39/vD9uth/+Pp7vj9+XaxXD593/9cTvh9xKUkdSyoFP4cf4lZQv/3y5cj4HH3dALIWXK0gC55XAeUKK0ZQMITGKBJcYAumq4DapBeDCAXGkMt04EJgJOpEUCTVi1AJRQCGJLUAGqXUjnAPqFVURZDlxoMoBdJDFBlZAMYSSJL6xk1xhANpHBnQWuRSLJU4IB1SbsMAkhj/r2SLwQJxCeQs9kgdEgnaRpSLb01U5eyFBvzaFLzdfsgxUbQ0T6EGGt4Ky+aKDk/zn9X4jUJxL7JsPGWSnsngmVnzfaWsss1g2DYDKVCaYTzulMYhExSBMFQB4gSWLOpdKswTSKxH+pbJ0gkCqZJgjp7RlK0SfHnM/8VFPPnZ1ICUD5XZ896QHVSeE0olfiTJlxrLIHoKR7gSpyks4DRs/b8TB2CjLxx+N1+MHsw0iYULGcFS15VimRmj/p0Z88IBKHNyftPRAia4yegZNL0o0ofLv9NqX11I5kSGv5EW684A7ps36e7JwRl/uucK+/2idU3+nwGKorQfLezwJ41WJ2KduIP4wPGnPenMXuV5BROIu8v9Q08WLwQOKfRUkm9YB89P6kgYgr7fmT1RT67PR/9wvP/IfuG/LjVRhrxZ1m2XD4z3f/KOnRXwJhj8PLQq1KcglY6JTGyvCRWuv9FnZp/MukrIVGsfg/HKpFIVrEaRMsi7CqMdssTbJZ6m41xLYZi+wDKxNZq5MRvmJl2cgleWcag+1nJfqEbkW/JZY6ik8WdNQ/K5G5cSCtTXzxBbaXB307Sij3cL4FKd7qMv23QuEAp4dLCTculzNfMHPymn5RKHu6IxQYNDaB3ieCzFFdVuLLlyHBDrc4b0mVVmik5sWcXLp2au9oXadTeXT2WBmRTxBMPIlaJJiFgp9oARNbP8SxDieo8zkvJAwoDoKbVAxKpMq4OtXtAZDI5zt5vpOnkNU3SM5cKU+7oRSzy7evD72j+A4AP76+E7nePj8c3Sqf/+1dI+On4+il//gs=);lineShape=1;" parent="1" vertex="1">
                    <mxGeometry x="62.869037709677485" y="325.8209823159616" width="1.213513271257759" height="4.071858430419107" as="geometry"/>
                </mxCell>
                <mxCell id="89" value="" style="shape=stencil(lVfLctswDPwaXTEk+D6n6X9kJk6tqWtnHLdN/r5QVcoGbK2bm0Tt8oHFAtQQHt62T6+bgd3b6Xj4vvk9Pp+2Q/gyMI/77eY4nuRpCI9DeHg5HDffjoef++f5/fVpQk5PPw6/phneZ56n2CYSu495oASK7u/I1xm/G/eXeE81KUJiSgwIjYomREcVELhS9ooQXB+5SQjVrsBM3NYJsVGqiuAj1bBOyI5SUIRGDuyoyAl1VBMxmL96SlGfgAIQoRVqReEdOYS/CimOaGvkm9lPBAEVfI7mvDFCfGMTTw/w3i3nWxQLxCCJZIWqI+QLlEAIVgJHpUKCM1knzilQhGgIiRyKUqHqLCEg2Qp5ndcciTMgZKubCA0TKRNrghfz4RWcVnqyGgrrNeGODrknQifkewtkHdXQq8FqULX3fY/BGv5fQC68ibwjaWG9CTVbSs95PwV7LWl8pIDnNwW+9IH/9qaHjMn9JqKpj6yWF2NmGcHeZL2C5HXGImQtmkQpozNUm6aTN7H7P0eQnlC0bry49XbT8eQNoUGCdDWjdAg9V24SkrOpFxqs8/KZtXCxkAPCyY6DaSQJbmkq0jr5suQSIEjf8HqFUqDS3C8rS6tqUDfuJfpcv3BzFp2bXaCiZtjvNgu+UgPzX6ksFQoVMNe72IKP1CCetQKNYTN3vel1fMWXqavyUhMVUC2Wcrvg8eXF2XiWBvu4s3epknGBtMYvsSu+gv/kjfwuXh7O1/+Xcbeb/x4uv9vfBRmafzXC4x8=);lineShape=1;" parent="1" vertex="1">
                    <mxGeometry x="71.36861068255882" y="326.88229055865924" width="3.7663429545028615" height="0.5951198730336298" as="geometry"/>
                </mxCell>
                <mxCell id="90" value="" style="shape=stencil(lVfLctswDPwaXTEgwRfOafofmYlTe+raGcdpm78PVJWOSVZb5ybLWBELLB6c5O5l+/C8mTy/nE/H75tfu8fzdpIvk/e7w3Zz2p3taZL7Se6ejqfNt9Px9fC4/H5+mC3npx/Hn/MXfi84T5FnkOe35YVTKv7Pm6+L/X53uLJ3QqE0AO/qm38CfKAcW4CnBABiLoX+BJV1QHCUcwsQYl4HREdSekDWdUBiSqkFBJIIAEqx9ICc1gE5U2nz4Jky4FAiRW0TlyiBKGkm13JgYgftVTt75JCWSrDam4eAsSpJRyAQZwj4K8xLiCJJAFJlrjKoCCnkEQcldS0HkwoGxFZ6Schj1p1L2VMBJCysvg1rtk/gPIe23oojB8StF91cnwAKVCPpwAEVqAHE91ESdEIgLX0eAjohUGkBlmmkDXOJu4qOFJD67O9Brg4BErmWdMT1magM9YbznH1nj5qeCSm22pba+teU6rvJwDXIa4DctTAHm+RcbW3xiFBBlAdAyJizudTVs9Y0rpJuAdbJFQEsqm0WrJMH5NKQtsKkSKmfBdhk6PJQLnFbmz3aNgB1dbjcON0+yunG+am42sYJbeWBut64A8z1BMbbuGVYoAsgPe4x80RF42fYlBT3pHEVY1zSru/DdgCqHwuqDFkAMeL6tWshgd2Qa4++2ONNj8m1Ec2h9swV+252JssJCOhgHyMcbIM/wVo2kMTAV0wRIP5DPL3WDN6WL9MgytegBztR0Wr+yd3///b28HHReNrt98s95fr//mJir5ZLjdy/Aw==);lineShape=1;" parent="1" vertex="1">
                    <mxGeometry x="72.46830054898444" y="329.4749323433034" width="3.3484803440247504" height="0.210698744282022" as="geometry"/>
                </mxCell>
                <mxCell id="91" value="" style="shape=stencil(lVjbUhsxDP2avGp8kWX7mdL/YIZQMqWECdDL31fbjM1a3pzQt81GZ23r6HLkXbx5fbx72e+Ce307Hb/vfx3u3x538csuhMPz4/50eNOnXbzdxZuH42n/7XR8f74//365WyyXpx/Hn8sXfp9xHKiUBRXcn/ObRC79e/H1bP90eF7Zx0wpWvsA7APlyZ4v24dMXox9ycDeUwqDfaYK7L3Y/ftAIQIAU8gjIGFAIOdHQCUPAJUkDfYhNp9t2isD4/dDgfbJMhy5+XjTnpvDmz07cg7ZpzraC6RY3ccjw54qCDmhPJ43FXLQn378vkQqYP9KGI8LSG0uvhRDMgIywxU0SMsYdLk2p13KgjquUPQMAKCUxjFtSiYGAOW0jqxVR1wAYAq7GmBmpthY7QAmAXEhjuLopZqa37YBGmdjZFdpVG5njqOcLADlcp7cqluKoNxl9ZLZkiYzABRn61H18AwaCCb4SqEImC5iK2RhyoC4UimYFRzMB/WJGyuGOtqBFRRgtnQl45Qmny3Ag4xTQB2Jk9LK4DYgU64TAFTJWmzZ0y05BFC3igUwqHsKMNGqgIrOUG1OKw8Cgm8BjFvKngJeQbIFVMTDVIxzgOGtbuUJkJFbM0m0gIoOLa1WrwCQaWntZgUQdOhkG4oCUMddEshbtybEg/abMTSU6Yp6IjdVtAJAprXOmS6q3GNAnQAB8yBTxsEzTB1oSVHQUDSWTENZVkB1qWfw6gwRh7dM0iGDYrxkHFseGIkT18XXKjau1BlTyRSQ8SFsQlwBsK3GRZMaMeebF1fqxINg0r+tOvFNhm8DtFEbdcJNNl7qu2HckoYXgxVyauKlA2oTspfERjFzgMNCWlLz4moJKLHqpJgqnMZSL1yrUwtgjpMdBjTPBc2HvS+vBJAHW9IB0Y+lrOAup/ODObQqHBRMvtgBqPiWttuA2EpjTwiBsVGanlolNRKuyY6U0uv59pGt1NAJSECVcW1W6PY640J7U2KUdlQnnW1XyjpqV86qhhhbum4TYLNf5yEkcaPthuoxNCEm2wx9hiW12ClgGRnRJYO3qgdP6J6tHlaBjJpCaZ21OxSq4Q939APg8TNRHvfvcNJPlzw9Qj55ieQgX/Ml1ZUbiWhrNZ5HeBrzHMwXtTcB6q5V0eSM/x36fmqC9MMefr9fuPQEgNJryx7Vq3k/kRh9fzpvbIPGJ/3JcEiY+WI4I8zxwLDF/O+l6HV7ffi4gX04PD2dL3DX/9sbW311vu2Nt38B);lineShape=1;" parent="1" vertex="1">
                    <mxGeometry x="83.60343191826883" y="325.1809934059046" width="3.7924935913570286" height="4.786957612954359" as="geometry"/>
                </mxCell>
                <mxCell id="92" value="" style="shape=stencil(lVjbcttACP0avzK7sBf2OW3/IzNxGk/TOJOkt78vqkeOQNZx8+YoHGmBwwF2JzevD7fP+x2n17eX47f9r8Pd28NOPu2YD08P+5fDm/3ayeed3NwfX/ZfX44/nu5Ofz/fTpbTr+/Hn9Mbfp9wjbROIE5/Tg8yjfTvwZeT+ePhyZn34swHjYrMW3PmnCgxsh/+9dyJ27Z9J+nOXirVvm2vxNnZl0IF2A+q/vxVqIHz50yZHaAxCQhQFsr+RD1RBgnI5uDwAAsycCErqTiAZqp5G8BMySdB6xyGy4BKxTutSh04LZnUp21YlAYArPIwhFS3AWVQ8VEahXLZBtRBWuKRBnC6GfG9Dzpm8l6maqGWPKBTEQBQyuoBZX5ymdyZiq9lxdVm75PApTLX92VAp+TZ2pQE+GAxYe9DS9RBWEem5NlaGR7J0hSiZCWNFMwA3X9BOlUEEEo+cSYLBfnApD5K2eKGVEZiWHOD1DBADapdSdGRTOZSBBQgAqPOLi4AqICGqVCOAOh0nzViAWDA1qGx90xaCGRmrETAwpowYHAEtCsATz7LtCAujdgQDTCQ02NFDcXkU0oaAYp8aFHI8sBRqit6XwGYqKx8UMQloT5WTqMvyMzNZVgRvTk2RQMw0NapG4QCMmpgH0QiICFAoRScNnojQL0AYOR0I5YIuFKiohGQUR4sTasSLZjevPqCoiNZn16VaAFRyilF+Z7UGKT644ipqlcdArYU+7f3wnoQmiunOHmxLJYJLANlNblmnGsOk2ues79FvxYAA9NPYupscmUUpTxPwud5hqG62ngiYXLt0Ad7XwirfVPRTFajDAycB4tJDpNrh1Jm+0ILgygWy1qjWBpZ0PRdNC5ZC8ZfRvBqXh/zEHV5Xrea1AjIgN+S4kBjYUJda1pTPZmmpgES8d5BzoBEihct9nGdpl+0yvEs1wu6NrDVjFhAHbP1/PnFqljB++tqWMfnkXkiXEgGaqIc32+TN5qWVuVsy3oD/pp3nkTTug/eb4uzT9iVy4YUV298l7HuCnDPSNHbDPtUiqtYnqO7Ya5eVhI1UJA51qN9DkSG4zXJOVQbxEnRHMmJxFX7ivpEQcSHqfFKCLtqgj4+EMi2WotgmtqsSf9Hgg9fxl0xtx/v9373h8fH07Xh8v/xntAene4Y5fNf);lineShape=1;" parent="1" vertex="1">
                    <mxGeometry x="88.23512484002174" y="325.44165582668745" width="2.3706697982636595" height="4.251097572328884" as="geometry"/>
                </mxCell>
                <mxCell id="93" value="" style="shape=stencil(lVjLctswDPwaXzEk+ABxTtP/yEycxtM0zjjp6+8L1UNFhKTN5GZLWJEAFguQh3Tz+nj3cjxweH27nL8ff5/u3x4P6cuB+fT8eLyc3uzXId0e0s3D+XL8djn/fL6//n+5myynXz/Ov6Yv/LniMrUygTj8vT4IlOT/g69X86fT88I8ZqpxsM+kYd/eXnMY7GOgAgApUNMRUChUAGiU2gAwFzTuA3KlkEZAo1D2ASVRHH1OhVoDAPVbypkKWKFminkA2JoV+FCF6gioTEUBQEl4AEikDFaQ4BMtShUkzgBpTFyrnVt7W2IZAGo+JOh0Hp3WSgLIOoW1jgDzAQBKozJuKYZAAXhdMsnIbxUSRCamNLJPjV5oT6FzbY6rdALvAVyYZE7+HkDHLRk3GgIw1THV1eiKtlSIx0TYkwToaonIoyxlgSvUmTozwOKGuCGefVbUEfF7tYJJVQKZFvFOc+26sAlokdQBEtySMaeO1IiVMgKs1NvEVUGUtHjZMICAPFhFalgBAJe0eTWetpQhQFdOJ9AgppqvHgBXUFLXgox8yAft35sBrVf5HqCwByioB3NanDDZJ5APpkLVA1BXtMQ5algbDZgaTmYmAFoh9zQttgSpkSirBzBymklXYYWJYxJXD9I/sQfw04lV+Qc+OHpX2KgtSk6XDBAQwJTUkc8qDgFsAysREKQa0pvmAtBwibr+YD4wWkEpr5yGMqOrTAtsKIs+vuAGjKv6zm4AAfJtgDD2LKMrmqU/DbCByjVqtkQA6WvsyWSjbsU9y5EpMW5y7JtcMnqBKFnfbe4AwVA2bIgLDtC68mwDog9rqXAFGzacVk5rgrAW6TFZDExIXMtq2LCRLKMTRCMenbbcJ1BBNfgoaYRNzqLkVMCEBE5Yq2HDxBBFqZbePxY+oAIyAKuPUsPUyOvBFW2J+5lnMbgmNOmqVw0b+BG97bVbIRd4CjIyp3GFJH323QbErhFzTSt0OiWvlcx9hNo+s9c+WizFFVDDGj87IeM+ym6rcfTUkN4xtu0pjsRIfcFN8+AHPoalYLt3Fwj9FLhj7uSF+ylzz9y1ETj0BIqusfWi2DF3dJuvT3bMV7c9aIqMlNmZM4iM6UFz5gHxrI8pC3N0M+RnZjMHgcx9Lns3j8DVT96DfWhuP96v3B5OT0/XG7vle39FZ4+u13vp9h8=);lineShape=1;" parent="1" vertex="1">
                    <mxGeometry x="91.76225927202367" y="324.9997142830981" width="2.7108810143670166" height="4.518737349649875" as="geometry"/>
                </mxCell>
                <mxCell id="94" value="" style="shape=stencil(7VjLUhtBDPwaX1UjzftMyH9QhQmuEEwZ8vr7aOOataX1tsMpF25mUe/q1S3NbOLN6+Pdy3Yj4fXtsP+6/bm7f3vcxE8bkd3z4/awe9Nfm3i7iTcP+8P2y2H//fn++PfL3WQ5/fq2/zG94dcRl6nFCSTh9/GBUEt/H3w+mj/tns/MOZNkY19JeN1eEmVrz5E6AMRAlS2gUwoAUClagBQISJGKGEBMJBUA1AGboyRU+jogJ4rJADJTzADQiJsFdJilEqgVAyiNAgi6CNVq66aVjACQiG3QjSkVCOgOUGCWSqZkW6MziQBA8S51/UKDALGV7nW8Yg0Qugc05FKmGiyg4SxlCrZwvVPAdRD2gITSGi8AYAxCHDygoy8E6jYGDgF2n3ZzywufgMwoIZwsKSCDNOVKvS7yCnojL2RDK5dBmnKhtuwN9IVCNXkAI9koXme6lgZlqVC2sqGUCwhQKVlC1DqcXKuDS2vRoIFWFvYczTjoqb+tS0lpjqSvUbR1iBnKd41De+cBkYfcXgb04cDc3ypVwKW2ECZtLkCHrtpqs6pDDzik9l2cPRonPfvpoPQEGVIZ7cHbI/+rl/oAZbUv2ByG9F+274OJJ/sOqDnplbVnyqBek73lDeaZ2ldx9hX7z5b5EXao5sdpka4oYIho/qPbYCAptb5S32OvhGreH9yfyccL+z8O8T/LJ3p/9EukQAJP9lYieLxgzb57PnaU/0QlOfuE/Mljdp3xBfVb8fFe5WNZ8Bf535bvj5hfrt/Ctf5vno8R8PFsfTgBOhKUvmwgWGANwApihDPm3fbsBVEVACS0ZYqWYFzgHNaR1JxiFViyabt3klLgHK7sXdI5XNHgbv6gppMebuN1LGRnZxZ4BFHZslWoeOMq88HvH/ehsiDalY3r40ThCP5xovjfJwpBWdIvuEJgndEYxGWJhxSuBm1dUsp1/AW2QTeGy53G4NKq2oa6LyfK7syiUoVi4OHxDAhw/KRGbNs1CxUEmPehWVyVhCBLsfqNQeUbrfCR/comDe7AojuM26kYLmHch8dnMysDUvPijkqfoCyxP5wWuDWEMZ7mIsDG0xXHHUwpA+oEr6oZ6tFigdGVGJRL9z+bfN1Awf4Shqsnc/R2Hvp/Mg/g7ewHuYzjzuXO8c4ITGT0q5Tg21nfZTK64jJ3/U4hg/wr5u+67b5qrj9OF+sPu6en4738+f/9Rbw+Ol7ix9s/);lineShape=1;" parent="1" vertex="1">
                    <mxGeometry x="95.84001900883766" y="325.0178584999935" width="2.2860714815055765" height="3.796235160550373" as="geometry"/>
                </mxCell>
                <mxCell id="95" value="" style="shape=stencil(lVfbchoxDP2afdX4bus5Tf8jMyGFKYUMobe/r7Y73iAbH+BtMTq7upwjyZN/+ti+vG8mZz7Op+P3ze/d63k7+S+Tc7vDdnPaneVp8s+Tf3o7njbfTsefh9fl9/vLbDk//Tj+mt/wZ8EZKmkGOfN3OYiJIv8/+brY73eHC/tA1mr7TA7YM5nOPgN768kbDShkEwAUKqEFBD8GuEip+0JyY4C/5lIGLgVL2beAAgDRUIotgEEMkSk2aU1U8hiQcpclcbKMATmSywoQIgUzBhR5n1MAL3UALpVMpmiArYm+TiX5mxVA2GgCAMSWfMIuB4JmYatWgyGDPGLyobFPFto31PMUUABMRQcgWsD+s+aRDdXD6+Ixa4BrTu2tFLFOkfjkALfnGLQYfKCIAakBCNuBPucqaCIFBwUtAKuDDp4ikBuLfF37BdSUBBAbbpcq8RGg4fbcdYB6BOD0FxzuALyWaeUG154wdEnXQdQD1SB61y6tCh/Z54Z79WBkz7olGdwvmFxs7GHRVpp9+uNQRpmyfn+igGnHTTsSFuEPsCaFxWNhBjSkiPVkKM6Gpw6O/zlmHYMQ2+CkhmaO2CqmoTh10CLOgGN4EBBbgMxCNNpk8AQNSI48ULOMNquDTtLU0Cy0dSlapZNqZUbj2WuuFn9zAdAusagHzKrYqUHyFgA1+iWGM6WH1iQBZEDvfhHjDFtYv+oJAOmhXyal6SCJ9usq4+2z24fn2QK41+3b87QD9t0+fzHiB4C2agwHj6GQ2pRGwCNTrwervYx/UDPp0Y0/Bg5ziU7bl1i75sheF6yY2pbvsxfpJUChzp9sKgnvizfFOubuy6f0IgN6UVcvETaayv1VRC54MP+PXSBv28vD5231bbffL5fdy//b260cLTdj//wP);lineShape=1;" parent="1" vertex="1">
                    <mxGeometry x="101.905384005889" y="326.00087358283645" width="9.361555415354694" height="0.37435956439515106" as="geometry"/>
                </mxCell>
                <mxCell id="96" value="" style="shape=stencil(nVjbUhsxDP2avGpky5btZ0r/gxlCyZQSBujt76ttxhBps4dp35ags9blSD7anVy93N887XeZX16fj1/3Pw+3r/c7+bTL+fB4v38+vNrTTq53cnV3fN5/eT5+f7w9/f10s1guT9+OP5Y3/DrhMnFZQJl/n35g4v73h88n84fD45m5kjZnnqjptnnKNLKzL1QF2HfK3l6pt237XInZ2Q/Ssm0vQql7/zO1sQ0omZJ3KCkxANREOjwAu6SJxAOyUAYnNKaePMCSxAAwSNQDBg0A6ErFuySZCijzsCz5E6RQzwCglKoHNOIEAD0GLWPm7TKTmCM1rJYIMQYV71Op1FAQjcSTqZiXgN2jkPhmq3k6eRnAk5xvgEoVpMkqN7xLdUwnLwOE2AetQorJlHwhtJOAoFuh4UdGE6ogrcbv5snUOg0QtNpQ8kH3MsfIZYCQ+Bh6hx2kK5eM8RVNgUHsx8aoVEAdaqHGETDA2DAiZI0ABaPSAL2tACBLVWfPnwE6qIMBRgAoZZDW2mI/GABdJwaoAdCooCytAX1Onk2XagSgnl6C9i26zBEU9Gq4GgCRzwo3PFvPZtsWQjgeMRA3jH0SAQ2V2hqsRUBGlRMaq7wqKoTEgW+lHviEyO9GGZ1Q4tVu7EOjzwCRTArFktWBVy3XcFPrukdxy8U64DvLADGtOm+ArYbIEgEV92jkt70CxdDm+84rjQFl1dQwS43Sit7ogqgrmWsARfP+PwA5xGBSGc0ZU8b+kjNxkEAdTFcGZf8u6y4DSpz3PUGZaBd/8S41heqk5VmmN0CCqq+t0qoViunOVL1LdnWji9qUQvEuWWUYpNWUQuCSKf6BVGKaDpypRKTvF5XoTzAdWsH0Xhoy6FBbc/AJQc4U4xI6IUW2mlzvSFbWKMkEx2ASr4aFQCA1dERZuSw1SPTx3DzP1qaChoDtWd6l/MGumOIwttUvg6Btq8phV1R4sdv2HNS6ra8dbUFtEuFdO8CpkVIMuuGxFGVrnZLu8uspeXO8bJjsDqSAFeO4wFkbAGc4fmvA5eV4mWe4Wa3WzwT1PMeFwcYGzEwqwRwpEY5Cm2fdNszDnOYPQh0SzCHHIustdvRNKN4BWPz+4wetD83t4f3b2d3h4eH06e38//Fbm/10+k4n138A);lineShape=1;" parent="1" vertex="1">
                    <mxGeometry x="108.73893665158306" y="324.22777899316554" width="5.217905034244649" height="4.4495032084901425" as="geometry"/>
                </mxCell>
                <mxCell id="97" value="" style="shape=stencil(lVnJblw5DPyavgqidp0zmf8IEGdsjMcOHGeWv58SGnwtUa/LCOBDu5vUwqVYpC7x04/HL98fLsH/eH97/fPhn6ev74+X+NslhKeXx4e3p3d8usTPl/jp2+vbwx9vrz9fvl7///5lSI5Pf73+PVb496oXXOxDKfj/rl9IdONf/P1+lX9+epnkoyttkccK4u/LJ1fX9aO4Uu7LZ5eMfHOFrF9crIt8qi7k+/L4VRb5XHTHU/nmpCzyJbue7st35+MiX5NrkcnXvMi34Ao5v3iX1w1ad4U4TMQlvyj05KIQheBysTsI2yHqevMdiE0lOR+skZiToVC99UJtRGELI7g5sh2KvcOII+I3qU6SDdTIFJrmyaHgdYlzha4HmFKtktAI3jpOeGxjPb/eYQQLMSuyv647VJfZBoeXDqvS4Ea22Su7zMBIXDAXcELOH5PLq7x3ka3fNGhu8p6BXXBJjLyQmEhFsfAmz/Ige4sWQs+fk10/0CzIsP+KplENdg6+CJf1PNl54t+SbJZVep5SFEeO+yLGCXaV5tKKLAM6mEJXgx8WgotJCNUtyVCCAtmhigXsiApLLl0R8+uRkneNZFmNFuxS18Q+V0gbOgLN2A7ZWgn4K6SK16InPhyNyGNludlMxjf0SN1CywdFp8EPa2y37BpJngazGoXKd4CVTGlufIemVGWqtIkodLGADQWWD71ZQMKenSsYxw0F4uneFYGmI7HCCQXDIAeBIWaFQl/v0L0LrPj7A6UnDUrauv58KIClMjMh+tZb90Bp8zBTtwqVoEA/zH4oRFp7hqv7psDs2iwLw5Goq6tFASgU5mpQqO3SjElCwXAk+CGzS1fnjZU8TbmxQ7MKUqlC2vk2P1ITq0B32FGg8Whtrm4403nwyZZy1A99w8pOiRgUWrZm9ezSyLhuFSrfoa9HQmhEDhvGDwg+z4EpbwqZQ59sCtQPTdnvnKIEyX5dwesBJoVOonWUtGYVCgm+lrRDmEGAKYidAAxPk9BAZc8mH6oGy7kC7mCiNVHkAzsxvVvttG8AYTIZB87Fejf8HFcrgTA1TvrsXKLSDhe0UlYrgfQxP9SD1x4Kooa+x6VNioK4duK4AuQzs6FKWSLovTHr6GfYkbItu+hwmVnL1vDJwerOFYJOa6aOo7EGwiswHsGnlzpvsap66dYCsdBDC2cDw3W2vj9pycj50YLabkML3r0W1xCZRNufuNGSpKTgXD5r3ZhGBiSsY9CO83bfSGIudEvSC7U/3GPkq/Zz90YezVBJOp7D9cyAUQIdGKKFNz29VFoIg1iPoatPxGVjKLKGXPR8JtntiBFeZ5MqaWqTadrGmKRs0JKLFq6747n10gAbNooBkNi8zJRvQ8FUfzSMgc3zss7KJlLF+LYkLd1HKGXa1yNygh2X8IGVeJttowFknEeNOB+J4Gnbhs+ePhdUbbsmo9KJko0LeC2wkmM7w3I8IJzDqW24EXeMTyXLtBHYbP4Ut4Fbp/YM2zAp0GHSnvtB6dipvLfPF6iXrNxsnTbkWaPgt4lz1DS6I7+jIyuvXmfwkzwDx31kHihMHN3lNDHvDOlsQwt5ll/bY82QJ/Eglr6P87CnF/XmfF9WPCxThjx9IbAD84+q2S8+P34sjw+3t85vT8/P16fS+Xf7Noqvru+q8fP/);lineShape=1;" parent="1" vertex="1">
                    <mxGeometry x="117.33833098218344" y="323.88952479201106" width="6.710673650134086" height="4.719028499876743" as="geometry"/>
                </mxCell>
                <mxCell id="98" value="" style="shape=stencil(lVnZThtBEPwav7bmPp4J+Q8kTLBCMAJy/X1qYs16p2e3EiQejNlipruqzz34m7fHu5fjwZm399fz1+PP0/3748F/Ojh3en48vp7e8engbw/+5uH8evzyev7+fH/5/eWuPdk+fTv/aP/h1wUXgwDSfszvyzcuiQ9/v/l8ATydnteAKt5qQPD7gBQlxukEuw/IVmwYAVEyAwSp6kpBTCGAJFVdyUoxBJAllQFgi4RITyh1BMDR7IQgWZ1gxCUCMJJG4jL1asKfxxslsZk878WNLETxxIBYxI0GBOrS6KRY9Xwl9w9JUwBRkP8fTPf31T/MXu8lp+H52h2w+Xxzdx4Jc2JIHEBiabyQ5RbYJHFk2FapjgCcuJFi+DSSKxXJKtCqBKYJMePzHhyTC0HyimIjkVgMyY1hCdI9ub/XmQWi8vQ+KighWkueRxCPkkBQZOKfqkMgIVmSLNEIUzEcuknbgCURLoAqlmmoShopK14sCbOWOUcfldRVsg0oEhWgUhsQaE4FmpVMWPCli2YB+B4Z2zSHrpoFEGjgRKNzS4XUWfLKEpwGMGWkIGH0Us2UBxTBaPUJlVWcovMRAIEQV1CXFQ+Regk3Lh/ioZbeSawArGoCUMp0ArGhIr6SBmRSNQHIkzQYDwCoVgEAdiVrTJfOyq9MTDiiZA0I3IhYNKBwgFVuQvHnRKSoASyzAmDNBGDM5cmG1KvFHsB6bXRlJyTdYNRF8XsAbXTk2pgBoafb3SsFDWBdYV16lpW+C6mIACSvAZG0wo24KYKo+EpvWtaASsWnugAAEquiVXe2AFRmQ9V1HW715EpbMYregAUE0sCkPtZut0QzZYHMmJvmqlaDmJtKV8I6gjjVHwOgQmi5FmoDalBScgX5xIY89cSNS9aRBe2lFZfbpRpls+ojEhEHmgHjtNWs8gYvXqWyLJW1uUvp/89S7a0EdUKgM7ebRgf0WKy2X+ffpYsD1SyEcu+cFwCf36wXMxpdTM9VO820YjpHWtqTnlcxIbOShUZhTN7QViRatV01q+EhkfsYPYxhOGGcTSkpRCo7q2Xqa7dom+KeQ5fnfe96t+NADz+YeCsrDHoOwImsrbeYNMYDoCnWQ2OWCWP+gqZYywATdCHhKwDXNxzXFQnLwHC4oowXNhCqOhJLYwyCUYOPoZU2Ft3c8tSYlu3A9Xm2csI0q1YktjcPezstr9ZslOC88L9aCZH7I4GotJj7F9vPT+N227GRkMGsrGK4ZTHCAABVeSjRTSSSpkqjULnlJ0S1s3G0hYST1Fzoloq4zUIUN6oCYcMye5r6CtQr5qU0TZ4AMBvmnXM7gShp3moDwEI/Tm5tAL6+VDtnb3oXugdQwQAAG0ei7eJfASwpIADoDIxOhxAHQJiYNmz3PwMKHRY2rsRbo9notmdlVWpyq+N7kpk4AKiX5ohDt8YAH36l8m8APlzf4Dycnp4uL4DWf9dvfPDV5W2Rv/0D);lineShape=1;" parent="1" vertex="1">
                    <mxGeometry x="123.71835556147428" y="323.81401820100126" width="4.445289267364714" height="5.174422132224435" as="geometry"/>
                </mxCell>
                <mxCell id="99" value="" style="shape=stencil(lVnbcls3DPwavWLAO/Gcpv+RmTi1p66dcdzb33dZDY9FUFq1b7bEFUkAu7jwlD79ePzy/eEU9cf72+uvD38+fX1/PKWfTjE+vTw+vD29469T+nxKn769vj388vb6+8vX8//fv4yV46/fXv8Yv/DXGRcl2gBF/fv8gYrqvx/8fF7+/PRysbxKaG55I8u79LQsD1LL7eUhSCrL+iSayfokbT19kRDJ+iq6rm/SO1nfJfb1/DghuS/M4QFFKtkB9tfVoPiJTEwEi7R1B9y5BwIoksJqUziBGAk+rnkFNClGADBiXQAZh2wE0MV0ddtht+sAk7reoVQxtoP5wKhJMnOczSseAONWwh3WUG1FcqVWsnWHrlLYHaq01Q8d0c2sBE/HFdC5H3T+3gSYijG+gc/qj5QYwCQGf+nOrKSSqjdrYsEXJayACs+wHbJXvBpmON7yQ3HRmnksweqOD1U64TQIqavjks1DXgckiatqJH6HVKSsO8AMjNOgfF7vAN8rA5ioA0QxQqCs/g6gIPEbNMVtgCOy3y9eM3AgZRsUL2MBOxBlBcD5eRiVsCEfSn24LVKRQdy47JCRfxIF9FWVsklnR4JXnbL2ycDrAPOBUSvV7hK8yLQkiahSSRKcshpNuqV4RvckRqxU4Nf1SL1JZQAYcaUPhDISQEVZtVrJoFMklmqeJz4Aaebt64Du6WB51mZXAS1ICx7QiCq16lXJCpUASLttgMAAiJziAZEcCUZ09dudHaxLNn/pThhnW1ofALaDzWC+PBIhEADeD4VKMQA+NFCFs6SrRw1/gWj8TN5zTRIh9biEegCj3BUzcZ0ZjsgewLRyuLpvAHaHvsV3l8Ki7xCJC0BkR2q+IMMnjHL42knf+ISQeny9xQZLQQDslGMlHwCucgCA5V0A+sZR1sSNQHB3yLRcsq0KvQdANZW3I3FA3TiaeXj3TQWM7+C6geG4OwC3w53Q2Fqge8Fnm1Z2muQA8Gp8h0D9CoHuULTuIsAAcSOQUYqOFGQeUNhEQ2d3cQGgabT4kuxCn29las9Roy1+bfOOFwCWIdAM+/huNFyrznRwmYOIXVFiVcfRRIUJPZUnhNKKqURfk6EXZcOcolK3Bpy1x/lIOEchivqeNQR1mzo0Wp6gIXDCVIz3KMlHX1FerqNrWimHDoK2WVHK6mn0KCy+AXB9HLqgyqy0FaIhT+W51Vo66QtG1ThttXGEGpPQQHvschY6bNZy4Gs3m8l8EDpmbuulEV2svh/dsAsN3IEB2pwmXYy8CqHomBu68FY+58s+QaBF6Gy+lLwIdJiBzWaCb5s6T3LYwXWjaP0ykRncwTmuGe1GYaXmutE8WX5rXJRXs1ajBdOYt64UHY5jVqpzQnyEBm9fcQeXRtGU0+DL3qxQKmWjx+RLAZCW5YePh4ALxjERGO8SK4Fil0AYF47i5QAk3jZVH95j3EnuELInUChz3HkdsIlxiNQP5inNNaNMch2BxF9P9scTpqrBvyOUKfxXl6uviDMdy+rMrB/LmXipd26iAq8+ISSaNbf+Oc6U9d9+PdLuQn3SD1Sy1DdgSke96lOZ0meJ4FtUpdOL4FsvXsr+z9fFu8vxx8dD5ren5+fzO+jl9/7hEx+dH03T538A);lineShape=1;" parent="1" vertex="1">
                    <mxGeometry x="129.10085931900682" y="324.7473829641145" width="5.605377771761853" height="4.176451815390065" as="geometry"/>
                </mxCell>
                <mxCell id="100" value="" style="shape=stencil(lZjbchshDIafxrcaQBzEdZq+R2bi1J66dsZxenj7auvBNWL33+RujfUBOiLY8MPb7ul1uwnu7XI+fd/+2j9fdhv+sglhf9xtz/uLfm34ccMPL6fz9tv59H58vv5+fZokp68fp5/TDL+vXKBQJyi4P9cBR8X/G/h6FT/sj3fikbzrxBMFIJ5IQifudfqwLF/I9dN7nd8tywvl1MkHT16W5XX55HtAiAsAAqXSAZyJ0QqRauyAqCMJAIW4BxKToBUqlV7pHCjzMqA+9rkDiqMKVlAvJwMIxQqATKXXQSIJ8JtaXXo/SG0jswDfwrIBlaHSrDbpt1RzM8M8oDs2gHoGKM2FcrAA2lL0NpYUCAhQs/KgQwTpFkjMCupK4IeksWQADXiQoLm0fL8BrlWQ+YzWDfQ6SIH5IJ6i9ECiAhwnQqUvGqKhAcJbbWKBQA4EXxXrOHGUQdVQoPoBQCtUCmkAgNIKmBRVAGWcAmKU9uSApxWoyQIMdPDO2eqtRF5ZIlqggviuQ7iq59D5M5nJWyCClJscMcRGAuGqrpY8ACj6ZEiIAHNUgRAtwEgHaY69j2+Qo1qG6uC4ggGpFogoIXSFAUDVWHXwBnBtk0tAHHIUtRqT45wFVqLVxwHAsRSHHC0r4c2D0hiwdcbDfJjPUVTwpyWKBQRrLUO4egzkIUcZ1z4egBUdPgmkAWAYfdq9sPFcglVgsokxa4EFv6ShCqihQWHKQ47q0Y66jexaZfxo88Dt77v2JIFwjdo8mG5D2shSxyT9GTTlFO7JQp9ydxE/T3Db8t0S6JjTTtTcaaY+ESgRhkKjdo3Ac9pN2070dm1Z6tdt+50oovb7dqbdGvxKDm3Jke+VLh46Qm81psfK3KaYB5K9iKYIq4DezEx8R1UaRJ/e/WIP6FUOZZCeKL3OkyfBAtkaVS+jGdgo2mZdbVBQqLae8ya/0pBR7XMhtVI+K655YqaH2T8cJL4VqI+J4yvosBl8mDvbtbl2iVgQZ/voEaC4ueg5eKA5G5iqDBD39iTABcvbpmJtdtNSOJyGNmYcLNB6iiVrdyj+qcemVXH9+P+u9bI/HK7PYvf/23cwHbq+ofHjXw==);lineShape=1;" parent="1" vertex="1">
                    <mxGeometry x="134.20543628643415" y="321.5826908453729" width="6.844003675917011" height="7.350331558069952" as="geometry"/>
                </mxCell>
                <mxCell id="101" value="" style="shape=stencil(lVfbcuMwCP0avzJCSEJ67nb/ozNNN57NJp003cvfL16vXENiMn1zFI4MBzjggR7e9k+vuyGGt8v59H33a3y+7Af6MsQ4Hve783iRp4EeB3p4OZ13386n9+Pz/Pv1abKcnn6cfk43/J5xEShOoBj+zAecIdG/k6+z/WE8ruwxQ0gaECDnbUCs0KoCFARs2wCqwBqQCShsA1IDzgqQElDaBpQATQMoQXOCZrQuxdx5uwmoEaqmFRMkJ+jGELVLAYJnXyGQscfi2jNrhyA5FLUGpCMmYM+fBhV1lqGxU0ZB4gvaoQDF96ilK0qdHAigGABDQxeAOmlCKjulLaQmnTRpJzcGhmLqiDrPtwGle7x6Q/XyUCBqWiXR0XMpQ9ExYIXsuZR7My6A3N+5Bfjf7gsAO2+bb9C1zcBeojOwJkkKw8uzcKSzgFC93mFbqsGVF7E3arHU+lYZZdvLbo6bJTRC8+6XRtD2GeqdTivKXsTA96eZBBOg0/wCsGJUoPoRmCmFzQ+5XjVaBHQUXnJm1EU6M3oxfBZQybpEMkqdsuMIWbOUSheo22MNe5ssec49MzcBWSa3Ee3sdhq1PupX2wI6eZDKMeryQcPWepF00I3cGCKwrtXVZNkAoPao+aWEkIu190JGO5gn0XcqL3S1XewzZCfgYBcFISg4jAobxj64dXo1lysDOWq67CmLvSxf7v1G3Cve4ceIFzd3oGGXnsWeXbW+ahoufcPdqJ/PLcz37eXhYzt/GQ+Heblf/2+3eTmavwTo8S8=);lineShape=1;" parent="1" vertex="1">
                    <mxGeometry x="134.75124627915054" y="324.4687703327788" width="3.389730982055502" height="0.6983843243423156" as="geometry"/>
                </mxCell>
                <mxCell id="102" value="" style="shape=stencil(lVfZctswDPwavWJIgudzmv5HZuLUmrp2xnGvvy9YlYoIi9vJmyxhTWCxODjxw9vx6fUwOfN2u16+Hn7Oz7fjxJ8m5+bz8XCdb/I08ePEDy+X6+HL9fL9/Lz8fn2qlvXp2+VH/YdfC86TjxXkzO/lhaXg/774vJif5vPG3DIZ29nLPwQLAIVSD2BHOYwBLpMLHcAbinEM4Ey2P8FHyjwG+NwcaIBgyOQxIMrnnqRgKZUxIBkq6gRhCQCypaJOiBQASyWR6wHiZEkAILRyD3AtM/uAQqaPIUZiDIg9IFliELQA/nm8AhJ5hwF90JkpoaDFJd8DRI4g0zVo1wGKp4yCFvGVHpCJQQHVxPUnWCPyMgARNaKGhWgK5JRPqSV/HyDi7LVRGBaEABRNOWGXuLG4Aix5xCtT6V1KgSxiyRMruZb2ZsSS1rfHYgpUejFFC/uMJE7FIDWasTaK0ycUrL5sdAwFV5DPmqUAmmstOaPzgPS9UfMm1ah/l7UkN2LKGKB6n6jFIblm8ncFweiE1JrvtuSQNuIOALbjjwLyqrUVIDMIJEJmUFIsGTiDgjig8pChmGSOxqgBCRQEC613mfbAJSd9q58Q0vBRF7DSjvsTkofis0a3vlpySN96BPE6Mgb2qhdzbCTs2pvG4GrPbcIM7FntY+vcHtirVaZugIDRu2qWhQ7te4asGm8eVo5pE/99HJKF/ueez3U6DuhXlc9tWdwXnJ7mslQhfeqJgCe5LCtOmaPUfnA1/6+5PLzfAl7m02m5RGy/61uDvFpuHPz4Bw==);lineShape=1;" parent="1" vertex="1">
                    <mxGeometry x="75.33008285900641" y="339.2141633114694" width="2.7503349706299587" height="0.43416183485637555" as="geometry"/>
                </mxCell>
                <mxCell id="103" value="" style="shape=stencil(lVdJcttADHwNr6jZZ3B2nH+4ynKkiiK5ZDnL7wOGRZrAiK34RlENDtBoLDPEh7f90+tuCO7tejl/3/06PF/3Q/wyhHA47XeXw1Wehvg4xIeX82X37XJ+Pz1Pv1+fRuT49OP8c/zC78kukE+jUXB/phc5EZd/b75O+OPhtMI3StHifdvG+0qZtUGGBiGTK9ag5W2DmCg461IAIaREqSqDxJT9toE4ELRLKVJM2wYlU9GsxkIZxFDlhKAMAlMCLDXJkqY1OPLgBK5UsjJw5BzAtznCD3wCHAmemw55zuNtvFCusyYOVohv2n8fqYKAvVsCXFFUAKdyBJskVKooZqaii0G06CM08FpIkSmgrLVZNovyAmWgPElzM9qOVFAeKnm2JyDlsSi52Rg8cqmQ99ogzlq5bSD13uUBBp1nJawynRgasJaGiCnjoE0HEI9QogtVTVIgRuqutq06igjfLKci9gDxxh9PjBhlW/35Hr5qfryngtoL23bhpeGgCHgmcGE044bEVhQxzKRtxmyqWcofJbnZoJPHDUaypmUnxQmF/VmDlru8MexIMnhMGy4NBi2jrel+UQs8QYZn0gYND08Zz0XTyiJuUM3jAqBPkPpGPa9fMcZpB2LolxgRC5qe3Za0mka3XbJrmBwQQDmI0IKNADUw332/UAGcunnwLXg8RpZ2tSSZ7+C99n9caIAoullel47zn3hZ+gCfnT9F+If+mHhLogy/b/gsDuK7fOUKJ1qnByk71H8/u/bfx8vDxx3j5XA8TleU9f/2TiKvpvtMfPwL);lineShape=1;" parent="1" vertex="1">
                    <mxGeometry x="75.88782688500154" y="342.32257277533887" width="3.826253866711088" height="0.3720596024780525" as="geometry"/>
                </mxCell>
                <mxCell id="104" value="" style="shape=stencil(7VrJbmM3EPwaXQmSzfU8mfzHAOOJjTj2wONsf59mBMpi9Xv1rFsC+CZbXSLZazWbJ/n04/7L97tT9D9eX55/vfvz4evr/Ul+OsX48HR/9/Lwqp9O8vkkn749v9z98vL8+9PX89/fvwzJ8em35z/GL/x1xoXmgh+o6P8+/yd218O///n5DHh8eLoCRJlfXwDN5UYA3cW0AorraR8g0dW6ArKrngCKa3CG5ELZByTvGmwpuvHnLiC5EleAn3rbBlTUUqiuEi1ljyuE7CQTQHSlrYDoGgNcdHIBeBcZIM+vJ6DOPe7J977IZ+eZfHFV1g250qk86tQJsUGuzq9+pGYnXqHysYF8YvupLieQZ06k8k1A3jP9a2ji73t23uZSRvlK5avZP9NPQ/t6l9n+uwsoz+Je5QX9QZj+u0se5BsLMSMfnXB5gUzH/afP40354vyB/OpvfRrwnb8fxJUDwBoA4eJSm4DiTTGItBgoQACgTk58TgFl1amI83wFcDppLrIVAlo5icscAMUgXQJjGxAxT2hqpWeI00wXQKe5vUTMdCW5RFJLERfW0CkHK4jJ7VrXibMqQNb6VDXdsEPLDN4JaNElEm4KgPTVCs1H4wzroVufFWVPrXldoUdalNU1AkRopmdQu/rV+fqlSOzVtLCqtTfOEyKqtXfqGspEakRAJfGQojlDpzEtGZnIAJDErXnOh1tWGIm6GABx71AwkQ0AcQ2lQpINgLh3Ru4y5ElxVtezGyLymvbMfjpRkd+wcicH9jfvR4zJMrGxR7LZL9V0R96DfJvVcU/eozwjp1vyjPza/VTq0/a8lVYdq09ln/T30V7Kbql+0B/K9Kh3+pvKs55r7vZKnpGvajIpbwJHMxMMgCUVb5JKpe2Htq0pGgBRkVRs0XqlBFtTLxSoA6NpNcjNAMihSzaJsdK+VKu89VMK6CbRFUoUWnbBeFJlAK1fZgXGy0fR9ghgduhphu5VGS/E+TRXebBDopRwJLeOANYrKKAU3BKj5m8V8grAmEW33UWh8TAAJqSPVrA5iQOqCdHEDNeREiqAcRcFQMusAFYGtQo0E9Odaam5bADUNdoksdeH5it4YwdWCgfApErGUgcAIi7TmFYAZg3OgxUgxltZIhvVGyydZlu2B4DedoQos3Q3FStRxjMIjiH/nq+AJSvTC4wRQBkBLGsEb2lMmZreXSIhgNXpEaOmBAkPamyqKr3GG4YwAEathqlNGWXc4XZANgGh/sh8I+KN82jbSFBrkcO00akzjTJq+zxCoEehNoybMeINKsAbww2y0XmvaukMB2wQJgUQ19igZLxt2yB9vDHcoJUHraclrrwbtsyYd26GeV9lhY9W8vTRSv7fWkl7NXLQJZmOhMtv3O1UejG/cXvEie3G/VSlN8LR3hNynY47tooARhVSmIzuug0jW9Lci8m60IKTo+GpmV+Z5Un2rxgYmy6MgRloSWjkvF2rX1/w3jRd0EIdGSBgsI1Laj5dANdoF3/fBaxbqo2OhTYAid5jDMCqpaIJmN2bBxdWw5VEB09DrWvKUMsUPhbKa0znxKcLHhlb6nTkrxuAYW0Sep+UO64gjY+nG55BhDZ6CoD5tLKTyAfa0D8PMsABCSbmbc6u9gDRjhjZDLmia1yI7q78Gg6Jv3L4mPl/zPxX+f/azN+v+hTKvUbMr/sph29eoIy7QlK11tgMj3z41DULOkTI3KODSwCo9OIlNSQWw+eIT6SMHZEaoXCuA06kWYX1aNo2RrBy4SNOwUvt0UiSLUVzeRR5JzterK0ACfT2VTM5lP2DlxTj7Uc2AGLpULGKS+QzG1OfhM/XFYAlM1ImogA8dJxXBrsAj2plCUMBsRo7MLVW7McVEA62BCt4eu8ytOQRwJxPAcWswHhCqDhcEH/oSze9Gn0HQD+8PVL99vD4eH7jev09PmrVf50fxMrnfwA=);lineShape=1;" parent="1" vertex="1">
                    <mxGeometry x="88.92649802783143" y="336.82170605405156" width="8.741177229795959" height="5.431581470153915" as="geometry"/>
                </mxCell>
                <mxCell id="105" value="" style="shape=stencil(lVhJcttADHwNryjMYNaz4/zDVZYjVRTLJSvb7wOGRVozMJvSjaLQHCzdAMhBHt73T2+7wfP75Xz6vvt9eL7sB/kyeH943e/Oh4teDfI4yMPL6bz7dj79fH2efr89jZbj1Y/Tr/EJfyYcUwwjyPPf6UbKFMv/O18n++Ph9cpeKNTGPmZyed0+kfjW3lNM6/aOiVuHQiUXASBQaU8ImTKIQEPOBuCBS14zYgBcQY4isQWEdUDwVMUAQNCRqVQDAGWIhVK4J4YUqaQe4HgdkD0FE4PzAFDI2RNkHVCEmA0ApLUsObkRUJnEZAmRr2rhYguIkN41mMIxVQRIvUsic94+BxTKbVr1CaDQat9xTwUKmFQXOc72TAHwQu0ld/aIFmof2ww5yqgEdVb70mEgi9S+tuKsc0lW7Tt/4twzbwRoBGHjhNYjj5VjQxZHBcfc5VQ2kyQtiSRRwjG40AMExVD6oCUQg7Y98rrlnSiRMLFTR+wIe6QCYptWV8kj6ukJrgXIrNbVGFpAxuIvVFrtCCWsTe61VjGRhDt7xlruJqEjdpio0vm/wdPSVkBnBOKEKqf0BUggAMfczxC3xLR6REs7ZREkdp1DvOLpRoO0ANixE8XWpZTgAqNDp0tTdnPhV8day6Mc5ul+4+DMiRjNcjOatwBm+I8AoDW7XmwBzAIzAkBa7Yo0Au5awhSAdiq75o2AuxZJBXhwgl1VFYCoYZdhBUQEMOu2AgoQ9bjQd1nKcPaMrwxdlioFkKU063HpMtq2QZ/XntLWuRQKIAIT8ceEX7GPrRau2tQKIJgDEC2YfKv/mklgAK51aFxbgTh5ntyLvZuZvmbf+q/toIIKm6ZdAnx5sc9n+JLKnzSjAJTP/QqcZeP5vmsUDDWz9P+lwRc41u59id+214uPLwYvh+Nx+uBw/X//hUFvTV8n5PEf);lineShape=1;" parent="1" vertex="1">
                    <mxGeometry x="102.34575833310768" y="338.88564704363307" width="12.907956612760586" height="0.4974208946123979" as="geometry"/>
                </mxCell>
                <mxCell id="106" value="" style="shape=stencil(lVhJcttADHyNrijMhpk5O84/XGU5UkWxXLKy/T5gVFQIkGzGN4pCc9DYMbv08H54etvvIr9fL+ev+5/H5+thlz7tYjy+HvaX41Wfdulxlx5ezpf9l8v5++vz7ffb0yA5PH07/xi+8OuGixTaAIr8+/aCKaS/Lz7fxE/H14l4pdaNeCIG4qFQYSNfKeV1+RioiJEPTC0AQKdYLKAQl3VAapSDBXR4Qm4UkwHETI3XAaVRspxVSenrAGneBylTQk5QI1rSA6u6DmjFq5QjMSDdA4lVKRcKEQCEog0MtRsjQCe2ni6BMgAEZmJLohToud5IogEIkyBAGTW4AwpFYNfO1C2JypC1OqJUC8jUG3C1Bmc2gHY3wzIge0c0DVcB0TfLoNYpgBMkeZV6IgFJXYSKTTl1/gaAowd0kBAaCNmG6yRalhFq9uKPaKBuKMAdoYCCTwi2bmg8IleXNHKcAFCxHAA2IXolwRzYkRbqoDIpIM0AKEkVUJsHoEKjnnPhqklYkUplFn0bAFngAFWSBQ6QdCWeAaBZq28pW45TgPP0RmhUXyuH4AOVTEnLLB9geAuF7gEwgQqJb+0bOXpvOf9bBjJJ8gBYaLRYZg8IyExpTOGJXQuorgpwA5O6um1UgeYBEYVrngWT+hIXJm8lgTPfhwESRyPeAUwZTUCViutyBVqpRl+NW4CkdWTynVrG6WC5UyfftGqAHFrzHET7HrBSn3GQMAbL2oyVbY4OjRJYqWvnt37QGSuBHFU3uRzNG4OlNggHKON8vewH5eAm0TAquRYars6kShVX4+im6QStlPUEyyG28czlFULHb1uXdAtCKarfY8shqFlB1dAlzPWscK9Uy8Nx9qSHvQkAtMfZyJBx4F/+vh/I7qPHojj77UEHROBjZeuXStTc2K9LkToU5+zEM6A62zIC7OXsR6ow1o013V0kwG2V/bLKcE5gquzE0R4ZvO6qHdA9+O0It+8wLmcTcZQkH7uI2BTXh393Hi/H0+l2ZTL939+R6Kvb/Up6/AM=);lineShape=1;" parent="1" vertex="1">
                    <mxGeometry x="113.47990660933652" y="337.01667887925" width="5.08737540157434" height="4.011354809076889" as="geometry"/>
                </mxCell>
                <mxCell id="107" value="" style="shape=stencil(7VrLbhw3EPyavRIkm8+z4/yHAcvRIopkyEpi/32K2ZA7bM7UxEAuAXxby6ztYT+qq3v2Iu++PH74/HDx9svb68uvD39eP749XuSni/fX58eH1+sbPl3k/UXefXp5ffjl9eX354+3f3/+0E62T7+9/NG+4esNJ8bWBvL22+0Pzvjw9x9+vh1/uj5vjgcT03Q8mlKPjycj6tudceX4fDZ1/noXTZTj89Vkmc6fPD7M59lAM0keyInJ8w0kGskEEE0qEyDAxZ4Acv++4VJrMnukYoqfAcVEBqimzI+Uoqn2GOCtSbOF7E0gFuB1N8chFxMcBYTZQhETIwWk2ULhgQNABa46U0kqeW/snBo1mUoiDYBzMyCbRJKvWYgzoBjPvaQCB0BmFuAlOwPqmYV/ymUDiKSgkRplsVASBcgcOGetsST7WrqG70VIWh6KFWnpqbABJGahaN5rjmVVjciuoSN+AsBZDTixYFXokH7MAgpGAcDmnJnqXKTV0qpul54tlGACj4Oq6pyNY3eoxs0WEr6C5GtLprnmYj3jvqzo2BkhXkIJKS+B8Nkd0HJVRcjoGfuAYIrqckg+dofUn3gApDt6H1A0f9+bzC5A7CIborHEgqCBqM7uaODgEzuza6H0LVn33dS1wb6QAS/N54fB/fPSM3lEzSTSsELqTD1i0KO4fx5SxqrzgVB99Iv06S11/3zUpeY7HeyfL70PjLTu7W5f6TkTrfI/o68UjFfNkEqMlLq7RwJJL7x9wMIt4AJLIpatFmK4ciWFnBeJIY5yfIYSnHNOavfaPiBojg9Ic0KoeakaxJ0pBgBUs01C6S6nHqZB2dY4UsiN0RUgcQvoInMcChiY3aH2vjcAkTIwtKZWn4Uqt5K6hB8AZCvJJXyfGmQAqARQvaYL9FrG8U0dWA2go1LpU8UGwPQCFI4sFiqJdF0oDJI7Es4AQCsS3/v7fje/C8ENgtHqXZ0OgNCSa/p3UUmW31oV9YmsQiCiaEAmRQ1dp9Vq6MxzBNB6OFB5i0lHDxqBZ19a7iC0ggAQRfeezm8NkDTAs0unRaK7s0fSbnU80tkEBYBY5JHW2Wp7dh2mRl0APPncQhtsHLuPd5tLMzauy/KgOtp392uUZl9d5gzp09MRIGUNYKK+DWsq+zCYcHbNXgMyo7JFQQNQ/lOA1wILgEoA6EHrpVkcyniAjVsZz6Avh4W/T1q7Itcy5rMjtaEijVbMyBV6Rm0cC28pkFgKAJsnIi7Nd4AAigzgdZeDxGILPgC0iIOWZhZsT4QhE/nuIFUd6TYOMXVf9ESJgY5tWNISOMwDiT1S0PNb202R1EiLYnKJSoG0TPaYIIRYgNeVWys/75fMoHGGllcdK/MRMWgtU6gulp1FGl0UY4ZWM67zNI8wpKullQu9Rx6tAdQVHMYD4lNZUvu+UNxfZUCOLVMcG9Th9DjTZFtusCVr0swtib4SaPubuXiC0N2HFy3Vo6NCo73Fmb2U+PTgl2aCCqdrMa9Xe5jr5ASg9jeIA1tFLxZOto1+5Oa/FN4/FvZD0f1Y2P8fFvZFL1nbyMKW3aU38a1W524N8x0gGi1/JKX4ilBd7EaLGrxROCBrwm/6iUV6vDEYVJbo5hQyQbk1VjpuoKep16HR8eTzix4THger10VoKYFtsPRbDc+zOy3iCg2APNAyCcDLrKBlec/vKdkvgwOCSB7H6hWLp6+VlgHU03cTVjdPRxnV6i7i6LLR6i2apcseq3nL0mS2uuHwZezSPbjUcTrxOa177XdLycTrJgDNwpSdnijgGdb49FLB9i51kMHf9TuY0+P4cP/Jzafr09PtFzvb/9c/0cGfbj/vkfd/AQ==);lineShape=1;" parent="1" vertex="1">
                    <mxGeometry x="122.29527516510598" y="335.79940753497135" width="5.3652715715729995" height="4.608124016921504" as="geometry"/>
                </mxCell>
                <mxCell id="108" value="" style="shape=stencil(lVnLchw3DPyavaJI8H1WnP9wlSVrK4rkkuXY/nv3eIuTAajtTW6rEXpAAt0gwDmlu6+PH7/cnzR8fXt9+ev++/nT2+Mp/XFSPT8/3r+e3/DrlD6c0t3Dy+v959eXb8+fLn9/+bhZbr/+fvlne8OPC65J1w2k4eflQQ5S6+8nf17sn87PB/s4pHQDSENUrwN0SCoW0KQQD6lIaRZQJbbrgKyLhywlE0CXGixA6aZLmu/bAWEu8n0ANh0NQIs0AqhBmvWgUWIkHrq0agCxSGaAJmFYAOKWCEAl20x3CYFEtU4eTPsqgSwIvMnD2fdC7IMk+/4YJZANaJZu0xzxhPAC3K42a3iSiQeEPNoQwWclacaKq6NqoB76DMlBC4ypbaZol3MSJe/flbXbD2mD2QdrX5B1Qooqw66/qkSSgi7FZqB2iaS6ROjGAlqSxlIGKVsWNcSY0DQ2icnKIEkgW9iEa3PQkTPGU7DICqGjyJIkoKRmG9URKbG3Em2XNLJoJ1rOvhwBwHhRgpcOACys4E1fPGSypJokuz0kqWRJbT/IdoDSYwFE8B6QSiI2LGA4ajTJhK2jiDYPUBKlUf0eNgApkqPJyB5QGGD4itH71Pg1gFNc34+iKxINi4tBEwEXnhuBHlUAqEs1jga26y5pSTXTKOLqCh/IxE5DpLoFD4jMQ5aU/5eHNBuE4x4Y+3Sy+Rglloc4y9AxD4yuUbJj35jl9hrA1ZmNTGxJaEqqBwSuUVfvN0EwD3vd+q+Sq7643hI1FrCWDUYN9KvdAzqpldBDWTRa2JKGP6eROOVVwAFAjRtlowQP6Dc2vRxymWW6LR6ijBt5WATEAD0uiqu0A22rRPnsU4vvoRGGziaT/X07YND+Bwe1KzOH+vx+L5D84DB4j4gWNTW/icE6puH5Pfg5qkm6W1KhVSCuDRCKIRE1OntX77fCRKKEzt63iZmeKM2PlG3QTGd/JjbeL6mXDzpptp44h7VDp55J0kAam7Mbk8DSBGDSYFIIc7W7vdJ2T0XdiF5oW4J+1ioNLGTNHhoru3547ISjmK6jdRD5fItBQ21EwalCIgoVOECVRhzoXhn2EM3B45qOi6VQoOURhSJ5e1ZYUIpidvaJzRjV2yttX2rw1zyZvr/mOSrvEpu18n376iWGaZRN/1Bgtg5i5tP5WDw0eo2EmccNGBrpKAkPyZ4fmEZpkDDRO0Cn/dQ2t9nCkiKdSMoyhm3XeQygftNgbmcXhsXfJCV+B4B/u845g6qk+Kalc848D0hTdhcxiQKGHz2xKdZpd39ibvZsevYXTzfeX+fhdbBno0JdjoMsg92o+oEN9qyjXbp4xHOwGw/fR+X9vuGavYuP0qZouYuEPTsu0QguBGK1pczdHeyV58vWUjCaaebd7wRElLe/K+DHvx8lHs5PT5dvGsf/+48YeHT5AJI+/AI=);lineShape=1;" parent="1" vertex="1">
                    <mxGeometry x="128.65274012115353" y="336.1362246083283" width="2.611042001467489" height="4.533747723912951" as="geometry"/>
                </mxCell>
                <mxCell id="109" value="" style="shape=stencil(7VrLchs5DPwaXVF8kzhnk/9IVZy1Ko6dcpzs5u8Droojsalp2ae95GbPoEXi1QDBOcR33+8/frs7BPf95fnpy90/x08v94f41yGE4+P93fPxxf46xPeH+O7z0/Pd389PPx4/nf7/9rFL9r++Pv3sv/DvCRfE5w4K7tfpgRPn/nvw4ST+cHy8EK8SFcRD3Bf3TloE+cjkk0QP8kWJfJU2y3uJaV/eXvt5/0EiUTck1DdKbkS+SprNmSWR349mvvn3TaFC5IOUNOvrxVUCMAXCDEhSPQFkyWDRJoUBCrrMbFozBdQyAyp1mgFam50QJPEt5ToDqlS2Qhadt5SCKIlTA4TZD8kcx1ZIQ8UtMIJkZqUoYTZrNjMwT1smz1YqThLRIeh4vQGyOBJ8oUiYzVqSeLaCWWneUtbhyj0ApJsp7YinDdDmLWUnylawaJ0ByTZJ/GCANmd0bKIMUMXPjjPPBM4ZAfIhj/jdA8QZ4FVc4KwEOR3FMcdVZI3GadJ0BjcMI+zJO8hoUa6AjyCfuHxAmr/hs5xAPrMyUpGRwsjW6/INM8eLMg83qQ7kG9u/ik9vk89v2o8iP3J917LG7WnyOYO8sjLo0D6RUl2XhyTm9O5HE3SO/0DaEJMHfS3BWAoboELAmQnYjqzwzxlpPmGNmtUPhc6lURqKC5VaSVO2whLUuY5m8iog+UE6FwUnEzcn02G2Ug20F7Edu9nPtdEqa9UizIAWaaTmKHHO/La1xNcBZTS8A6C2JuEuK5FQDjSMJ1cBxQo/AKIUBsjYi2iSQkKjKPYimkefe/2UEDE/DcDaI3NTbQioxKwtYUkzAFParK4BAaymacMaaFbyxEoGaG4BEB1UMfgMENkKiiRggEpiSRXrlCnNdPDOIfN1R5CU06U0aKENlQFqRQA7LxggwQp1RPwewCUEsPJgnoNyqJWygAGcLisQvrfXZdGBHZx16cDMSiyDdGk7DRCZWetipTwO07srRASwiqJLn2rh2ljK1RHNF4AbjkPqS5RcDVAW6vPMcdZZLUlNaUPx/GyAzFmgLUzGuvmecUtSs96hAyBaCx0a9C1lBJQbSi8J5Fi0Ks5hzsGy57gaEZC5p98I8Iun260SlGEFHUm7V+SQjZVOt6yMwjTpgp+vV+qGB5m+BHG1neCxtDc6KilOymJXNr2xpjAtFYUldU5LWQz0NJP90sQp7b5TQ+prmRbetPVHG8DREmStbpqZzHzJTljWTENfWcrooXbndLNZ81aU9k4QQBtmBtYx2aEJKrttspEV+kAJJoH2hE0+2jI6tDX53CDD5CPSM0ofHICnh9n+DCYOfwYTrxlMoP3/18GEwz6SD9r6/ucM44M8k78yKeQGwhKldLTYdzRbyFRgvUUHAA0F2ip0AEw+lJJ1B8xknTJtFaLDybmVIDYEiNuR/2KuHRgPKRYcO+XTQXjDqYGVgxuZBs155l1kV7qg0uwuLHpk91TpdYEBdDZrCrQs90AAT9cR73sACL7zhdoeIMxbMoalBOCXy61Irzz6qBEY2/FZo8Mzj9+K1u70H1LU86KZkSRv3NqEcWd5MS1l8g5VrvTeyW+vt2SgnY5RFl4K0ez0RqqzgRIl4eUOPNEufrlh57/usb9ONI89FthEA9qNYc5ZPJKEcXhbFun1tIVmAHF2NFhmTWEkz2vF2dF92Yyn5/BFVU+DcjGkG7O517nJ0RRZgsDRA/sbP+K4KW5/nL8X+Xx8eDh9bnL5Hr8vsUenb1Pi+98=);lineShape=1;" parent="1" vertex="1">
                    <mxGeometry x="132.29698074121748" y="335.98935886930536" width="5.353655556251989" height="4.70731740545554" as="geometry"/>
                </mxCell>
                <mxCell id="110" value="" style="shape=stencil(lVjbUhsxDP2avGpsS77omdL/YIZQMqWECdDL31fbjMNazp4Ob8uiE1vSObrsjm9eH+9e9rsUXt9Ox+/7X4f7t8cdf9mldHh+3J8Ob/a049sd3zwcT/tvp+P78/3575e7xXJ5+nH8ufzC7zOOSWUBpfDn/CKShH8vvp7Nnw7PK3Mh0cG8UGvb5pniaB6ZRJC9ptG+UQXXKaRtsLdfSHnbvhGP9+FEAu4fA0UeAGJvCgAkCnEEVGoKAEIxD4CcSdAJpSfokoJEGcTUQlhczuwNbwOMAmE8oTI8wUgko9O1UkGATGXMW4s90NcBFsQxSk36Ja8DlLSMgAIzzcbskXoaiCNQQqA0Oq1MCWRauEvlAhBicCVp3mnNxEg9MgFKp+N1+UTKyQNSBYCJS8sJIA81U5XP+LDkNfkoZRAlrcQjW9W8AjXAAMoeIAjQKNfphAQA6jVtgArobYDiuGR1BDlt9J4AGZwQQ/CiNroG7ERTD8iATAbwYbLmguJqYXJXEqigJRHRAwQBrGxUD0CVzABJphNQlMokCIENYhFY81GqQHKLwLIHMJDcAnD8TtRQ4spUyRIxomvpilzxW1GU6pTpSAUDavQAQVGyzl4mAFJQI51EjXqWsVVmpzG925QHRj6YqNUDGj5BZ2pgQJ2KAKSG9nawpjeWaJ3KN5r4Pg2wBpFdWCvkUi29j18ADRayon6GszAwcNraqIgHKBCQNeo0Jm5Vn6/PApVy8Ueggi+XjrP2GpzAptHq44quxExlGk8iGrHCBLCJCQ1xVr6d06FramuudD2rNSi5Zf0Zo9Ryb8Vbs7ErGy3hcV39glWN8WghMDaPJ1SBpS/aQDUqqGC62o7i6kxhKGrbglw1zpemtLFmOYnaKIu2yuLHHxuuUS0WX1ltjVNE1T5nr9ZEmOVJngpnpUtvWq25BQQ0+PXHtAfcnUY361SAcsFP0BFOVcEPq6EzdsPcxTLA6jtRJ8AOZWugN4/Q3FXF0GefjbwG8eao/vhx08xB3JPvxgFWN+4z1oc5mjS57+wf5ujLiPV1/10ngKx+8jPQf83t4eOL08Ph6en8wWr9f/+Fyl6dv27x7V8=);lineShape=1;" parent="1" vertex="1">
                    <mxGeometry x="137.2917632348215" y="334.4806109659861" width="4.115008115121777" height="5.318523227262161" as="geometry"/>
                </mxCell>
                <mxCell id="111" value="" style="shape=stencil(lVfLbhsxDPyavRJ6Szyn6X8EiFMv6tqB47bJ35fqQo7JVFPktl5zViQ1M5SWePeyf3jeLcG9XM6n77vf6+Nlv8QvSwjrcb87rxd5WuL9Eu+eTufdt/Pp5/Fx+/380CP704/Tr/6F1w3niV0HBfe2vaiZUvj75usWf1iPt/GZigaUQpXngJCJgwY44joHxEqhKkBO5NIckJgKK0AqlEFKJVDUKcmaFaRUE5WoAEGSBF1q0sSsAL7CGjhS8wrQyIOMuFFLKt6RczC+6PjAlBCgEmtAdBRRRtIRbwEwJdkk3SOpOUYIcHrbhFsZAYSrRQM8NUAMvn7vZtsQufsKuks+UkFdEjXolHi8mNWcmtYn5lElryvIkKgS3/QmpCGmGY9yMd/PHsQzeTb55wbjixa/d1QRi6R/RmmJMuiQd1daXhEN18zUDO8CVdRUHhZ6BZQhjqmaDVEb5p24g6aFiC1gORtD6gC0EeLqJiUe8psBTEpSdMZSsCtE7HnZGobnseYUoFOS6QVryNSM/v3Q06zoYOnN2PPMuM2Yep+N50GbG6pCvSXrL8I8VEETEzZEqkOB/56d2TpAwjYv07nqlDLe5iyC1isUWQFYQJ/25tBToHqEyVHzokWqQNBeuqRtjLHcwhjG77aHp6cMMt2kboSAGZ7ih/gABo+zp7Y+KWC8mZxdS0DM0g49OOUElEBHpRvFNrTgeN3QVqkAmjq7YQ0PQslfy6DJSRrmY7yrypDA/df9qeLgcH/TB0p7YHWfPvf/N14e3i8ZT+vhsN1Rbv+3lxJ5tV1o4v0f);lineShape=1;" parent="1" vertex="1">
                    <mxGeometry x="137.3975785649265" y="336.6017158839586" width="3.971020799204545" height="0.690873906066272" as="geometry"/>
                </mxCell>
                <mxCell id="112" value="" style="shape=stencil(lVfLctswDPwaXTEgwOc5Tf8jM3FqT1074zh9/H3JqnRNyFo3N1leiAAWWICTPrxtn143k/Db+XT8uvmxez5vJ/00iewO281pd65Pkz5O+vByPG2+nI7vh+f59+tTQ7anb8fv7Qs/ZzumJM1I+Nf8IiQK/OfN5xm/3x2u8J6iG/DqKOR1fCaXB7zL5P063gnF0aCQFoCvnzMOdQ9v4iWQGIf6i5t4VZIxQUwe5cdR8QbPwP/giLPFg+/Hy9//ic8Urf8s6/gUyReLD4Bf7XR2vJAAfwqTi4avDPwphZyOfDGVBA38GHAtKcRYNTAV5wIlbJDTGDJTwDGU8QSJpDiGMpKg0mlcNTBdkO8ZpDGtXikBnltaR5d8Io9jkLFQPe7kkqksDRAP2WpRdUkUGmiyQUMeMskirQ5lKdtqrcQ5HMPf711KI1DGJ8jYP61BcQx+NKjlrREamNKoDSRAUivTbDqutiiuJTUnOEr4hDiWhvNd9ldb1LhUowIy3xrIpNWTojnFCyHWqgKo+kpPysUgUkQNUYMwDSF9mq4ZhFFnfOxiuEqEOSHfE1de9GhAxfRhA7YdVINGA7oNoJFqz1C+lxOuaSUgbjlCmwEgbjmjFVdfWwIWLqEOWm4ZWuUWENfWmIVBAVmqMqRGXF3fhNYWsWB48FD6qqrkMejAsDRyb6+Or3lGQlY3vbHfkqMIkur6eLpsnpgER25M6ZUm3DRgG3CbwqCOmKK3DimggG0nlNBXmxW8qYkixKARuPPZ8TnB3Z/tXMhyDz9+P6U+KNbwo/9Junis+T/iY90XYP6NOkbty/pa/k1BF7hTffTudR9fH/5d9F52+/18T7z+314M66v5UqmPvwE=);lineShape=1;" parent="1" vertex="1">
                    <mxGeometry x="80.51790122291794" y="355.214538158166" width="7.7167337260392195" height="0.3743707827776565" as="geometry"/>
                </mxCell>
                <mxCell id="113" value="" style="shape=stencil(lVfLctswDPwaXTEk+D6n6X9kJk7tqWtnHLdN/r5gNXQNyFqnN1nGinjsAuAUHt62T6+bid3b+XT8vvm9ez5vp/BlYt4dtpvT7ixPU3icwsPL8bT5djr+PDzPv1+fumV/+nH81b/wPuM8ed9B7D7mF6FQiH/ffJ3t97vDlX0iz9q+QnvvKQcNSJQqABRicwKT8+sAjhSaAnCh1NYB8r1qAEwFuBSZuCqAOFkSSJJ4HDWARxpuArIf3xuAQhHYF0el6BCIHbCvlPX3HTlgX5ONmMmDKjdPISv7SA5ktLVR0kuChCcZAoIOwMsJoMgCyKYEjSIKoVHVIUgNPCiyAJrOUcgUAVE7QPMuZmIctCFqSpQLDlq7lMNIw2pa9Qn5kujVwuksFWEGqkOl4jTAU0UxSD8xMVSoBQF4fULm0UJuAwo13WFSGIleA1Tdw6L0HHyC4VKIlIDeJAanY5BGG3GW2NBb0oAByQgoDM2uAQz5RKIJs9W6xNQw+axLBbskejBZivcATZ8QAjGQqHfOFkKaf8OdrGluSPPPWEFFc0OaP+rdAohGozJ9cF69Hg4iOTQQe6m1IETUAUvuBuDOfNDcSA1uAX0A6SylMhrJ6oTTQfdeCVySEVq9PaGBwvUZvWiucFXiMQOvOhkqnFAtmLRG8oDfsskY8hWcVtFL1HWoEQbdtzGd1ubIA2r0OW4Acewqn1sohVwNkHWxsF5p9iZA6qxD7jMMHOCGVi72eKw7CiZgHiGt2Hv9/Zphq3eLidvgtrroYKJNtPgs7HOE03Dhj+gGzYVFvMnBBWCRz5hgz17UK7ox3z/HB7nBMJLAf96Q7tvLw7/r2Mtuv59vc9f/2+ubvJqvfuHxDw==);lineShape=1;" parent="1" vertex="1">
                    <mxGeometry x="83.2749428239213" y="357.8648169956015" width="7.27298062835314" height="0.25931576661213857" as="geometry"/>
                </mxCell>
                <mxCell id="114" value="" style="shape=stencil(7VnLUhtBDPwaX1Uz0jzPhPwHVUBwhQAF5PX30caZ9Y5mt20fU8XNGLV39Gr1aHdy9fZw83K3Y/f2/vr89e7n/vb9YSefdsz7p4e71/27ftrJ9U6u7p9f7768Pn9/uj38/XIzWU6fvj3/mH7h1wHnKMsEYvf78IWnGP9+8flg/rh/WpgHCq4zd1T9tnkltuYRmHshl429IPtMNRl7V7ftWUjs7zsH7AvVYOwDsJdAMZtoCrKvVGtnz5SBfQhU+t8PlBOw1/P39pkYZDcyce+vn+tjHaAOG0AkYQCIVHzvsScPXIiJfF9CmhQX4BNMiUqkCIoiij1SEMoI4In7rE1xAwBNg+vLNGnbFJhn7o+UKsUThdTnIWcSEFaNien7EmBYxVPqnS6VBPXa4HQVSC1ay/9iMgMSZAttltL7UEvrv3WAp9KXRq1UgNMKSAOggrAqwBSfdycoRsu/Do9AYfLt95ZOoCe4IUxaTKD6ppkwPAHVtwKSt4mAPugYSBZw4kiGWBXAqDb0SNwDMk61Oj0AYPVpWJMFMODKKXFiAQ5wpdZ3NYDU6HYdECnFHhAhk+l8zsaH0J65RRs+WoADUQraQT0xKQs4NLIqeQNgONNjbv+eAR4OuRQHYprrdxWQeQiryhKQh1wpFQtApVE0TcMTPOgHdXEFAKhPK4cHp9HcnVp+8OEEIPpLnFaA7ThVVxhQhiMhdTIxqWENZVvQcQuyXiBQyx3JegFAE2JywjQ1Q8WkAFt93KbSFiAMHYRUYh1U+gRA1VeGSa1HQtVXGg0tADDVZcVpxALHyb/IQ7oUwChK45HmCXCu0zrFUKbHsLrWhOcm7gQLjKXhmvw4t/iU+gC5rpT3PInPbSDXLkUX9Ci6la3SQMFnskTDUG2sUBnjVI9kye0nzqVjhqP9csA4IU4A/CAeGArRlSk3K/jNOTrQRgENMU1q47RAeaJawLMFoBu7qg2fLQDxveoZHhQTEqJhDGuEPKOaTEw/JCpY9dVBuVZ0g4hUTZRKW0Rs7Vms0xUuNj5uZkde+LiZ/Q83M3sNSuTwbkOMDwEOXs5DU3t45xB1uj9SUadBj0qw8qRw276uA4plgRxhHoKQN1usDPk+JLvejBU+ITqbuDincmvBGfrSCAwX2FHshna6AqP1Y2hKeLGvZDRRgj0S4zzokUKfaY+rVWMSDfUxXj+WQZ1QRiMrtMXecc0saItQbenhpbGWqpGt0tadW6tHo98ERnR6LdDbM7w7+GKJHgsfL1Zl4B3IIN2wJgmWsgVe91wTB3MLwNXyMHI0GSA2zpZOgNp8XqQczRFTOzuSBd4VnF0NCcyra220iDsMpKkCgXpi4Kp5rbTlqq0x1CPOvjFgyAmueTZTAtT6bnjNQwmm6aKXiifN9cPx/eX9/vHx8Ppz+X/7vlO/Orwrles/);lineShape=1;" parent="1" vertex="1">
                    <mxGeometry x="95.06996548767876" y="354.34922385575584" width="10.016381427171119" height="5.484368894429099" as="geometry"/>
                </mxCell>
                <mxCell id="115" value="" style="shape=stencil(7VtJchw3EHzNXBHYl7Ms/0MRokyGaVJB0dvvnfAYzUaiO8e62RG8USPkAKjKWlFzCR++3X/6enfx9tvry/PPd78/fH69v4QfLt4/PN3fvTy84q9L+HgJH748v9z99PL869Pn67+/fuor+1+/PP/Wv+GPK85bU1NHefvn9RMXjLN/f/LjFfD48LQDuGbcDGjGN7E+m+qm9dmkLNYH0+b1yeQi1nvjM32/V+utyfP3F5PT+frKx2mmiq8vxuVFnO58fTLJz+uLCeF8feTv994koS5vGq2vpgh1+aH8sT4kU8T5nSlhWh+DsUKcztQ6a9eaIuSJ27V5fZV0A3vm8+Qk5ZlMm9lccEKv6FBofRnfcEZPFydADcaLDWAvbmZELYOxxxKyTKHmJOVwZz/roAWTq5CpNZ5sIEnSgTOOANlEIaXQxgF2AGX1YFmOfKQq3Eosyx3icBzHxLBsaRBrE1JKmyFuimvSFFJkW6vgquB2guII4Aa7zgB1tp6Shj84BuRxgM184O6EpgHIZG+wf71Dng0In3jlIDN7gNgklwCIM5eiHz789NLk84qJGmDLDAjDpE71MHMpOO2V0ggyG8BqPUCvkQFBK85SYICmFZegpsCAKEy062EBOEVvUGM5klVSyqbNiuvRWu1Q2Bn3HdQdEIyXI0lNF5MSA7LSQzGFyGeNVeQrgwg7QNSXpgwP5LuxQyHy1aGZMwDpIcYRJo8BlX1rcsNTnQHyfKTUBruOAY0Vl7OkRrbsBEqQgT07k+aAUqE4QY0ML0SBPcpUMkcTCVBNUEdKI0BtIcvKwJ4XLjUvfSuiAZkoUgflBJBNZcsAFachdRJr20L9MSAtgd2PiuMYgIJk9ksI7FFkZKUOX70L7FGItbRR4WyAPNLS46TSjpJllyQqdw8A6QF7qjQagEJVT5RSAoDukKtka7/DzFYQPolLl4VL8Ocq9YYeGjkB7KCoUUZE2/xSNUmxFZ4vM8AKPXQA7YDU4QaAspksNd3LC8cAL0wUUrKU/qCCU2zdCqodQN6hDqnvAE7ZdOUWAAAqMwY17HIk5VsBCIkBKrvvJrrsIKnRhhB3epDUaFyJApAEvXv4mMWKEkTpoZvovMNbRXEMcOxm0tbMOQb4kbBtNh1l8wZui6Jo1q4SIZCKVwQA6WYSm2jRFofqmWpRaKaqI1U+EuRW1A6Nc2/ITWUzPUDNXKpb1DsGQEoLQGX3rZqY+Q5VaLpVLjg6QO3QlpDlpU0DQH03ABSXAKCiqeoqC4A2sxXsciICdQCJNcmCox8pMUBqunH6g0xAlQNdrHTpIps5XXELQCWJnRppAWguUbXbsxmluCWKAhCETQNAAQVilVIqC71RcAjf2ncgPQSZawCQF4tT7h4AarSC3jf0wFmlk0kiAGUBqFYuuMStRzc81RmApeRHGXUGKKuUlFjbIqUguw7O2iH2vapvGDX5mST7p/0Si42qNhwAoTKgKX635Q43TO67AdFkcn11VJtnIYhq/N6sVKq2nLhiB5VW9u9zfIeicoeyRJQsvfGbk9iHUZU7xOVIVj4mgP4k1pKlHmBg1D/tBbAus8hGs/aVZespbwB7M72fpZSSrl7fq6Z/6oH3qul/UTUFklKREQUAfl/Wjyiw6URVU9IliueOVNbdTQAosueqq6bATqDE0YI9BXj2fCo+4Ejce4Rf0lLiNpx+sehcWh7klLuHTfOT3w2bTvzU1DNTtUPgMqsny0JxcO7UZQYg6f4pmSiOpIrR3rVeLq3eplCgk/fuYhWK6+91dCT7vY1v3bdDgGLyOf1iUUcyv9E7Sa+RCsfpXGQ7tL8ckYla/Vab2d0nPxzPMWB5er3hvQEgegc9qfH+qDgA74+KK+A/+KhIr1/B63GKws2ZUPSgQGXyRS9TuP4KuUwWqHK3jx7R8FKWszwAcDs0aK9ReSSkQA/KgArXQEX3i3BieghCbqCaZGmZFqo6u0+B6zgUm9LiLD/utiTvgAyPU4cik8QYOA3tvRFhon0eabbpXSPiGBGXt1f9IgcTpsmzdmMyL7IFIRVQOZxfWic3Rp5c4qSvvx+LHRySvqVxp4y6cEbW03c1tcXrkaLpaUHqCyJ/ymo4lSWUmkyWlkE4cFe1QhcNwCWpsTY7cuzN58VRKp+cn2ZxIWGVEiNnmRXcdxQKDlzZu6gdHpdKTfqWxXkl3a/nqOZlqwTspATJyklf3M3yemXyfVLT0nrVN3RLU8KN4bnj9W2E4I0Ng95n9k5dkiSnP7znjkSTHQysp9DRZNGJ9TRo4axM7vzyLgYVWuUSPWe0AKh3AO85EDgvDQAAmm8EQM2vdBdEAB3y+8R1ZYAaeAFrmEb6LaPTzC8AdQfHbggANc/V/WhhgEofv/tXB/8CgD/efuTw5eHx8fobif3/848i8NH1BxXh418=);lineShape=1;" parent="1" vertex="1">
                    <mxGeometry x="55.83539275331509" y="355.5717972095712" width="9.473497865639542" height="4.32716362531462" as="geometry"/>
                </mxCell>
                <mxCell id="116" value="" style="shape=stencil(lVjbchoxDP0aXjWWbPnynKb/kZmQwpRChpBe/r7aoV6wYE/St2XRsSVL50jeVXx42zy9rlcS3k7Hw/f1r+3zabOKX1Yi2/1mfdye7GkVH1fx4eVwXH87Ht73z+ffr0+T5fT04/BzWuH3GcdCUieUhD//3kSK5zdfz4Dddn8FiEyhDQAJEJCi30GUJC0DVIl1AMRALS4DcqYSRkChVJYBJVOTAZCUAi8Dqv09uqSRii4DGpOOQWchFQDIFMcYClMKANCI4whoVMEOHAKFcYtaKCKfKpU0AFokbQCQfG3YEgnsUAMlV30XL++nzkqBxy0sCJCJHH3UlpuKys8yMR5stbBAEHrjUkkkwKWUPSPMSVQcRiEeASoUMgBwP5O5wANVwIgJ4CgUevKXXApjbYhAVlvQjkJsPAcu5UQ5D4AAD8lUoDZnz4DTufk8f1B57NkQSJB9pOr9z4A8RbtmzQcEuWMilsaUCUUQr9mrk1USUEPmjyvrRIz8T379RA3ZC+XRf+2aucR8xxpzEJx/Ll0OP2mvXou0O7gkLOr9D6hLSS/Hy/kgwmRL/1ifEebX7NUxEguj+PVtQ1APxscw+m8KgfnI3l6QfSX19h91As8vxnyU4OwV2atvHNznkiV+cXHnD/3PvZde7BuoB7OX8XxiF7xF/8d6TnBksfOJvp4T0pO5HD9nr83rJ2cooNaIw5hgO6EMFELTncERSa4BspsDbSBBgNIngTlmhkHn0GeNqzkwIdabqo8xmE6iRmxpcC5VxoDWHZgBtSv3/SHN6mwUiiZUQR5q9kphgyaSlnrTaqbBEMwG5lJif0oJNY9KeYxhkjPEBu7z0pxphbVk7aC69ldgHnSW/+sZDdRSuiFcTLBDRbnpCA1KmCmcu0iZZkSQOOn3h5nSBV4Q2M+xZh9Anu1mOUokz/RYsPeSrVTg+m6I5Vk0F+yT8yfBGe1mDLfLNUqx+BGKZ1G+XxJ94pjtpd9s79dcL+EreziTejGa7MH6zbdYs0czAt/I4xQASMB/f674BMAeLl9HXra73fnjyvX//muKvTp/iYmPfwE=);lineShape=1;" parent="1" vertex="1">
                    <mxGeometry x="66.72971153174456" y="356.1209207933917" width="1.2328390156654638" height="3.1567594301018445" as="geometry"/>
                </mxCell>
                <mxCell id="117" value="" style="shape=stencil(7VjLbhsxDPwaXwlKol7nNP2PAHEao64dOOnr70thod0V154gtx5y2zgciRTJ4Ui7cPf6/PCy33l+fbucv+9/Hx7fnnfhy877w+l5fzm86dcu3O/C3dP5sv92Of88PU5/vzw0y/b14/yrrfBnwkUqsYE8/51+cJnC9MvXyf54OK3snZD4AeA9+Xwb4JmYR0AmxwAgVMoACIFCAIBKrg4AYar+NkDX8wZQKYMYQraAWOAOzYE0AFIhLwAg5MY85EyCAInceEolUioAoDGMiauOKsh0A+QRkMiDPDSXZATkXl3XAZHqGEMtFFAMGqK3gIIBPOahVgoocUJBLCAlAAgU2QJKBQBPcawlx3OLXEe47sFqi4qi5l7Na59QQ+h6G0AEmVNA2ETtUAdpngygUHYQEJ0FOHCuCpBN9SUUQ6BsXBJKaAfXaWhuOXUSBc22mArDYmo7GBZwkPqCWOpLjhwCaJrGDooMd2g9OuZBlxBwSlFdGqtV+VlAeSfNw3hKOjIiOKUs5MfEOQf7oUgnupnvKYMNarSnOifyun0izsaegT9amCzWHpyQVr4ZoQwnaCPFaP1H/lTba0wF9Gajn9EeV2mzN5RHFflfe3rmiiBB+ap9ti72aLLp+cjojwoMFG/ubb7YR2SfLMWrPTqf2Ilq5Q/gFeWpYu0Z1ac2TDHng3irBjuXPTHyX2x9OhJ0/mKJlHtB3bKvtl9gPURbP9zV1a18ZVv/jOshFWuP6y1aPkGSedEoiz2aZG26235E8a4ExwJAw7htMDaA7xV1y16isS+YsEzCVKEjfz5oXzYEl/sYvD5hNjcKvfYwyJiqeyOgWouBiKOe6FjSKhYqGqtKmWPPNJWHpa+MRapLIJZbLk0rLZEBrTTFNQatagWqxmxvdqqH/Dsy0yiuDHcQb5muzXKQuM87y9zgn3eW///OoqdkiEnrG0kpBZSxg6qHLdd2MHeW1OX2rRjMjSIXfKyb951UoVzWW5FxqbEnqG9ldx6D1ktOBnlo48lcEDxMnCu91Gb6jlACuI1E8ripayf32T7CCeQsaTSNASLgrkjnjq5Qg3HP6cpegD9bhVHgfGObsnbEoOw0umTtkUZlK9mcdhpY323Wz7BvnH3wcwnG6ylHa1/QxZ1isfaopIXEbdYH+Yr2OVHjZdBjH303ft9eP5ZH6qfD8Ti9ca//bx+19afpQTzc/wM=);lineShape=1;" parent="1" vertex="1">
                    <mxGeometry x="71.03595577794977" y="354.95480847586117" width="2.4077671499988043" height="4.107714209754295" as="geometry"/>
                </mxCell>
                <mxCell id="118" value="" style="shape=stencil(7VrLbhw3EPyavRJsvnl27P8wYDlaWJYMWXbiv3czC84Ou8kabQ5BDrqtRl1D9rvYnJN/9/3+47e7k7PfX56fvtz9df70cn/yf5ycOz/e3z2fX/jXyb8/+Xefn57v/nx++vH46fL3t49Nsv36+vSzveHvC86amhvI2V+XByGYUP958uEi/3B+3Mkn45Q8+bU8OePKCHAmgQUomSIAZGxaA5wzIQ0AX0xBgGKiHwHJUFkDfDDZjgBvbFwDgu0qdoCrxiMAm9WNgGi8XQMi+y2MADKEAMGUcQU2dAVWitnk0UrkoadjNWUEVBPBAok3PO4oGQ/ez/J5DAxvcobyZQxVMo6gvEgFawrwWXLdHFf5GKC8T0Legahj+eSEPPIwy1cS8hbp67s5dvLo/d5EK+XR/jf37PRF9gx9+Z090X5CT9qdv7C8G5OSAxDvx4sE6HVjKW+FfD2w5xgPoWfc0l+jPTPOLy/tSQcJ4GSZo4g15sorqhYXPgzwowqc8zBGnSrV1KN8qYMoEtlU5GUvo6g1NJTG3qSx8nItJuSHIOtE5HaDdAhyhWvpmwNiD+QNkLDS7FcRSmQSXkE05RxNRYDUjbgBau9YK4Afq1HxPbpWgDCatSQcrUnGUqnG4S3FMbwr9ZK8tNKYQDV2V65iSZSMWjCAegndABUWyVgkE6nYDzGaMDqOLO4LkWSd5yUKaMwhm2QlICN2xJXMSUACKccEkJIyEyCdzOcES20AEEzMIbUOiDdzcZexUTtvXdFar7eEVqBOMfdmBY5jgFWOQ2ZtDZZushJ3cKUD4ngMCMpKFsRS4xRCh2Iy1sGplEN1Zgq4cUsZNvaJ0vloS9KsGbagieMw+Z+ERurs/rXBl0zG+VCTAiCzVtnZ25ZQEeAGobZUgQ7c+LO2EmhyUVEB9sMBnUlJAUA15rbsnQIApbnLkgYAs5Yoj3kHocE9sCoAKvecLqVKACoCnPLOKQDaUlWNmls38EMrjCq8UbS2pumlWRFL3DXNHSKCJteWULEBHVFVUpcju8qyUSBdb46oElCQXYvSoRzFhsygAg9xTcWodMAAwb75iUOuZqtX5QdQja9u2nsaW8mqsoFO9m3HKr4RYWotTcU3YietaariigZWHBqkauVB8AVVNgJeQZxGGYAGhy0flOMsclydeDrgslFV3y14haLYCTqCNwKmAGio1PiUSlHEf6586rUpejOA+tlzx+HQeLW1IMXW0WRs0uQqJEyTNrqF42sbdYXROqECDAA6TMhGhVVjQmfwfHVCmCos9xNKxq9APPTfnDj0lt5OHG8njv/ixKEP1AkOaCdHdm4otw0FMhydTMYO2EqTwQbWYTI6SZDChdyHDK9su238oxp7BLEUo5z0MQBdDETumULp2K9qVlMySR1if8VypisAbDd0CxpktLZZItqSGgK3aSUaoDJArOBhf2iA0UrF4jGzl/Qnp77mCiA8zX0VznS99HTKeOKqpvf8BF208r/FPDTio2JS0Rq3WricuI4A7tyIGSerbiAKvrezsrF7B8sMA0jcLidIdNN2cbgBDq7W1AoUj5SWd18Wh4aVR3Y812B5cbkZ8KTl7fL37fJ3lHf/s8vfIuMZXv66Puu85gu0D80SEgRErD3/NkCAXD5uN7cboPQjzRzgpIuZkaE2zlREXGuy0ihpAvUOuVVSgsc8HyUP5icOUcIqt8TF3YMtOd9L+eZngl2ZstwSUzjU0YgrxbilEHFqyolBSPBWkzoT2uRxqeZEDEoepJo1ieR+0OW1newf8X4rh2csH0HYWaXvdjW9klfvR6VXDYbZXyjRrJwWsryH+pKKBxRxqnUzwUHzHSs7AcsnKJ+dlEeD8Fu/SDyW5x/Xzx8/nx8eLl9P7v8vP5fkR5dPLf373w==);lineShape=1;" parent="1" vertex="1">
                    <mxGeometry x="74.89632556322488" y="374.55957607162077" width="7.888287171607159" height="6.303172823099277" as="geometry"/>
                </mxCell>
                <mxCell id="119" value="" style="shape=stencil(lVfLbhsxDPwaXwlKlFbSOU3/I0Cc2qhrB477+vtysdDW5HrH8W3jzIjiY0hqI08fu5f37Sbyx+V8+r79vX+97DbyZRPj/rjbnvcX/drI80ae3k7n7bfz6efxdfr7/WVEjl8/Tr/GE/5MPKY4jKTIf6cfSqE6/fJ1wh/2xyt8oCEbfK7U4jo+kVSDTwmeP1BtBi96Hwb3YUrWAWGSBAiZYjKEKFTqOkFdDvZKoVLJgFApWp/VZgY+yEApWEKiACykhQ9BaAAWcqIUPUEaSINQagtCWCeUQI09IYKwlkYijxBqpmHhNCI09rUaIgUBBC1W5wP3MNwmFAo2040YGWg+bwxLT/EubUwM0qz4gR0+gTpSfLHiicTI3+bVmagArSm+FYOvFJA2efZvzoDWFSi7pQXV2oBDWp047+as2CoaeyAmZBskbTARZ83JXwkZ+xCtdDRvBTRhJbB1eiw8RKiLsBZcqXUh/0QRW3ClNGoNRUktWO0MVHAa2OZNel7W8L7Nw4aneLHaYdxctCy89gMYhGPduaHQm8FqYXt/Cz6/ZRfPBnrFLW1y78irFlxE07121NyUKtTuiNleSYNaC26QTsyRKs7yg4TStT4T5ha1OnSs06KJRmHVqFttilAAylkOTkl96/vkaB4JaJYvhr/MXn1yvRgJQJ3LBUYJGchtuSIpoQLCuIQ5CxkOf51lYgWqRzRECL5tJzyedZQ5C+oV2jxVkNn2pBxpQJkmdj2VYZNMvpKGgl32r4vKvcvexHN/G8z7lO7SQG3c148Z36B2VDqupzLeqDRBxRtADWZ+e1zhGWSM+5Cc8QUmQMPn8Pq0gPdxQ7BJP2ENbwOk3Ubw+Vb4tUDRKN7evya4TLFfXGqAE2GeqfNztvVuuRb/h56/9/H68f+t/bY/HKan+vX//dtcf5re9fL8Dw==);lineShape=1;" parent="1" vertex="1">
                    <mxGeometry x="84.04502748627169" y="375.9590676873653" width="14.587153068613759" height="0.6861427131670617" as="geometry"/>
                </mxCell>
                <mxCell id="120" value="" style="shape=stencil(lVjbUttADP2avGpWq70+U/ofzBBKppQwAXr5+8pN14lk+9C+maDj1eXoSOud3Lw+3r3sdzG8vp2OX/c/Dvdvjzv5tIvx8Py4Px3e9Gkntzu5eTie9l9Ox/fn+/PfL3eT5fT07fh9esPPM65QrxMohl/nHwLV8OeHz2fzp8PzlTkL1WbsE9UC7DtxMfaFWt+2j5kqG/tOEfgjQsW+n3l4uApIQhwsIFGWbUAWEpshriQghKIpigagOY1pG1A1ButSFIoghhZJ3AmFBFSh9YVLHZa5Z++SJjpFANAy2TpIpQyC5hAo2CNSJAZR9+qpkSoF5JNQt4Cs3AA+aZrYkjsXyhUAtHLdsptJUKkrdQfI1EDQNVIUA6hKJsS+6gtRE6yc0lWyBTRI1xIo2yw1HpVZ76BGbDuoZWLUcmWEOAMaCToheZc6UwInpEbFARI1UOkcfB0UkBCAqS8AfxO9pTOFPQAKU/ZKpoAOqDGl1bmURxq2AM3WoRfs0tyQM6BSQkGXReEabCANuli2qvIwpoYED4BBxwU1OnUECNTdCLpo2zr7Oon4IyroURW6vowaTbnifdK8woYog81XlcugcmlmwhU3CjqhEifPvgo6SHt0SdcAppym1anx1EG4R6V4AJqj2qNhAUiIrmnk5FpnEF0z9eCDRoXTDqqLOiD5nnrU1WGuzOYJLq2NAm7qwB4AxTX5pVLpnXFTe5cwIClz3Mzq1FCLVr+3tjL0eYt82Qaty0FEXNIlzrpU8U6m1HBBVyULHtQuhspDR9YB2euSbhMVkE93kW71vszb8jpgMdl1Oehoc+UFQDsOZElXCzdRtDIVTEVdLboD6IwBMUyrhduNdfkF6q1Ui1ZbpQw6rgMWqiERxjBtbO4GoVqI9lAdUPYEvUEURI0wdO7qjgLvWd2PrMhjX1m/yXU/qLlBbdUQ2VKDM1zv9RrW3AkytHDrstssNThA8tUhc3PDUQHEYF8EoQx6IfgRLVC3tfttb8ZxVd4wd9ex+NHbrdwxnP4L+igZAN2CvyYFuB/xEM6LOVKhODabizm6jujN1zsDt7ux8f6beR4fE66cAaGqgPq3o43lPz/vfGiuD5cvSQ+Hp6fzh6jr//svT/rT+auV3P4G);lineShape=1;" parent="1" vertex="1">
                    <mxGeometry x="96.70929772517613" y="373.60198873740353" width="2.3881951922455986" height="4.460439214580694" as="geometry"/>
                </mxCell>
                <mxCell id="121" value="" style="shape=stencil(lVhJchsxDHyNrihwJ8+O8w9XWY5VcSyX7Gy/DxiFoyE4bEU3edw9A6Kxcufu3p8f3vY7y+8fp+PX/c/D48fzzn3aWXt4fd6fDh/ya+fud+7u6Xjafzkdv78+nv9+e6jI+uvb8Ud9w68zjymHSrL8+/zAULJ/H3w+w18Oryu4o2Q6OFPiOTxR9Apu8xxumIpTeAbWmECcNR6YYwplbY8zc7z1lK3C5wLwRXvTEnvgTU+xt99RBv5xpR2v4SOZMMd7S6l/f6EA7PeBXOmjwZMDBvlIqXeoeMgnSMipJyTyEZqU+pBwi5HbBEehJ8iTCETwEgO9aOGKapFcf+jIFEHYOUO+NylmmDYiq40dIQUqwEs1LntCtmSADpI5oVc6J5gKxpDtD12WJ5uETLb/QPFkgG6S+17FaiRGFg1HEEIE1UKSsXhNKKjY2eEMiRhFt6U4EFCChiFYhWBBZESnK2QlgDMkR94MBKSboTh8wQAdcqGYBi8BQslUWOvggUmlkHUDAZQlIYRB6QiEE4IulBIamKBjSfIHJRyzrt3CyEC5+om+LonjLLYpG02IV9yklCuwf1YhBgIK1yp1GAigkFWLrSagQiYEVYwv35wRjB28hM6QqBRNMMitqYXOSul/TWxmEgdNsKBW1kAYEqJgHfxNtVIIecxRJJzINOYo0qG0nF8R0HBSc9RoQsYm6TqTmt+mhKF8XykbRZWN3NwwTdGkCQF7KUZNKKi4ljawrRMIf4GjJsAUvZVQG8RgUgRK1xY0fCGDQ280uQLnpY02ukj5v416CZbpKNAfetUBptNGuolRBxoejAJay8jkh1NkVDc2yrcD8R1aMC94eQLcukxHC97ihY/bDLmMrRKNwCDZX1Thy4EMmDVkRVQra2aY0rIjKhGSDLpItSU0l20g4cDweskKktIgup00NLXRMJTZG71k1c0R6CArlVp0xciMNlGvI0m0D8gk3zbthWDgqFFN6muARDua7uXQOkMN9JIbVpoMy5i4xCihWxGZBYbeXKE98m9VJh0cMyS0k8ajdij+U5OSw7lm2tp8waONL+nLGAcnaK8XUNd66bY17WUXZ0LntJxdwcHbJZ+0VChfuFXBCxyVRSYXFRx5hts4eoEz8Dvr/u1aXMzgrODo/mUDjio6t4X6cmMWoTGWFRz1I9bDkG2T9gQe+7ebFqKzILjl7vQqXH5crmmfDi8v51ve9f/1ta48Ol8Ju/s/);lineShape=1;" parent="1" vertex="1">
                    <mxGeometry x="104.43802291050068" y="373.30136874340076" width="7.52429165304616" height="5.432045299241517" as="geometry"/>
                </mxCell>
                <mxCell id="122" value="" style="shape=stencil(lVdJchsxDHyNriiQ4Hp2nH+4ynKkimK5ZGX7fcBMzcgEPS3pJo+7SSyNhRt5eN89vW03nt/Pp+P37e/983m3kS8b7/evu+1pf9ZfG3ncyMPL8bT9djr+fH2e/n57asj268fxVzvhz8RjCrmRPP+dPsRMif9/+TrhD/vXD3gh3+OlkJd1fKYoHd4n4rKOd47EdQRXqSZASBR8T5D5iE8J3lPubygUwAXC5PoLAgnwQAMiqXeZEsCHTN44QLWu42OaA37BZ7+OT4FqNvgE8FmI7fkR2FOYOFk88LfE2b3b8JUpD+cDe6r6G62/QNG1Uujx6hDGJ5svzhCfi9GPQ/ar3nt9VmKg54bvz3eROICK4cXBRaEaIsCoSwkuhDIXxRqhmDYhVDAh96LTMnLY69jfEHj+skaQagkVdC4l+D4PUslFSDCFIJECuqHYsLZeg/KgBJM4DetdBKfdBol7MMnxLMcbnY6wu4xRdbOJN6aNrynP6EInHOoug/A8VVwKRtka0LtKx3kou0+qUydgwC6bBtBm7BWCUbYnxso2LUzSHIYbe6QsRt7YhIO7ZtKdhGEsqElo7o9zpxGA0+NgawQ0CYfJqYQIim0czY0AnB5nvxJQpx+XCyUUYNK4vWhbReNtXI9a4kBBXHriQtAKAvJuC17vQzMS7ZzJail6mLi2pJqmp2EFedCdui+4pFfCLTv09ZYLdJkp9cqrOM08q+bS5fHSo03U2QtQG+Y54As+w+rUHPc6rQLHjlrbO1xUpiBjbAtHixWpdOjBBY8dnle0JWFL5a3h+wRkhkUwvEFShEsz26pMeMwySR8fFbSD59/3bLyO1x+XN+rL/nCYnrgf/2/ftPppeg/L4z8=);lineShape=1;" parent="1" vertex="1">
                    <mxGeometry x="113.03915444247508" y="375.4930513508068" width="14.042431942863793" height="0.37952239342455385" as="geometry"/>
                </mxCell>
                <mxCell id="123" value="" style="shape=stencil(lVjZchpBDPwaXlWa0ZzPjvMfrjIOVIhxYXL9fUSoWZCWbey3NavekdStY7ySh/fN09t6Ffn9eNh/X//ePh83K/myinH7ulkftkd9WsnjSh5e9of1t8P+5+vz+e+3p5Pl6enH/tfpC3/OuEiNT6DIf88/MAX5/8PXs/lu+3pl3qmLMReStmweMrVu7AtxWrZXd3ox9p0S+L4ESsHYB6FalwEpENsAQqPSlwE5kEQD0JAzCKGE4fEEqFQBoAaKlgKNCiW1dp8kSVRBDK1ScCc0YgDokYoNWvMWCgAUKvaElAYztwF9yGwCNGpAeIGZ2B6RNWrGR9g0KTWCAIV6soBKDYipJ+JsADWNTN8GKNU26hOXgOrWfAytkCCqo3epN4qAiDbTt+YtRgBgSuwBDem7e8AVl7cRjdLMp4IqolIuPuoOoq5lvJ4AWqTohDKKfgKUEdYSINnOp2rpIK8KqC4GbTTohEpixaRlG4FcNa2u5vrdRsO2lXWGaVVtcJ8BkJjCGAfXLiF9h6G166BxQXi5alqRS9r76oy4jAFOS8o9aGUKiC6GOqbwUtDZ8dDGHF7ioc4LCGRJma7WpQ/UqEPcawN19PfrRoNqdDa1NOqAgtAhJJ6Ihos6Oarz6DwfPUHGLF6MwWlD1QLE9GlAEwpWG6qWCHjQARJtn9GhVZGYdI5aMRVVHxqL4reHPH1iaY42y0OOVNH2oF3F9plUcGPKfm9NuAuovLtNa2LcXPW1HbyCXSo8msQEELieZPY86HIcwAnSfReIaQz72wD2/T50ykB8MVCxWtKFH+3rIfkxGuLI223ihg4u9wEB4g7D3ct1A5Gm08fpDlYzj0q8mCfQj9hvVmlchhbMXbtLsNvN1mGBQ4f9vScO6paccUqAc1y17GiFrDI1yyrDTT74jsVw5Ae/SPHYiW+LmGLz5sCZT16Y75rrw+Vu/rLd7c5X++v3/i6vP53/DyCP/wA=);lineShape=1;" parent="1" vertex="1">
                    <mxGeometry x="125.16394237370824" y="373.9449150920025" width="3.800634841217763" height="2.582066978623442" as="geometry"/>
                </mxCell>
                <mxCell id="124" value="" style="shape=stencil(rVnZbhtHEPwavjbm6J7j2XH+w4DliIgiGbKS2H+f3hCz4tRwizGQN3ndxe2z+thT/vDt8dPXh1MK395eX35/+Pv8+e3xlH85pXR+fnx4Pb/5X6f88ZQ/fHl5ffjt9eXP58+Xf3/9tEluf/3x8tf2C98vuKjS84ZK4cf7k/Dvk18vgKfz8zWgSYwzIEqrx4AURcsE6JIKkVeJYZKvoo3IV4ltkjcp+Vg+B+k2yWfpSuRNkk7ySYzJdyl9dpBoOpZXlTzrH8SMyPdVPhD/m/uzojwJsDUpiz7xWL6k4b7/Zm8pUhP4sxB/li591scdRvxTk9Q53yq1t6oo6B+kcECDClApxOLtDbPFXkSVvSFLmkPmPqqdAKLkuWZSkUacVJq02aleFpVkkUctzjZkFWNhzqKzl3KVyvLI02Y2WoNElhgZA61plN5tgCfCXJmaJXO3ptloL1bGRdWpZ+YWLTT5WsDi1DrS/TZAB/nsbBconTZPtVkl84Ilke5pmLgDPPYkl7otKnVpJHC9SpvduoWSpEZ3ygNApQUUw85xOwnEkS1HrwDW9liykutNdG6ctUtlVhfRORAtjye3ASphfkMrtEb7kq6ti/HcgKL2n+ikd3r2QW/omfKM57fN+e3ZkljJmfQ5Du63RIyuYYTpCtBIBRWnbwDsE8RRQ4wZAUwlr0hrPwNw3oKZygGMmLITXUVAI4Hb+gfY4FaRN0RngY4AWnJiIN9HJA/k0amdEl8YDHElz0gmjCHhSt7o72MIfEwlHl0Ixv3DIuDyivJsTApYyy4fqL22JGml+vSE8kbkfcJYMk4Jt0Tk+O33Ccen4e1r/Um+pTEkX8mzfEvYBt2fma0hOORt+c/WnKXA+mjtR/oHlGf+d4ooKN+IP+NoRtf1RfSJg5bfp2C+J4RRftcvoPK4BvbRTI4KsqE8m/td26VgmMEuvwSY7V1hDEHXDEoSKOD8e4eineCWpmGUQJEg6hig/x/5JBkyugzOPuoxBVLaKOV6F7OIAOZS75MBYqB0d9w6sSKAsa73epi5HMBat08TJSKArpsrsfMx0CciVCnx7bHjAcWnOkZdbeXSQE8ozbDZ+KDJbhA+aMJ+2nwXI6nR9210B+ioj6Otpc/00iKlIw8TEHZt4zBxtOa0ZUNgBeTlAkZXb3JMJRsEsa85d1Rakq8YHVrcS7Cf+tbNtpy2N419t2tjor8NKKiS2b3kK7A95nHgup3eDfcoi3yLV+wkyje1urQSbaNbHx1HEFDpCakk7LZa6DTrGzWwhhpdvKzgCUkjnY88rnm513R2QloaXLZ7RkOJvq8xtwGGI0Pq44JzdOCBDpRsKHl0W8TbLj9mb+w9vyG2MRgfAWwOXFQaOAfgsTCOUf3IBsP7Ousn2+kEeIzSmEcBji9G5yoPM/QrpRSzrddzpmZK3KYYM84XXuywiWRqrxdWiqB/IP7XgJuC0nhlZ8g5XoUudjmt8WJz8Bb+2T+NLgr++vX+TTe1jAf5LUOZRmH5QuAxJIBYsRH6k8yW04q3Y39S2HZUcR3f3snOGwUPWRuAjecFp7ANQPI0GjZCB7DO6QDoCQ5g576NeRYb2HAbl/nCrerMrYq9efMbc6tiE3EAmySj4nU67jf3QxsMATT5fvqL6H2A//H+AfbL+enp8v32+v/xg60/unzszR//AQ==);lineShape=1;" parent="1" vertex="1">
                    <mxGeometry x="131.1115031978475" y="372.87186601197436" width="5.247524808889062" height="5.8029945547705255" as="geometry"/>
                </mxCell>
                <mxCell id="125" value="" style="shape=stencil(7VjJbhsxDP0aXwmJWiid0/Q/AsRpjKZx4Ljb35dTQ8mIGr+xeyuQ2yx8EvdtE25eH+9etht2r8fD/uv25+7++LgJnzbMu+fH7WF31KdNuN2Em4f9YfvlsP/+fH96f7mbKKenb/sf0wm/TrhA2U8gdr9PHxz5+vfD5xP50+55Ru4dSU/PFAOgT1R6+tguXKRnT9F19EIpA3pp1zd6ryek84AQyXEPyO3KRUB0lHMvMVNAAKFgVFSoAp2mQCIdIGQKEQAq1dgrNZIHQudEUjtAYvLgBvFNxAbIjhy4QVSJvZayUAY3FE+uF1rUM4BaSyJOHaCoLxYAKFR6LZVMHvhq9VR7lqraHgGiDYaK7VAz5dIDMgkQuhZyvVr1C3KNWikYQCVGMlQbQNMRQK3Tb7GAhG/wAyALFLoMAAEBpIA4CF0QQKgWC6ggzSgg9s7nnQYEslym6q9FhOuYSlTdVWIninUAIJYS+YElaLrYMt2lzhGpGPeTFiNnY844R4bpeGJpCFJUIVRoZ2Twa2pltgAoQ6IkFpCwa3hvAQG5RrYJXwGMDCfNTHMA0lIhzgMAB6n1Vg8L73semmsJCa2+mSxAkAwKGLRUMcAGEOOEX8kVCwiMU9kAgN4qQzwwJdBhKcCFqwC5cXwpS9ptDDdAoZPtmNbUmhbiARoutfMudY00lMUV50tDmllx70xpYAkGkBAP8bASoqbVXUsCpTUjl6YZ7S3ioCUc02mIOJgq69BirSTjfwAUwxKuD7M6Pi9BKILGKwS3fR9d3EcX9391cWyCruBsGYYE/qbpc7OZN5kmwtSk05+1g6MCitA0Xw7jIqpaOsHmYSBFlhZ1v2HkRROsMJVhqC7ADllsAtexncG4mLlte2aLgQCSX8rt92z1EIAvJWdvCFr4gNAxkPR24NpazeWNjlhfYoabhOBajZqtgAQtmUJrLmZLpgIAXitvz9LbHL9Mz7b7VmcEEoitcRpO4HiVt+8DXNsfnSE3geCg0zm7onCwtg3F07Vh6NLT0b5xgXc0HC5oBm0/na3jSg5O1+YpGHKHdqUtP83Iwels2/I18mL1jpgJoyKRqFeukVfJ9eF9Y/2we3o6Lbzn/+2GWz+dtuPh9g8=);lineShape=1;" parent="1" vertex="1">
                    <mxGeometry x="106.31436307534159" y="382.7660805520634" width="3.9314134976773154" height="14.238961891674016" as="geometry"/>
                </mxCell>
                <mxCell id="126" value="" style="shape=stencil(rVjbTlwxDPyafbWSOBf7mdL/QGIpq1JAQG9/X5+ucjhxzg6q1DfYzWxijy9jH/jq9f7m+XhI4fXt5enr8efp9u3+wJ8OKZ0e748vpzf768DXB766e3o5fnl5+v54e/7/+WY5ufz17enH8gu/zrgkJG1BpfD7/AkLcfz7yecz4OH0uAVUD8iZqgJApqQDoCQKAQASlTwCWv9kHxAohgFQM+V2GRAb5ToAWiQBRsdMxQGUuAJApFIGgFSqwGihKsN5TaTp8vlKPJqsq037PqI6shZDgCys364XZArIp8TOYKEISGOSMSokkAIKmje4JUoFMpB5DAqLK2RApZR8nAqK00hp5CwzVcCZkZbHwObSI3ffR3bDGHbvbtgHFCqjV41HBsnJ6gPbQj0DG8zEOPJsiQC8ms3mOHq127R/XqmNv5/g7xd7z0hCoMLgfKXmz6M0qIFkfI8FOghrqzwyOjQTCzgv/veFFLzHot7lzVKbAMOtURzzwCwWYIHE7vBt0AHKpExhzaTAZtGeuauPAgw6ZUrjDblRAiyr+nJnvAu6QUlHL1nPycBLm/K5Iqzg4StEPKAB5gxQnBEKY8kAMXkAolrF31ADLEjWZHQGoBtaf/HmSQryWevkJYXxbYASPSCAxmAAjp6HjIyeAY0aaFUGyOoBAWTQYvSYEGW16qJbswfA4GtdTayA0iP+YmjMAORW87r4JyXkVp1knkkkFEvqS6u5NQGj93K09fJ5sQy4NwkUDUuhcVTrR1Z7NWwdDwGsSIxWW8oFzFyccxQx13aqAMwgi+Y82YCYq10Xbb30XwFrA1k7hMKWYnKcXZ9OcIyRRHmMb66wbDTxipjNrUjhWtd04o079/vaYRZvrReSfUDxtTJiiWuSOYxuFdjZLYN9mYG0vU+Ca+h1OXdJHYbq3hMBabn45LGxQJD8TF7e2lhQAcCmZS/RU2dlH8C+hZqCRsOqfZ1Gn7KVPQSwgXtkeXEDYDnq1E0yDDyTnM1VDKxyY/BdvWWcCz0sV57x8FZ6/VnPK2ygk6DUAnVM6Q1/PR8pIk3su6dkKHvmadV0OxKscSK52aQH2oLFcRufZMmNcjmuqb7pz4izZa5wrc1mMTRAs88dmy7RTG80xKkGCzDaAKwewPgG189tpFa0e6p9K7IBfLAEcDXYAKhTGUCnG9AImtrOmgEtAVLzxC17BFRhxG8+DIDK6rLeCp4HtAZY1pLsAQ0xLV2dbqsk8pJMbm19NXDxSf+2Kf0YYH+8L2bvTg8P573u9nu/yLWPzktgvv4D);lineShape=1;" parent="1" vertex="1">
                    <mxGeometry x="105.50309637544075" y="381.68808879392617" width="4.526758494806031" height="3.9642122881122868" as="geometry"/>
                </mxCell>
                <mxCell id="127" value="" style="shape=stencil(7VvJbh03EPwaXQnuy9lx/sOA5UiIIxmynOXvU4zA0bA4UxPdEkC3Jz3WG7LX6m7OTfjw/e7Tt9sbb78/Pz3+evvH/efnu5vw04339w93t0/3z/h0Ez7ehA9fHp9uf3l6/PHw+eXvb5/6yv7pt8ff+y/8+YLz1rTWUd7+9fKfZKr75x8/v6z/ev+wW++q6d/t1hcT1fpkSpjWO2tcEYBgcpwB0SQrAN6E+QSumKIAzrh5S96ZmM8BbUhkW59Mq+frq0llWh/wxHi+vhg3HyAUY4VM8fRZBTEYm87XR95/bOOJh+uDaXY2iXSx3tVpfXbGi/XeFFpf5O9jfZ5NDioXJhSG9Lb12VSh3zC0P9ZXa6pX8qTz1mii0G82ad5PbSaL/VQT5v00N0z82KCtybPBNYhMbAg+Fmcfa2Ho5BiQTZ5NokUThIgQVnxmgPKBLtTMZ2jKKBCIZqk2K70yeAbUqs0afjZLCXpWegvNxMSG5JUheZNnQIna8pJJs+vnLdgcA+qIDDvfbEHEFstSgvMHFYwcJxA8s6gnBBNm94EYgjCNBFObzxCy8SLeYcd06GBHUjkDpNm8exbUgLKkkCvAfGgkqaCkBMCS1aQe0ohxGyBLa02ZwyQAKo0A4Ckzb+Z4BiBrBcBpAJ8B/qC2VJiNACCNr5hUF4CIGgC0wAAVZlI9kJLUdDWxMUBRMAAynSHL/ADAanxWb6laBihKBQCFyk6pLgDzluBxWR+6kU87ba04w6w4sCoVW1ex9mgrYmsHEHUOkkd2Pcx5+oIopcYuinAvTaMxlSlJUqWMcD9LCSmriC1hx2H2uJrGTxwDQEUIAJdSW0pMP5Gns9A02COZBp6gKoZiOQPhDEEoroBR0hm8PDSkTpSvVJmyShmEbQMEGVtLM2lWHEzDCdN45bQbwMtCrDpWXM9JIsdBJm4GxC0snAEsUQf8hFBc3xL5tI4aABCb6cWcOrQdcW4Xl7zakh163UU+KdbF48CVk7ClDqD8gDMIFwWA2D0AijoAQDTU6TADACfFKrsAXQ/LE5zwBwBSY4BVtuQ4A3WAkhI8uDDAq6rec1kPQBYuCgB5HPRglWkgzFgGyCeE4S47W/JKSpETCorfpBQXmZGh7rKqdl2YcQiy4KiZjS/a0d84BiC4z5qOVVZZSB/kD53vK9NoXLwiVGYRBFB5WkrsbajyDEBFEwq/LKTU3MiZG6DJoqkFroG6sQiPa4m7UBC0U12xOpjFLk83YUsAVHpCk7bUGhd+AKjEDkBZegJO+DQAFDWaZpXOWvbR5rWqG5+6NzaU5tqwhH1zRoQNAKjiaFGSbyiiJAYUrWrKWQBUZa6FowAASSmicJIDQCmiZXYISElxaQDqojhVNR0AUNOoQ2NL1MKyksP1Q5MHtaGZU7FaBih20hW3cGkVjbtp+AVwYXxLc1N1Brt5LwC5JThQZbEqKR35qBu13WkYIIfwsmHUA83ioyqP9lBGh4gyaUER1OQHICtFbAxs76PqDG8GBJ6b9L602tJC16tuDXZ/IYdI0pjqUgXVC/JQl45rkrMBJEEeVjTpEOAzlNozTENR3cwkLmVpfHVpb8bNus5oIgUm1FkqVnbmOm8JdVbUtSIluV5nKbFuE7FdnRV1UfNeZ73XWf+XOiss1gpKpp9AAzavM3uv5GY9hItGReQxOYKA1HQcLr8PM8qn42hA7QKZNO/A7AShUnZnHMelYmWLFkVSpbZalky3FE6KVXfJyjYS3ABZDhSK464xsp6KfLkecA11PSCnMTPZcw1hGnmrDPcVhxpoW2aJnQm8qd2PvGr12IVrRScrDgBoKF+2PvIxILNYkdhV8zFldqDsxrz3DEAj7RRkEZSWgfPVBCItefpixpF4xnE1RUmcsvqc5k1P6JMgDXgfdL4POk8A/8FBJ91FAkClLACo8PO6l7jqweuE0k1j8WlVKcL44mxLiBqqsdFvgMxSirojhThHN86S1Ypb2pv9VCIDgYrQvCxHGb1j4eEUErGiPzHycArcQDURouXEDn6jEnvIS1KssiwLYbRLd20Kxe790nFtSd/Mi3z5srechIuCB5MtvTZtj5szmbvGu3bNMWKh968d0uMuwnKGKgu/zC7dsmQ/kRvlYEtNaWE0Y3eET4qI42rV153scr1wo8kn66n0hmF7kT+XblrxF+upDMhZ0h67TLLtKBn/nXySrho87wexQPVXAssnblPkE3vg+BtHx/I42HEa9FXqK/NQo19wVY0MjhIXJf1ya9GFi/7qkjStvgPuBy/YLEhuCM9nHqw3VBYmIjNmt+hZonZ0Nk+DnKX1KmJ5y5TWyvP2Tlam9crhO6Pm31ecvIuDYq5kp/iaEpOTXNMv9zi8pPx+uSgStPz9cp9TNqr90o3UbxBgPdXwSfaPsJ7mkkk2/9/6jsX1enx4faHjy/3Xry/vg+y/5xdA8K+Xl0fCx78B);lineShape=1;" parent="1" vertex="1">
                    <mxGeometry x="105.14240238106561" y="399.70744394702837" width="7.187506332203161" height="3.9069788677218744" as="geometry"/>
                </mxCell>
                <mxCell id="128" value="" style="shape=stencil(lVjLUhtBDPwaX1Uzo3meSfIfVAHBFQIUkNffpzfO2Ja82xQ3ey15NVKr1ZqdXr3eXz/f7lJ4fXt5+nb7a3/zdr/TT7uU9o/3ty/7N3za6eedXt09vdx+fXn68Xhz+P58vVgun74//Vz+4ffBr0kMi1MKfw4Psuj49+DLwfxh/3hmHrvkZuybVGKfqpRi7GMQDdsOWiRU66DzlasOWWVk64CQyrZDUQn2CClJr9sONUpxDkOSEocuIxoHrZLTtkMrMyfHKuQZ5KpDD1KScShJtBMHZKkbhxrmk3WHItmmteLQpNJwqPbQrcpgDlmqGgcEybDUkzQbUh+iJEttyLDgG0greQPq0Cz4RpNOsoRKZw/vIIHgG2nPNk1jzExvwVUt+kaVTsCU0dI2r0PpqXOUbE/dcSyCb6DZNQRKw3pUL1puQTxzCB5MtVG4oiPVOQSJ3OE/ms86iNVBowRbavRoJbSh2VdaURn2BoRk64AgG3HIRYptajDZYNSXJrmfcSXjmTKkO4cojTigTN1mCWRM2gEckSzzKeViQLlb4kO7kRSN4okS9qR5xrFEJ/tEYDS6lOjsWX6WZncJnc23Ze94O02QbNonl88Yqb16+064AudNrgvmgF+3r75emQ4F1CtapsADZg9x0L09q2/0+cnSWH1BRM3ZJ5JPTKSeXT4zG7NDirVPVLzAvtnzRjoMEL/7/0gbHvlptr6Bxo/8p+bsKd5Q/urs2bgEfqrv38jw3+eoO9kXFv+Y5Tzlh9UX9r05e4bnMzlwKnAnsxUvcJwOUcQIrs8hdCbgWUM2UXX2nQECksjaF16AD9pDOTiANikkPy1fjLBAD1CrF+MxT62wNfP8yjImKW1N1e7m9lHars9thGRzBL0zSJJy8iynnbaNXpwBWiEyB/C67bNFKzB10y/qPKh6z2Hi+EzSsVGMxc5RXdOZty3hWyw0OteAOKJbfrHEsB2nVM/u4GMmD7A6ui1qpNl/6/AGEIJ3KKT/0Q/BZgninTZQ9VjC2qXsDZB0brFrVHPh52L7Aasj4zCE5M6AvLGp3JJfHbElsY4D1LIb+4VK62U7tjwPwGcGDfX9gIVhEJpBAO4mJdXZg1tblzv0oh3JoVOf0vtM7RfS04t2dcz3zm0QDu24Nc40rL/BD5/j/rz+/75qnYqL4KNpU7xtmDvKg/YnwVwM8ko3m+DXRYCcZCb4Lb9QuAV/s1HoPIj+5iTT2JNPZOZ3dtKGM2caPPvpd6Sw9Va82LvpNP7ghea75vhwuju92z88HK5ez3/3d614dLin1c9/AQ==);lineShape=1;" parent="1" vertex="1">
                    <mxGeometry x="113.36077505080485" y="399.68641835752356" width="1.9111192114097326" height="3.8531215067634474" as="geometry"/>
                </mxCell>
                <mxCell id="129" value="" style="shape=stencil(7VjJUhtBDP0aX1W9qLczIf9BFSa4QjBlIMvfRxPT7ZFm5lEck8rNi95M60l6knoXr57vb572u+CeX07Hr/sfh9uX+138tAvh8Hi/Px1e5NMuXu/i1d3xtP9yOr4+3p6/P91MltOnb8fv0xN+nnGNUp1Awf06/xAS5fbnl89n+4fD48zeV4pZAWIgl7YBgSk5Dcj9EauA6KgEBWBP0QFAocAakKnWbQDH/ncHpECtbAOSo6B9SI0CYCkJiV4BcqICnM6OvKa1BAoBACK1qAGVGPiQM6WmAHVEZh1QqOkj1UYVRDpLaug4NCEasCRHygZQKCOnc+dkACoFEGlh/Y2TGaAilphY09oaRQSI5IsFlAgAnkqygIZoleTTb/DOkQORS+Kjs69AgUhlxeu3BF4HZFtyAgjoSImit4HIoCASU64W4BgCogEUGDkBsAlE7u9cB/iFD6G/c0s2on6DlBwKtQC89qEkTKunrCMt+VgxS0lHWh6BilpyyRm9f0cFQq/I0VFqP+SWzgR9JOkxDFJDlDFpFfCua9s6oFDRgRNZAHGbMk2/wBEDUiX3fTT2qJ1M1ajPI2EEkjGr98EpbKFT9WrJiOSww9UEuffgdXuRaZ3YDNNUCsvkNeMAsO1V3EO+bh/7CHKxj4DQ5u2IMbrpur2MJGzsI0oIZ/tU6IRt2uv4empAfqfzWPuA7L2Nl4N9to1x6GIP47uY8XCDknxwzdoj/oudUh2cCNuiAQphuCDNIOKJwfNXC9IjQltX5Ys9EtFJUbTDERdAtYRyl+2tAGRrzyiBUndvVpCoAGL/e/Z8nHBGQRkL1gfta+p0j8baJ551e2koRqE9nOqkTxuHfevTwjrA2R1EVrGANoRMzWiog9PHNAlon2XLQUuLTKask0KmYTRyyWRq+pjQgHZBeYNZWirDOExbjj6SSBl0+v9K8Qb4G1eKhRP//EqRFvmN7wkmWo3TuBUKrWZUEC2ES8sYzUZRj2lya2lpuoJKhJHmbMVVVgDUbnlMNwPgoVZG7iQO6ZMGhi6pihUmbvD6ZRoQTEOMsEZ96rk5OnqFBeQXM6F4lYDTzsq97F0oWd1iTytwJlmOPAUKpbNLVBipuGFvbo/E3gNGXZe4+c0lCJm3Cib2HgQgLPhkqPOjV87sYd30up3bg7KRqlmcB93Ulp6PM/sG+K+2ZuSEAc14H7w5ft9ePlyuqe8ODw/nW+75//ZaW346X4nH698=);lineShape=1;" parent="1" vertex="1">
                    <mxGeometry x="116.77452484333423" y="398.3295584139986" width="1.7984540570732557" height="3.896126456973556" as="geometry"/>
                </mxCell>
            </root>
        </mxGraphModel>
    </diagram>
</mxfile>